G04*
G04 #@! TF.GenerationSoftware,Altium Limited,Altium Designer,18.1.7 (191)*
G04*
G04 Layer_Color=65535*
%FSLAX25Y25*%
%MOIN*%
G70*
G01*
G75*
%ADD10C,0.00787*%
%ADD11C,0.00984*%
%ADD12C,0.00394*%
%ADD13C,0.01000*%
%ADD14C,0.00800*%
%ADD15C,0.00394*%
%ADD16C,0.00500*%
%ADD17C,0.00100*%
%ADD18C,0.00600*%
G36*
X138050Y99450D02*
X137650D01*
Y100250D01*
X136950D01*
Y100750D01*
X137650D01*
Y101550D01*
X138050D01*
Y99450D01*
D02*
G37*
G36*
X113400Y98300D02*
X111600D01*
Y98650D01*
X113400D01*
Y98300D01*
D02*
G37*
G36*
X109900D02*
X108100D01*
Y98650D01*
X109900D01*
Y98300D01*
D02*
G37*
G36*
X116950Y97350D02*
X116600D01*
Y98650D01*
X116950D01*
Y97350D01*
D02*
G37*
G36*
X115400Y98650D02*
Y97350D01*
X115050Y97350D01*
Y98650D01*
X115400Y98650D01*
D02*
G37*
G36*
X113400Y97350D02*
X111600D01*
Y97700D01*
X113400D01*
Y97350D01*
D02*
G37*
G36*
X109900D02*
X108100D01*
Y97700D01*
X109900D01*
Y97350D01*
D02*
G37*
G36*
X138150Y97100D02*
X136850D01*
Y97450D01*
X138150D01*
Y97100D01*
D02*
G37*
G36*
Y95550D02*
X136850D01*
X136850Y95900D01*
X138150D01*
X138150Y95550D01*
D02*
G37*
G36*
X116000Y89950D02*
Y89450D01*
X113000D01*
Y89950D01*
X116000Y89950D01*
D02*
G37*
G36*
X111500Y89450D02*
X108500D01*
Y89950D01*
X111500D01*
Y89450D01*
D02*
G37*
G36*
X116000Y88050D02*
X113000D01*
Y88550D01*
X116000D01*
Y88050D01*
D02*
G37*
G36*
X111500D02*
X108500Y88050D01*
Y88550D01*
X111500D01*
Y88050D01*
D02*
G37*
G36*
X113150Y82600D02*
X111850D01*
Y82950D01*
X113150D01*
Y82600D01*
D02*
G37*
G36*
Y81050D02*
X111850D01*
X111850Y81400D01*
X113150D01*
X113150Y81050D01*
D02*
G37*
G36*
X85900Y78300D02*
X84100D01*
Y78650D01*
X85900D01*
Y78300D01*
D02*
G37*
G36*
X89950Y77350D02*
X89600Y77350D01*
Y78650D01*
X89950Y78650D01*
Y77350D01*
D02*
G37*
G36*
X88400D02*
X88050D01*
Y78650D01*
X88400D01*
Y77350D01*
D02*
G37*
G36*
X85900D02*
X84100D01*
Y77700D01*
X85900D01*
Y77350D01*
D02*
G37*
G36*
X110457Y72450D02*
Y71950D01*
X107457D01*
Y72450D01*
X110457Y72450D01*
D02*
G37*
G36*
X113857Y70800D02*
X112057D01*
Y71150D01*
X113857D01*
Y70800D01*
D02*
G37*
G36*
X110457Y70550D02*
X107457D01*
Y71050D01*
X110457D01*
Y70550D01*
D02*
G37*
G36*
X113857Y69850D02*
X112057D01*
Y70200D01*
X113857D01*
Y69850D01*
D02*
G37*
G36*
X86500Y69450D02*
X83500D01*
Y69950D01*
X86500D01*
Y69450D01*
D02*
G37*
G36*
X89900Y69300D02*
X88100D01*
Y69650D01*
X89900D01*
Y69300D01*
D02*
G37*
G36*
Y68350D02*
X88100D01*
Y68700D01*
X89900D01*
Y68350D01*
D02*
G37*
G36*
X86500Y68050D02*
X83500Y68050D01*
Y68550D01*
X86500D01*
Y68050D01*
D02*
G37*
G36*
X115150Y63100D02*
X114800D01*
Y64900D01*
X115150D01*
Y63100D01*
D02*
G37*
G36*
X114200D02*
X113850D01*
Y64900D01*
X114200D01*
Y63100D01*
D02*
G37*
G36*
X73650Y62600D02*
X73300D01*
Y64400D01*
X73650D01*
Y62600D01*
D02*
G37*
G36*
X72700D02*
X72350D01*
Y64400D01*
X72700D01*
Y62600D01*
D02*
G37*
G36*
X104150Y62100D02*
X103800D01*
Y63900D01*
X104150D01*
Y62100D01*
D02*
G37*
G36*
X103200D02*
X102850D01*
Y63900D01*
X103200D01*
Y62100D01*
D02*
G37*
G36*
X95950Y61500D02*
X95450D01*
Y64500D01*
X95950D01*
Y61500D01*
D02*
G37*
G36*
X94550D02*
X94050D01*
X94050Y64500D01*
X94550D01*
Y61500D01*
D02*
G37*
G36*
X115150Y60600D02*
X113850D01*
Y60950D01*
X115150D01*
Y60600D01*
D02*
G37*
G36*
Y59050D02*
X113850D01*
X113850Y59400D01*
X115150D01*
X115150Y59050D01*
D02*
G37*
G36*
X109900Y57300D02*
X108100D01*
Y57650D01*
X109900D01*
Y57300D01*
D02*
G37*
G36*
X106400D02*
X104600D01*
Y57650D01*
X106400D01*
Y57300D01*
D02*
G37*
G36*
X101700D02*
X99900D01*
Y57650D01*
X101700D01*
Y57300D01*
D02*
G37*
G36*
X155650Y57100D02*
X155300D01*
Y58900D01*
X155650D01*
Y57100D01*
D02*
G37*
G36*
X154700D02*
X154350D01*
Y58900D01*
X154700D01*
Y57100D01*
D02*
G37*
G36*
X109900Y56350D02*
X108100D01*
Y56700D01*
X109900D01*
Y56350D01*
D02*
G37*
G36*
X106400D02*
X104600D01*
Y56700D01*
X106400D01*
Y56350D01*
D02*
G37*
G36*
X101700D02*
X99900D01*
Y56700D01*
X101700D01*
Y56350D01*
D02*
G37*
G36*
X98350D02*
X98000Y56350D01*
Y57650D01*
X98350Y57650D01*
Y56350D01*
D02*
G37*
G36*
X96800D02*
X96450D01*
Y57650D01*
X96800D01*
Y56350D01*
D02*
G37*
G36*
X155650Y53878D02*
X155300D01*
Y55678D01*
X155650D01*
Y53878D01*
D02*
G37*
G36*
X154700D02*
X154350D01*
Y55678D01*
X154700D01*
Y53878D01*
D02*
G37*
G36*
X155650Y50656D02*
X155300D01*
Y52456D01*
X155650D01*
Y50656D01*
D02*
G37*
G36*
X154700D02*
X154350D01*
Y52456D01*
X154700D01*
Y50656D01*
D02*
G37*
G36*
X155650Y48933D02*
X154350D01*
X154350Y49283D01*
X155650D01*
X155650Y48933D01*
D02*
G37*
G36*
X155650Y47383D02*
X154350D01*
Y47733D01*
X155650D01*
Y47383D01*
D02*
G37*
G36*
Y44211D02*
X155300D01*
Y46011D01*
X155650D01*
Y44211D01*
D02*
G37*
G36*
X154700D02*
X154350D01*
Y46011D01*
X154700D01*
Y44211D01*
D02*
G37*
G36*
X155650Y42489D02*
X154350D01*
X154350Y42839D01*
X155650D01*
X155650Y42489D01*
D02*
G37*
G36*
X133150Y41700D02*
X132800D01*
Y43500D01*
X133150D01*
Y41700D01*
D02*
G37*
G36*
X132200D02*
X131850D01*
Y43500D01*
X132200D01*
Y41700D01*
D02*
G37*
G36*
X155650Y40939D02*
X154350D01*
Y41289D01*
X155650D01*
Y40939D01*
D02*
G37*
G36*
X155650Y39267D02*
X154350D01*
X154350Y39617D01*
X155650D01*
X155650Y39267D01*
D02*
G37*
G36*
X119400Y38800D02*
X117600D01*
Y39150D01*
X119400D01*
Y38800D01*
D02*
G37*
G36*
Y37850D02*
X117600D01*
Y38200D01*
X119400D01*
Y37850D01*
D02*
G37*
G36*
X155650Y37717D02*
X154350D01*
Y38067D01*
X155650D01*
Y37717D01*
D02*
G37*
G36*
X86450Y34600D02*
X85150D01*
Y34950D01*
X86450D01*
Y34600D01*
D02*
G37*
G36*
X79450D02*
X78150D01*
Y34950D01*
X79450D01*
Y34600D01*
D02*
G37*
G36*
X72450D02*
X71150D01*
X71150Y34950D01*
X72450D01*
X72450Y34600D01*
D02*
G37*
G36*
X155650Y34544D02*
X155300D01*
Y36344D01*
X155650D01*
Y34544D01*
D02*
G37*
G36*
X154700D02*
X154350D01*
Y36344D01*
X154700D01*
Y34544D01*
D02*
G37*
G36*
X86450Y33050D02*
X85150D01*
X85150Y33400D01*
X86450D01*
X86450Y33050D01*
D02*
G37*
G36*
X79450D02*
X78150D01*
X78150Y33400D01*
X79450D01*
X79450Y33050D01*
D02*
G37*
G36*
X72450D02*
X71150D01*
Y33400D01*
X72450D01*
Y33050D01*
D02*
G37*
G36*
X155650Y32822D02*
X154350D01*
X154350Y33172D01*
X155650D01*
X155650Y32822D01*
D02*
G37*
G36*
X155650Y31272D02*
X154350D01*
Y31622D01*
X155650D01*
Y31272D01*
D02*
G37*
G36*
X119400Y30800D02*
X117600D01*
Y31150D01*
X119400D01*
Y30800D01*
D02*
G37*
G36*
Y29850D02*
X117600D01*
Y30200D01*
X119400D01*
Y29850D01*
D02*
G37*
G36*
X155650Y29600D02*
X154350D01*
X154350Y29950D01*
X155650D01*
X155650Y29600D01*
D02*
G37*
G36*
X155650Y28050D02*
X154350D01*
Y28400D01*
X155650D01*
Y28050D01*
D02*
G37*
G36*
X119400Y22800D02*
X117600D01*
Y23150D01*
X119400D01*
Y22800D01*
D02*
G37*
G36*
Y21850D02*
X117600D01*
Y22200D01*
X119400D01*
Y21850D01*
D02*
G37*
G36*
X100650Y19600D02*
X99350D01*
Y19950D01*
X100650D01*
Y19600D01*
D02*
G37*
G36*
Y18050D02*
X99350D01*
X99350Y18400D01*
X100650D01*
X100650Y18050D01*
D02*
G37*
G36*
X162723Y20234D02*
X162768Y20231D01*
X162819Y20220D01*
X162875Y20205D01*
X162934Y20179D01*
X162986Y20142D01*
X163030Y20094D01*
X163034Y20086D01*
X163045Y20072D01*
X163056Y20042D01*
X163071Y20001D01*
X163078Y19953D01*
X163082Y19898D01*
X163078Y19835D01*
X163071Y19801D01*
X163060Y19764D01*
X162416Y17870D01*
Y17866D01*
X162412Y17859D01*
X162409Y17848D01*
X162401Y17829D01*
X162379Y17785D01*
X162349Y17729D01*
X162312Y17666D01*
X162268Y17607D01*
X162213Y17548D01*
X162146Y17496D01*
X162142D01*
X162139Y17489D01*
X162127Y17485D01*
X162113Y17474D01*
X162072Y17452D01*
X162024Y17426D01*
X161965Y17400D01*
X161898Y17378D01*
X161828Y17363D01*
X161758Y17356D01*
X160881D01*
X160862Y17359D01*
X160840Y17367D01*
X160810Y17374D01*
X160781Y17389D01*
X160751Y17411D01*
X160722Y17437D01*
X160718Y17441D01*
X160710Y17452D01*
X160696Y17470D01*
X160685Y17496D01*
X160670Y17530D01*
X160662Y17570D01*
X160655Y17615D01*
X160659Y17666D01*
Y17670D01*
Y17678D01*
X160662Y17689D01*
X160666Y17711D01*
X160670Y17733D01*
X160677Y17766D01*
X160685Y17807D01*
X160696Y17852D01*
X161114D01*
Y17848D01*
X161110Y17833D01*
Y17811D01*
Y17789D01*
X161121Y17766D01*
X161136Y17744D01*
X161165Y17729D01*
X161188Y17726D01*
X161820D01*
X161835Y17729D01*
X161854D01*
X161898Y17744D01*
X161924Y17752D01*
X161946Y17766D01*
X161950Y17770D01*
X161954Y17774D01*
X161965Y17785D01*
X161976Y17803D01*
X161991Y17826D01*
X162005Y17855D01*
X162024Y17892D01*
X162042Y17937D01*
X162183Y18351D01*
Y18355D01*
X162187Y18358D01*
X162190Y18377D01*
X162194Y18406D01*
Y18440D01*
X162183Y18469D01*
X162164Y18499D01*
X162150Y18510D01*
X162131Y18518D01*
X162109Y18525D01*
X161402D01*
X161384Y18529D01*
X161358D01*
X161332Y18532D01*
X161276Y18547D01*
X161214Y18566D01*
X161154Y18595D01*
X161103Y18636D01*
X161080Y18658D01*
X161066Y18688D01*
Y18691D01*
X161062Y18695D01*
X161058Y18706D01*
Y18721D01*
X161051Y18758D01*
X161047Y18810D01*
Y18813D01*
Y18828D01*
Y18847D01*
X161051Y18876D01*
Y18906D01*
X161058Y18939D01*
X161073Y19006D01*
X161343Y19805D01*
Y19809D01*
X161347Y19813D01*
X161354Y19835D01*
X161373Y19864D01*
X161395Y19905D01*
X161425Y19953D01*
X161465Y20005D01*
X161517Y20057D01*
X161576Y20105D01*
X161580D01*
X161584Y20112D01*
X161595Y20116D01*
X161606Y20127D01*
X161643Y20145D01*
X161691Y20171D01*
X161743Y20197D01*
X161806Y20216D01*
X161872Y20231D01*
X161939Y20238D01*
X162705D01*
X162723Y20234D01*
D02*
G37*
G36*
X159996Y20227D02*
X160044D01*
X160100Y20220D01*
X160159Y20212D01*
X160215Y20205D01*
X160270Y20190D01*
X160274D01*
X160289Y20182D01*
X160311Y20171D01*
X160337Y20157D01*
X160366Y20138D01*
X160396Y20112D01*
X160425Y20075D01*
X160451Y20034D01*
X160455Y20027D01*
X160459Y20020D01*
X160462Y20005D01*
X160466Y19986D01*
X160470Y19968D01*
X160474Y19942D01*
X160477Y19916D01*
Y19883D01*
Y19846D01*
X160474Y19805D01*
X160470Y19761D01*
X160459Y19713D01*
X160448Y19657D01*
X160433Y19602D01*
X160414Y19539D01*
X159674Y17367D01*
X159279D01*
X159996Y19468D01*
Y19472D01*
X160000Y19476D01*
X160004Y19487D01*
X160007Y19502D01*
X160015Y19539D01*
X160026Y19579D01*
X160033Y19627D01*
X160037Y19676D01*
Y19720D01*
X160026Y19757D01*
X160022Y19761D01*
X160015Y19775D01*
X160004Y19790D01*
X159982Y19813D01*
X159956Y19831D01*
X159919Y19850D01*
X159874Y19861D01*
X159819Y19864D01*
X159597D01*
X159722Y20231D01*
X159959D01*
X159996Y20227D01*
D02*
G37*
G36*
X151216Y20231D02*
X151261Y20227D01*
X151309Y20216D01*
X151364Y20201D01*
X151416Y20175D01*
X151464Y20142D01*
X151505Y20097D01*
X151508Y20090D01*
X151520Y20075D01*
X151531Y20046D01*
X151542Y20012D01*
X151549Y19968D01*
X151553Y19916D01*
X151549Y19857D01*
X151531Y19794D01*
X151335Y19213D01*
Y19209D01*
X151331Y19202D01*
X151327Y19191D01*
X151320Y19176D01*
X151301Y19135D01*
X151275Y19084D01*
X151242Y19028D01*
X151201Y18969D01*
X151153Y18913D01*
X151098Y18865D01*
X151094D01*
X151090Y18858D01*
X151079Y18850D01*
X151061Y18843D01*
X151042Y18832D01*
X151020Y18821D01*
X150965Y18795D01*
X150898Y18765D01*
X150820Y18743D01*
X150732Y18728D01*
X150635Y18721D01*
X149999D01*
X149980Y18717D01*
X149962Y18714D01*
X149910Y18702D01*
X149884Y18688D01*
X149858Y18673D01*
X149855Y18669D01*
X149847Y18665D01*
X149836Y18654D01*
X149825Y18643D01*
X149795Y18606D01*
X149784Y18584D01*
X149773Y18558D01*
X149559Y17925D01*
Y17922D01*
X149555Y17918D01*
X149551Y17896D01*
X149548Y17866D01*
Y17833D01*
X149551Y17796D01*
X149570Y17766D01*
X149584Y17755D01*
X149603Y17744D01*
X149625Y17740D01*
X149655Y17737D01*
X150846D01*
X150720Y17367D01*
X149474D01*
X149436Y17370D01*
X149388Y17374D01*
X149340Y17385D01*
X149292Y17396D01*
X149248Y17415D01*
X149214Y17437D01*
Y17441D01*
X149207Y17445D01*
X149189Y17467D01*
X149166Y17500D01*
X149144Y17548D01*
X149126Y17611D01*
X149118Y17648D01*
X149115Y17689D01*
X149118Y17733D01*
X149122Y17781D01*
X149133Y17829D01*
X149148Y17885D01*
X149399Y18625D01*
Y18629D01*
X149403Y18632D01*
X149411Y18654D01*
X149429Y18691D01*
X149451Y18732D01*
X149481Y18784D01*
X149522Y18836D01*
X149566Y18888D01*
X149621Y18936D01*
X149625Y18939D01*
X149629Y18943D01*
X149640Y18950D01*
X149655Y18961D01*
X149677Y18973D01*
X149699Y18984D01*
X149755Y19013D01*
X149821Y19043D01*
X149903Y19065D01*
X149992Y19084D01*
X150091Y19091D01*
X150706D01*
X150732Y19095D01*
X150765Y19098D01*
X150805Y19113D01*
X150850Y19132D01*
X150891Y19161D01*
X150928Y19202D01*
X150942Y19224D01*
X150953Y19254D01*
X151102Y19694D01*
Y19698D01*
X151105Y19709D01*
X151109Y19724D01*
X151113Y19742D01*
X151116Y19783D01*
X151113Y19801D01*
X151105Y19816D01*
Y19820D01*
X151098Y19824D01*
X151090Y19831D01*
X151076Y19842D01*
X151057Y19850D01*
X151031Y19857D01*
X151002Y19861D01*
X150961Y19864D01*
X149877D01*
X150003Y20234D01*
X151201D01*
X151216Y20231D01*
D02*
G37*
G36*
X147368D02*
X147413Y20227D01*
X147461Y20216D01*
X147516Y20201D01*
X147568Y20175D01*
X147616Y20142D01*
X147657Y20097D01*
X147661Y20090D01*
X147672Y20075D01*
X147683Y20046D01*
X147694Y20012D01*
X147701Y19968D01*
X147705Y19916D01*
X147701Y19857D01*
X147683Y19794D01*
X147487Y19213D01*
Y19209D01*
X147483Y19202D01*
X147479Y19191D01*
X147472Y19176D01*
X147453Y19135D01*
X147427Y19084D01*
X147394Y19028D01*
X147353Y18969D01*
X147305Y18913D01*
X147250Y18865D01*
X147246D01*
X147242Y18858D01*
X147231Y18850D01*
X147213Y18843D01*
X147194Y18832D01*
X147172Y18821D01*
X147117Y18795D01*
X147050Y18765D01*
X146972Y18743D01*
X146883Y18728D01*
X146787Y18721D01*
X146151D01*
X146132Y18717D01*
X146114Y18714D01*
X146062Y18702D01*
X146036Y18688D01*
X146010Y18673D01*
X146007Y18669D01*
X145999Y18665D01*
X145988Y18654D01*
X145977Y18643D01*
X145947Y18606D01*
X145936Y18584D01*
X145925Y18558D01*
X145711Y17925D01*
Y17922D01*
X145707Y17918D01*
X145703Y17896D01*
X145700Y17866D01*
Y17833D01*
X145703Y17796D01*
X145722Y17766D01*
X145737Y17755D01*
X145755Y17744D01*
X145777Y17740D01*
X145807Y17737D01*
X146998D01*
X146872Y17367D01*
X145625D01*
X145589Y17370D01*
X145540Y17374D01*
X145492Y17385D01*
X145444Y17396D01*
X145400Y17415D01*
X145367Y17437D01*
Y17441D01*
X145359Y17445D01*
X145341Y17467D01*
X145318Y17500D01*
X145296Y17548D01*
X145278Y17611D01*
X145270Y17648D01*
X145267Y17689D01*
X145270Y17733D01*
X145274Y17781D01*
X145285Y17829D01*
X145300Y17885D01*
X145552Y18625D01*
Y18629D01*
X145555Y18632D01*
X145563Y18654D01*
X145581Y18691D01*
X145603Y18732D01*
X145633Y18784D01*
X145674Y18836D01*
X145718Y18888D01*
X145773Y18936D01*
X145777Y18939D01*
X145781Y18943D01*
X145792Y18950D01*
X145807Y18961D01*
X145829Y18973D01*
X145851Y18984D01*
X145907Y19013D01*
X145973Y19043D01*
X146055Y19065D01*
X146143Y19084D01*
X146243Y19091D01*
X146858D01*
X146883Y19095D01*
X146917Y19098D01*
X146958Y19113D01*
X147002Y19132D01*
X147043Y19161D01*
X147080Y19202D01*
X147094Y19224D01*
X147106Y19254D01*
X147254Y19694D01*
Y19698D01*
X147257Y19709D01*
X147261Y19724D01*
X147265Y19742D01*
X147268Y19783D01*
X147265Y19801D01*
X147257Y19816D01*
Y19820D01*
X147250Y19824D01*
X147242Y19831D01*
X147228Y19842D01*
X147209Y19850D01*
X147183Y19857D01*
X147154Y19861D01*
X147113Y19864D01*
X146029D01*
X146155Y20234D01*
X147353D01*
X147368Y20231D01*
D02*
G37*
G36*
X157018Y20227D02*
X157051D01*
X157084Y20223D01*
X157125Y20216D01*
X157210Y20194D01*
X157251Y20175D01*
X157288Y20157D01*
X157321Y20131D01*
X157351Y20101D01*
X157369Y20068D01*
X157380Y20027D01*
Y19979D01*
X157369Y19927D01*
Y19924D01*
X157362Y19909D01*
X157354Y19890D01*
X157343Y19864D01*
X157329Y19835D01*
X157310Y19801D01*
X157269Y19735D01*
X157092Y19483D01*
X155634Y17363D01*
X155175D01*
X156714Y19602D01*
X156718Y19605D01*
X156722Y19613D01*
X156733Y19627D01*
X156744Y19646D01*
X156766Y19683D01*
X156774Y19702D01*
X156781Y19716D01*
Y19724D01*
X156785Y19738D01*
Y19761D01*
X156777Y19790D01*
X156763Y19816D01*
X156748Y19827D01*
X156733Y19838D01*
X156711Y19846D01*
X156685Y19853D01*
X156651Y19861D01*
X155582D01*
X155708Y20231D01*
X156996D01*
X157018Y20227D01*
D02*
G37*
G36*
X157728Y17356D02*
X157266D01*
X157443Y17874D01*
X157906D01*
X157728Y17356D01*
D02*
G37*
G36*
X153880D02*
X153418D01*
X153595Y17874D01*
X154058D01*
X153880Y17356D01*
D02*
G37*
G36*
X153129Y20231D02*
X153177Y20227D01*
X153229Y20216D01*
X153285Y20197D01*
X153340Y20168D01*
X153388Y20131D01*
X153410Y20105D01*
X153425Y20079D01*
X153429Y20072D01*
X153436Y20053D01*
X153444Y20020D01*
X153455Y19975D01*
X153458Y19924D01*
Y19861D01*
X153447Y19790D01*
X153429Y19716D01*
X152804Y17874D01*
Y17870D01*
X152800Y17863D01*
X152796Y17852D01*
X152789Y17833D01*
X152767Y17789D01*
X152741Y17733D01*
X152704Y17670D01*
X152659Y17607D01*
X152607Y17548D01*
X152544Y17496D01*
X152541Y17493D01*
X152533Y17489D01*
X152515Y17478D01*
X152496Y17463D01*
X152471Y17448D01*
X152441Y17433D01*
X152374Y17404D01*
X152371Y17400D01*
X152356Y17396D01*
X152334Y17389D01*
X152308Y17382D01*
X152245Y17363D01*
X152211Y17359D01*
X152182Y17356D01*
X151390D01*
X151375Y17359D01*
X151335Y17363D01*
X151286Y17374D01*
X151231Y17393D01*
X151175Y17415D01*
X151127Y17452D01*
X151083Y17500D01*
X151079Y17507D01*
X151068Y17526D01*
X151057Y17556D01*
X151046Y17596D01*
X151039Y17648D01*
Y17711D01*
X151046Y17785D01*
X151057Y17826D01*
X151068Y17866D01*
X151693Y19698D01*
Y19702D01*
X151697Y19709D01*
X151701Y19720D01*
X151708Y19738D01*
X151731Y19783D01*
X151760Y19838D01*
X151797Y19898D01*
X151845Y19964D01*
X151901Y20027D01*
X151967Y20086D01*
X151971D01*
X151975Y20094D01*
X151986Y20101D01*
X152001Y20109D01*
X152038Y20134D01*
X152086Y20160D01*
X152145Y20186D01*
X152208Y20212D01*
X152278Y20227D01*
X152348Y20234D01*
X153114D01*
X153129Y20231D01*
D02*
G37*
G36*
X149281D02*
X149329Y20227D01*
X149381Y20216D01*
X149436Y20197D01*
X149492Y20168D01*
X149540Y20131D01*
X149562Y20105D01*
X149577Y20079D01*
X149581Y20072D01*
X149588Y20053D01*
X149596Y20020D01*
X149607Y19975D01*
X149610Y19924D01*
Y19861D01*
X149599Y19790D01*
X149581Y19716D01*
X148956Y17874D01*
Y17870D01*
X148952Y17863D01*
X148948Y17852D01*
X148941Y17833D01*
X148918Y17789D01*
X148893Y17733D01*
X148856Y17670D01*
X148811Y17607D01*
X148759Y17548D01*
X148696Y17496D01*
X148693Y17493D01*
X148685Y17489D01*
X148667Y17478D01*
X148648Y17463D01*
X148623Y17448D01*
X148593Y17433D01*
X148526Y17404D01*
X148523Y17400D01*
X148508Y17396D01*
X148486Y17389D01*
X148460Y17382D01*
X148397Y17363D01*
X148363Y17359D01*
X148334Y17356D01*
X147542D01*
X147527Y17359D01*
X147487Y17363D01*
X147439Y17374D01*
X147383Y17393D01*
X147327Y17415D01*
X147279Y17452D01*
X147235Y17500D01*
X147231Y17507D01*
X147220Y17526D01*
X147209Y17556D01*
X147198Y17596D01*
X147191Y17648D01*
Y17711D01*
X147198Y17785D01*
X147209Y17826D01*
X147220Y17866D01*
X147845Y19698D01*
Y19702D01*
X147849Y19709D01*
X147853Y19720D01*
X147860Y19738D01*
X147882Y19783D01*
X147912Y19838D01*
X147949Y19898D01*
X147997Y19964D01*
X148053Y20027D01*
X148119Y20086D01*
X148123D01*
X148127Y20094D01*
X148138Y20101D01*
X148153Y20109D01*
X148190Y20134D01*
X148238Y20160D01*
X148297Y20186D01*
X148360Y20212D01*
X148430Y20227D01*
X148500Y20234D01*
X149266D01*
X149281Y20231D01*
D02*
G37*
G36*
X154100Y23742D02*
X154560D01*
X154456Y23437D01*
X153996D01*
X153850Y23009D01*
X154310D01*
X154207Y22705D01*
X153747D01*
X153611Y22300D01*
X154071D01*
X153967Y21995D01*
X153507D01*
X153358Y21561D01*
X153824D01*
X153718Y21253D01*
X152512D01*
X152477Y21257D01*
X152435Y21260D01*
X152392Y21263D01*
X152350Y21273D01*
X152315Y21283D01*
X152302Y21289D01*
X152292Y21295D01*
X152289Y21299D01*
X152276Y21312D01*
X152263Y21334D01*
X152247Y21363D01*
X152237Y21399D01*
X152230Y21444D01*
Y21500D01*
X152237Y21529D01*
X152247Y21561D01*
X152726Y22967D01*
X152720Y22964D01*
X152703Y22951D01*
X152678Y22935D01*
X152645Y22915D01*
X152609Y22893D01*
X152567Y22867D01*
X152525Y22844D01*
X152483Y22825D01*
X152626Y23246D01*
X152629Y23249D01*
X152635Y23252D01*
X152645Y23262D01*
X152658Y23272D01*
X152674Y23288D01*
X152694Y23304D01*
X152745Y23350D01*
X152804Y23408D01*
X152869Y23479D01*
X152940Y23560D01*
X153018Y23657D01*
X153021Y23664D01*
X153034Y23680D01*
X153057Y23712D01*
X153086Y23755D01*
X153102Y23780D01*
X153121Y23810D01*
X153141Y23842D01*
X153164Y23878D01*
X153189Y23917D01*
X153215Y23962D01*
X153241Y24007D01*
X153270Y24056D01*
X153614D01*
X153611Y24049D01*
X153601Y24033D01*
X153585Y24007D01*
X153565Y23972D01*
X153536Y23926D01*
X153504Y23871D01*
X153465Y23810D01*
X153423Y23742D01*
X153795D01*
X153902Y24056D01*
X154207D01*
X154100Y23742D01*
D02*
G37*
G36*
X157793Y24046D02*
X157826Y24040D01*
X157858Y24030D01*
X157891Y24014D01*
X157920Y23994D01*
X157942Y23968D01*
X157946Y23965D01*
X157949Y23952D01*
X157955Y23936D01*
X157962Y23910D01*
X157965Y23881D01*
Y23845D01*
X157959Y23803D01*
X157946Y23755D01*
X157842Y23453D01*
X157544D01*
X157602Y23625D01*
X157606Y23631D01*
Y23644D01*
X157609Y23664D01*
Y23687D01*
X157602Y23706D01*
X157586Y23725D01*
X157573Y23735D01*
X157560Y23738D01*
X157544Y23745D01*
X156462D01*
X156446Y23742D01*
X156407Y23732D01*
X156387Y23725D01*
X156374Y23716D01*
X156371Y23712D01*
X156358Y23699D01*
X156342Y23674D01*
X156326Y23641D01*
X156261Y23453D01*
X155956D01*
X156057Y23738D01*
Y23742D01*
X156060Y23745D01*
X156067Y23761D01*
X156079Y23790D01*
X156096Y23823D01*
X156115Y23858D01*
X156144Y23897D01*
X156173Y23936D01*
X156212Y23968D01*
X156219Y23972D01*
X156232Y23981D01*
X156254Y23994D01*
X156280Y24011D01*
X156316Y24024D01*
X156355Y24036D01*
X156400Y24046D01*
X156446Y24049D01*
X157767D01*
X157793Y24046D01*
D02*
G37*
G36*
X148255Y21383D02*
X148252Y21380D01*
X148248Y21373D01*
X148239Y21360D01*
X148226Y21344D01*
X148213Y21325D01*
X148197Y21299D01*
X148154Y21247D01*
X148109Y21192D01*
X148057Y21137D01*
X148005Y21085D01*
X147979Y21062D01*
X147954Y21043D01*
X147950D01*
X147947Y21036D01*
X147937Y21033D01*
X147924Y21023D01*
X147908Y21017D01*
X147889Y21007D01*
X147840Y20984D01*
X147782Y20962D01*
X147714Y20945D01*
X147639Y20933D01*
X147555Y20926D01*
X147244D01*
X147348Y21237D01*
X147581D01*
X147604Y21240D01*
X147633Y21244D01*
X147665Y21247D01*
X147698Y21257D01*
X147733Y21266D01*
X147766Y21283D01*
X147769Y21286D01*
X147782Y21292D01*
X147798Y21305D01*
X147821Y21325D01*
X147847Y21347D01*
X147879Y21380D01*
X147911Y21419D01*
X147944Y21464D01*
X148047Y21616D01*
X147921D01*
X147898Y21619D01*
X147869Y21623D01*
X147834Y21629D01*
X147798Y21636D01*
X147766Y21649D01*
X147733Y21665D01*
X147730Y21668D01*
X147717Y21678D01*
X147698Y21697D01*
X147678Y21720D01*
X147659Y21752D01*
X147639Y21791D01*
X147630Y21836D01*
X147626Y21888D01*
X147668Y23175D01*
X148015D01*
X147979Y22112D01*
Y22109D01*
Y22105D01*
Y22086D01*
X147986Y22060D01*
X147996Y22031D01*
X148015Y21998D01*
X148041Y21973D01*
X148057Y21963D01*
X148080Y21953D01*
X148103Y21950D01*
X148132Y21947D01*
X148138D01*
X148158Y21950D01*
X148187Y21956D01*
X148222Y21966D01*
X148265Y21986D01*
X148310Y22018D01*
X148333Y22034D01*
X148355Y22057D01*
X148378Y22083D01*
X148397Y22112D01*
X149088Y23175D01*
X149431D01*
X148255Y21383D01*
D02*
G37*
G36*
X146159Y23162D02*
X147033D01*
X147050Y23158D01*
X147069D01*
X147092Y23155D01*
X147140Y23145D01*
X147195Y23133D01*
X147247Y23110D01*
X147296Y23081D01*
X147318Y23065D01*
X147335Y23042D01*
X147338Y23035D01*
X147348Y23022D01*
X147357Y23000D01*
X147370Y22967D01*
X147377Y22928D01*
X147380Y22883D01*
X147377Y22834D01*
X147364Y22779D01*
X147069Y21908D01*
Y21905D01*
X147066Y21898D01*
X147063Y21888D01*
X147056Y21872D01*
X147037Y21836D01*
X147014Y21788D01*
X146982Y21739D01*
X146943Y21684D01*
X146894Y21636D01*
X146839Y21590D01*
X146836D01*
X146833Y21584D01*
X146823Y21581D01*
X146810Y21571D01*
X146781Y21555D01*
X146739Y21532D01*
X146690Y21509D01*
X146635Y21493D01*
X146577Y21480D01*
X146518Y21474D01*
X145631D01*
X145601Y21477D01*
X145569Y21483D01*
X145533Y21493D01*
X145494Y21509D01*
X145456Y21529D01*
X145420Y21555D01*
X145413Y21561D01*
X145404Y21574D01*
X145387Y21603D01*
X145371Y21642D01*
X145365Y21665D01*
X145362Y21694D01*
X145358Y21723D01*
Y21759D01*
X145362Y21798D01*
X145368Y21840D01*
X145378Y21885D01*
X145394Y21934D01*
X146094Y23994D01*
X146444D01*
X146159Y23162D01*
D02*
G37*
G36*
X155785Y24049D02*
X155814Y24043D01*
X155843Y24036D01*
X155875Y24024D01*
X155901Y24004D01*
X155927Y23981D01*
X155930Y23978D01*
X155937Y23965D01*
X155947Y23949D01*
X155956Y23923D01*
X155963Y23894D01*
X155966Y23858D01*
X155963Y23816D01*
X155950Y23771D01*
X155227Y21642D01*
X155224Y21636D01*
X155218Y21619D01*
X155208Y21594D01*
X155192Y21564D01*
X155169Y21529D01*
X155146Y21493D01*
X155117Y21457D01*
X155082Y21428D01*
X155075Y21425D01*
X155062Y21415D01*
X155039Y21402D01*
X155007Y21386D01*
X154971Y21370D01*
X154929Y21357D01*
X154884Y21347D01*
X154835Y21344D01*
X154398D01*
X154382Y21347D01*
X154362D01*
X154314Y21360D01*
X154288Y21370D01*
X154262Y21383D01*
X154236Y21396D01*
X154213Y21415D01*
X154194Y21441D01*
X154181Y21470D01*
X154171Y21503D01*
X154168Y21545D01*
X154174Y21590D01*
X154187Y21642D01*
X154907Y23758D01*
X154910Y23764D01*
X154916Y23780D01*
X154926Y23806D01*
X154946Y23836D01*
X154968Y23871D01*
X154994Y23907D01*
X155030Y23946D01*
X155072Y23978D01*
X155078Y23981D01*
X155091Y23991D01*
X155111Y24001D01*
X155140Y24017D01*
X155175Y24030D01*
X155211Y24040D01*
X155253Y24049D01*
X155299Y24053D01*
X155762D01*
X155785Y24049D01*
D02*
G37*
G36*
X151200Y21733D02*
Y21730D01*
X151197Y21723D01*
X151190Y21710D01*
X151184Y21694D01*
X151177Y21675D01*
X151168Y21655D01*
X151142Y21603D01*
X151113Y21548D01*
X151077Y21493D01*
X151038Y21441D01*
X150993Y21396D01*
X150986Y21393D01*
X150970Y21380D01*
X150941Y21360D01*
X150905Y21341D01*
X150860Y21318D01*
X150811Y21299D01*
X150753Y21283D01*
X150691Y21276D01*
X150789Y21558D01*
X150795D01*
X150811Y21564D01*
X150834Y21574D01*
X150853Y21590D01*
X150857Y21597D01*
X150863Y21603D01*
X150870Y21613D01*
X150876Y21629D01*
X150886Y21652D01*
X150899Y21684D01*
X150912Y21720D01*
X151375Y23029D01*
X151657D01*
X151200Y21733D01*
D02*
G37*
G36*
X160930Y24020D02*
X160969Y24017D01*
X161007Y24011D01*
X161046Y23998D01*
X161082Y23985D01*
X161108Y23965D01*
X161111Y23962D01*
X161121Y23949D01*
X161131Y23930D01*
X161140Y23900D01*
X161150Y23862D01*
Y23813D01*
X161144Y23755D01*
X161134Y23719D01*
X161124Y23683D01*
X161040Y23440D01*
X161195D01*
X161092Y23136D01*
X160940D01*
X160855Y22893D01*
Y22889D01*
X160849Y22880D01*
X160842Y22864D01*
X160833Y22841D01*
X160820Y22818D01*
X160803Y22789D01*
X160784Y22760D01*
X160761Y22731D01*
X160732Y22702D01*
X160700Y22672D01*
X160664Y22643D01*
X160625Y22621D01*
X160583Y22598D01*
X160535Y22582D01*
X160479Y22572D01*
X160421Y22569D01*
X158454D01*
X158451Y22562D01*
X158438Y22549D01*
X158422Y22527D01*
X158396Y22498D01*
X158364Y22462D01*
X158328Y22420D01*
X158286Y22374D01*
X158241Y22326D01*
X160347D01*
X160360Y22322D01*
X160395Y22319D01*
X160437Y22313D01*
X160483Y22297D01*
X160525Y22277D01*
X160560Y22251D01*
X160573Y22232D01*
X160583Y22212D01*
Y22209D01*
X160586Y22199D01*
X160590Y22180D01*
Y22157D01*
X160586Y22125D01*
X160583Y22083D01*
X160570Y22034D01*
X160554Y21979D01*
X160415Y21564D01*
Y21561D01*
X160408Y21551D01*
X160402Y21538D01*
X160395Y21519D01*
X160382Y21496D01*
X160366Y21470D01*
X160347Y21444D01*
X160324Y21415D01*
X160295Y21386D01*
X160262Y21360D01*
X160227Y21334D01*
X160188Y21312D01*
X160142Y21295D01*
X160094Y21279D01*
X160039Y21270D01*
X159977Y21266D01*
X157949D01*
X157933Y21270D01*
X157910D01*
X157884Y21276D01*
X157858Y21283D01*
X157829Y21289D01*
X157800Y21302D01*
X157771Y21315D01*
X157745Y21334D01*
X157722Y21357D01*
X157703Y21383D01*
X157693Y21415D01*
X157686Y21454D01*
X157690Y21496D01*
X157703Y21545D01*
X157871Y22041D01*
X157865Y22037D01*
X157852Y22034D01*
X157829Y22024D01*
X157803Y22015D01*
X157771Y22005D01*
X157738Y21995D01*
X157703Y21986D01*
X157670Y21982D01*
X157774Y22287D01*
X157777D01*
X157781Y22290D01*
X157800Y22297D01*
X157829Y22310D01*
X157871Y22335D01*
X157894Y22352D01*
X157920Y22371D01*
X157949Y22394D01*
X157981Y22420D01*
X158014Y22449D01*
X158049Y22485D01*
X158085Y22523D01*
X158124Y22569D01*
X157946D01*
X158049Y22873D01*
X158357D01*
X158555Y23136D01*
X158062D01*
X158166Y23440D01*
X158785D01*
X158995Y23719D01*
X158338D01*
X158441Y24024D01*
X160901D01*
X160930Y24020D01*
D02*
G37*
G36*
X151864Y21266D02*
X151611D01*
X152214Y23032D01*
X152467D01*
X151864Y21266D01*
D02*
G37*
G36*
X152720Y23735D02*
X152311D01*
X152237Y23508D01*
X152648D01*
X152545Y23204D01*
X152133D01*
X151472Y21266D01*
X151168D01*
X151829Y23204D01*
X151378D01*
X151482Y23508D01*
X151932D01*
X152007Y23735D01*
X151563D01*
X151660Y24020D01*
X152817D01*
X152720Y23735D01*
D02*
G37*
G36*
X156484Y23272D02*
X157781D01*
X157677Y22967D01*
X156300D01*
X156297Y22964D01*
X156290Y22954D01*
X156280Y22938D01*
X156271Y22919D01*
X156245Y22880D01*
X156232Y22857D01*
X156222Y22841D01*
X156219Y22834D01*
X156209Y22821D01*
X156199Y22799D01*
X156183Y22776D01*
X156170Y22750D01*
X156154Y22727D01*
X156144Y22711D01*
X156138Y22702D01*
X156135Y22698D01*
X156131Y22692D01*
X156125Y22682D01*
X156115Y22666D01*
X156099Y22637D01*
X156086Y22611D01*
Y22608D01*
X156083Y22601D01*
Y22591D01*
X156086Y22579D01*
X156089Y22566D01*
X156099Y22556D01*
X156115Y22549D01*
X156141Y22546D01*
X156497D01*
X156598Y22841D01*
X156902D01*
X156799Y22540D01*
X157531D01*
X157431Y22242D01*
X156698D01*
X156585Y21914D01*
X157317D01*
X157217Y21613D01*
X156484D01*
X156365Y21263D01*
X156060D01*
X156180Y21613D01*
X155347D01*
X155451Y21914D01*
X156280D01*
X156394Y22242D01*
X155908D01*
X155885Y22245D01*
X155856Y22251D01*
X155824Y22261D01*
X155791Y22274D01*
X155762Y22293D01*
X155739Y22319D01*
X155736Y22322D01*
X155733Y22332D01*
X155726Y22348D01*
X155720Y22371D01*
X155717Y22397D01*
X155713Y22429D01*
X155720Y22465D01*
X155730Y22504D01*
Y22507D01*
X155736Y22517D01*
X155746Y22540D01*
X155759Y22569D01*
X155772Y22588D01*
X155785Y22614D01*
X155798Y22640D01*
X155817Y22672D01*
X155836Y22708D01*
X155859Y22747D01*
X155885Y22792D01*
X155914Y22841D01*
X155989Y22967D01*
X155794D01*
X155898Y23272D01*
X156177D01*
X156290Y23463D01*
X156604D01*
X156484Y23272D01*
D02*
G37*
G36*
X143711Y83529D02*
X143097D01*
Y84097D01*
X143711D01*
Y83529D01*
D02*
G37*
G36*
X139738D02*
X139124D01*
Y84097D01*
X139738D01*
Y83529D01*
D02*
G37*
G36*
X157655Y83265D02*
X157705Y83256D01*
X157770Y83242D01*
X157839Y83219D01*
X157909Y83192D01*
X157983Y83150D01*
X157789Y82619D01*
X157784Y82623D01*
X157761Y82632D01*
X157733Y82651D01*
X157696Y82670D01*
X157650Y82688D01*
X157604Y82706D01*
X157553Y82716D01*
X157502Y82720D01*
X157484D01*
X157456Y82716D01*
X157428Y82711D01*
X157396Y82702D01*
X157359Y82688D01*
X157322Y82670D01*
X157285Y82646D01*
X157280Y82642D01*
X157271Y82632D01*
X157253Y82614D01*
X157234Y82586D01*
X157211Y82554D01*
X157188Y82508D01*
X157165Y82452D01*
X157146Y82388D01*
Y82378D01*
X157142Y82364D01*
X157137Y82351D01*
Y82328D01*
X157132Y82300D01*
X157128Y82263D01*
X157123Y82221D01*
X157119Y82175D01*
X157114Y82115D01*
X157109Y82055D01*
Y81981D01*
X157105Y81902D01*
X157100Y81815D01*
Y81718D01*
Y81612D01*
Y80900D01*
X156486D01*
Y83219D01*
X157054D01*
Y82891D01*
X157059Y82896D01*
X157077Y82924D01*
X157105Y82965D01*
X157142Y83016D01*
X157179Y83067D01*
X157225Y83118D01*
X157266Y83164D01*
X157313Y83196D01*
X157317Y83201D01*
X157331Y83210D01*
X157359Y83219D01*
X157391Y83233D01*
X157428Y83247D01*
X157474Y83261D01*
X157521Y83265D01*
X157576Y83270D01*
X157613D01*
X157655Y83265D01*
D02*
G37*
G36*
X141766D02*
X141817Y83261D01*
X141873Y83252D01*
X141933Y83238D01*
X141997Y83219D01*
X142062Y83196D01*
X142071Y83192D01*
X142090Y83182D01*
X142122Y83168D01*
X142159Y83145D01*
X142201Y83118D01*
X142242Y83085D01*
X142284Y83048D01*
X142321Y83007D01*
X142325Y83002D01*
X142335Y82988D01*
X142349Y82965D01*
X142367Y82933D01*
X142390Y82896D01*
X142409Y82850D01*
X142427Y82803D01*
X142441Y82748D01*
Y82743D01*
X142446Y82720D01*
X142455Y82688D01*
X142459Y82642D01*
X142469Y82586D01*
X142473Y82512D01*
X142478Y82434D01*
Y82337D01*
Y80900D01*
X141863D01*
Y82078D01*
Y82083D01*
Y82097D01*
Y82115D01*
Y82138D01*
Y82170D01*
Y82203D01*
X141859Y82281D01*
X141854Y82360D01*
X141845Y82443D01*
X141836Y82512D01*
X141831Y82540D01*
X141822Y82563D01*
Y82568D01*
X141813Y82582D01*
X141803Y82600D01*
X141789Y82628D01*
X141748Y82683D01*
X141725Y82711D01*
X141692Y82734D01*
X141688Y82739D01*
X141679Y82743D01*
X141660Y82753D01*
X141632Y82766D01*
X141600Y82780D01*
X141568Y82790D01*
X141526Y82794D01*
X141480Y82799D01*
X141452D01*
X141425Y82794D01*
X141387Y82790D01*
X141341Y82776D01*
X141295Y82762D01*
X141244Y82739D01*
X141193Y82711D01*
X141189Y82706D01*
X141175Y82697D01*
X141152Y82674D01*
X141124Y82651D01*
X141096Y82614D01*
X141069Y82577D01*
X141041Y82526D01*
X141023Y82475D01*
Y82471D01*
X141013Y82448D01*
X141009Y82411D01*
X140999Y82355D01*
X140995Y82323D01*
X140990Y82281D01*
X140986Y82240D01*
Y82189D01*
X140981Y82138D01*
X140976Y82078D01*
Y82013D01*
Y81944D01*
Y80900D01*
X140362D01*
Y83219D01*
X140930D01*
Y82877D01*
X140935Y82882D01*
X140944Y82896D01*
X140963Y82914D01*
X140986Y82937D01*
X141013Y82970D01*
X141050Y83002D01*
X141092Y83039D01*
X141138Y83076D01*
X141189Y83108D01*
X141249Y83145D01*
X141309Y83178D01*
X141378Y83210D01*
X141452Y83233D01*
X141526Y83252D01*
X141609Y83265D01*
X141692Y83270D01*
X141725D01*
X141766Y83265D01*
D02*
G37*
G36*
X138477Y80900D02*
X137881D01*
X137876Y83413D01*
X137248Y80900D01*
X136624D01*
X135996Y83413D01*
Y80900D01*
X135400D01*
Y84097D01*
X136366D01*
X136939Y81912D01*
X137507Y84097D01*
X138477D01*
Y80900D01*
D02*
G37*
G36*
X152725D02*
X152171D01*
X151237Y83219D01*
X151880D01*
X152318Y82032D01*
X152443Y81639D01*
X152448Y81644D01*
X152452Y81662D01*
X152462Y81690D01*
X152471Y81718D01*
X152494Y81787D01*
X152503Y81815D01*
X152508Y81838D01*
Y81842D01*
X152513Y81856D01*
X152517Y81875D01*
X152526Y81898D01*
X152545Y81963D01*
X152573Y82032D01*
X153016Y83219D01*
X153644D01*
X152725Y80900D01*
D02*
G37*
G36*
X147075Y84092D02*
X147126D01*
X147176Y84088D01*
X147236D01*
X147357Y84074D01*
X147481Y84060D01*
X147597Y84037D01*
X147648Y84023D01*
X147694Y84009D01*
X147698D01*
X147703Y84005D01*
X147731Y83991D01*
X147772Y83968D01*
X147828Y83940D01*
X147888Y83894D01*
X147948Y83843D01*
X148008Y83778D01*
X148063Y83700D01*
Y83695D01*
X148068Y83691D01*
X148077Y83677D01*
X148087Y83663D01*
X148110Y83617D01*
X148137Y83556D01*
X148160Y83483D01*
X148184Y83399D01*
X148202Y83302D01*
X148207Y83201D01*
Y83196D01*
Y83187D01*
Y83164D01*
X148202Y83141D01*
Y83108D01*
X148197Y83076D01*
X148179Y82993D01*
X148156Y82896D01*
X148119Y82799D01*
X148063Y82697D01*
X148031Y82651D01*
X147994Y82605D01*
X147989Y82600D01*
X147985Y82595D01*
X147971Y82582D01*
X147952Y82568D01*
X147934Y82549D01*
X147906Y82526D01*
X147874Y82503D01*
X147837Y82480D01*
X147795Y82452D01*
X147745Y82429D01*
X147694Y82406D01*
X147638Y82383D01*
X147574Y82360D01*
X147509Y82341D01*
X147440Y82323D01*
X147361Y82309D01*
X147366D01*
X147370Y82305D01*
X147398Y82286D01*
X147435Y82263D01*
X147481Y82231D01*
X147537Y82189D01*
X147592Y82147D01*
X147652Y82097D01*
X147703Y82041D01*
X147708Y82037D01*
X147731Y82013D01*
X147758Y81976D01*
X147800Y81921D01*
X147855Y81852D01*
X147883Y81805D01*
X147916Y81759D01*
X147952Y81709D01*
X147989Y81653D01*
X148031Y81588D01*
X148073Y81524D01*
X148465Y80900D01*
X147689D01*
X147227Y81593D01*
X147223Y81598D01*
X147218Y81612D01*
X147204Y81630D01*
X147186Y81653D01*
X147167Y81681D01*
X147144Y81718D01*
X147093Y81792D01*
X147033Y81875D01*
X146978Y81949D01*
X146927Y82018D01*
X146904Y82041D01*
X146885Y82064D01*
X146881Y82069D01*
X146871Y82078D01*
X146853Y82097D01*
X146830Y82120D01*
X146798Y82138D01*
X146765Y82161D01*
X146728Y82180D01*
X146691Y82198D01*
X146687D01*
X146673Y82203D01*
X146650Y82212D01*
X146613Y82217D01*
X146566Y82226D01*
X146511Y82231D01*
X146446Y82235D01*
X146239D01*
Y80900D01*
X145592D01*
Y84097D01*
X147033D01*
X147075Y84092D01*
D02*
G37*
G36*
X143711Y80900D02*
X143097D01*
Y83219D01*
X143711D01*
Y80900D01*
D02*
G37*
G36*
X139738D02*
X139124D01*
Y83219D01*
X139738D01*
Y80900D01*
D02*
G37*
G36*
X154993Y83265D02*
X155035Y83261D01*
X155086Y83252D01*
X155141Y83242D01*
X155201Y83228D01*
X155266Y83210D01*
X155331Y83187D01*
X155400Y83159D01*
X155469Y83122D01*
X155534Y83085D01*
X155599Y83039D01*
X155663Y82984D01*
X155719Y82924D01*
X155723Y82919D01*
X155733Y82910D01*
X155746Y82887D01*
X155765Y82859D01*
X155788Y82822D01*
X155811Y82780D01*
X155839Y82725D01*
X155867Y82665D01*
X155894Y82595D01*
X155922Y82517D01*
X155945Y82434D01*
X155968Y82337D01*
X155987Y82235D01*
X156001Y82124D01*
X156010Y82009D01*
Y81879D01*
X154476D01*
Y81875D01*
Y81866D01*
Y81852D01*
X154481Y81833D01*
X154485Y81787D01*
X154495Y81722D01*
X154513Y81658D01*
X154541Y81584D01*
X154573Y81515D01*
X154619Y81454D01*
X154624Y81450D01*
X154647Y81431D01*
X154675Y81408D01*
X154716Y81380D01*
X154767Y81353D01*
X154832Y81330D01*
X154901Y81311D01*
X154975Y81307D01*
X154998D01*
X155026Y81311D01*
X155058Y81316D01*
X155095Y81325D01*
X155137Y81339D01*
X155178Y81357D01*
X155215Y81385D01*
X155220Y81390D01*
X155234Y81399D01*
X155252Y81417D01*
X155271Y81445D01*
X155298Y81482D01*
X155321Y81524D01*
X155344Y81579D01*
X155368Y81639D01*
X155977Y81538D01*
Y81533D01*
X155973Y81524D01*
X155964Y81505D01*
X155954Y81482D01*
X155940Y81454D01*
X155927Y81422D01*
X155885Y81348D01*
X155834Y81265D01*
X155770Y81177D01*
X155691Y81099D01*
X155603Y81025D01*
X155599D01*
X155594Y81015D01*
X155576Y81011D01*
X155557Y80997D01*
X155534Y80983D01*
X155502Y80969D01*
X155469Y80955D01*
X155428Y80937D01*
X155335Y80905D01*
X155229Y80877D01*
X155104Y80858D01*
X154970Y80849D01*
X154943D01*
X154915Y80854D01*
X154873D01*
X154823Y80863D01*
X154762Y80872D01*
X154698Y80882D01*
X154633Y80900D01*
X154559Y80919D01*
X154485Y80946D01*
X154411Y80979D01*
X154337Y81015D01*
X154263Y81062D01*
X154194Y81112D01*
X154134Y81173D01*
X154074Y81242D01*
X154069Y81247D01*
X154065Y81256D01*
X154056Y81274D01*
X154037Y81297D01*
X154023Y81330D01*
X154005Y81367D01*
X153982Y81408D01*
X153963Y81459D01*
X153940Y81515D01*
X153922Y81574D01*
X153899Y81639D01*
X153885Y81713D01*
X153871Y81787D01*
X153857Y81866D01*
X153852Y81953D01*
X153848Y82041D01*
Y82046D01*
Y82064D01*
Y82097D01*
X153852Y82138D01*
X153857Y82184D01*
X153861Y82240D01*
X153871Y82300D01*
X153885Y82369D01*
X153922Y82512D01*
X153945Y82586D01*
X153972Y82665D01*
X154009Y82739D01*
X154051Y82808D01*
X154097Y82877D01*
X154148Y82942D01*
X154153Y82947D01*
X154162Y82956D01*
X154180Y82974D01*
X154203Y82993D01*
X154231Y83016D01*
X154268Y83044D01*
X154310Y83076D01*
X154356Y83108D01*
X154407Y83136D01*
X154467Y83168D01*
X154527Y83196D01*
X154596Y83219D01*
X154665Y83238D01*
X154744Y83256D01*
X154823Y83265D01*
X154906Y83270D01*
X154956D01*
X154993Y83265D01*
D02*
G37*
G36*
X149948D02*
X149995Y83261D01*
X150045Y83252D01*
X150106Y83242D01*
X150165Y83228D01*
X150235Y83210D01*
X150304Y83187D01*
X150373Y83159D01*
X150447Y83127D01*
X150521Y83085D01*
X150591Y83039D01*
X150660Y82988D01*
X150724Y82928D01*
X150729Y82924D01*
X150738Y82914D01*
X150757Y82891D01*
X150775Y82868D01*
X150803Y82831D01*
X150831Y82794D01*
X150863Y82743D01*
X150896Y82693D01*
X150923Y82632D01*
X150955Y82568D01*
X150983Y82494D01*
X151011Y82420D01*
X151030Y82337D01*
X151048Y82254D01*
X151057Y82161D01*
X151062Y82064D01*
Y82060D01*
Y82041D01*
Y82013D01*
X151057Y81976D01*
X151053Y81930D01*
X151043Y81879D01*
X151034Y81819D01*
X151020Y81759D01*
X151002Y81690D01*
X150979Y81621D01*
X150951Y81547D01*
X150919Y81473D01*
X150877Y81399D01*
X150831Y81330D01*
X150780Y81260D01*
X150720Y81191D01*
X150715Y81186D01*
X150706Y81177D01*
X150688Y81159D01*
X150660Y81136D01*
X150628Y81112D01*
X150586Y81085D01*
X150540Y81053D01*
X150489Y81020D01*
X150429Y80988D01*
X150364Y80955D01*
X150295Y80928D01*
X150216Y80905D01*
X150138Y80882D01*
X150050Y80863D01*
X149962Y80854D01*
X149865Y80849D01*
X149833D01*
X149810Y80854D01*
X149782D01*
X149750Y80858D01*
X149671Y80868D01*
X149574Y80886D01*
X149472Y80909D01*
X149366Y80946D01*
X149255Y80992D01*
X149251D01*
X149241Y80997D01*
X149228Y81006D01*
X149209Y81020D01*
X149158Y81053D01*
X149094Y81099D01*
X149024Y81159D01*
X148951Y81233D01*
X148881Y81316D01*
X148817Y81413D01*
Y81417D01*
X148812Y81427D01*
X148803Y81441D01*
X148793Y81464D01*
X148784Y81491D01*
X148770Y81524D01*
X148756Y81561D01*
X148743Y81602D01*
X148729Y81648D01*
X148715Y81699D01*
X148692Y81815D01*
X148673Y81949D01*
X148669Y82092D01*
Y82097D01*
Y82106D01*
Y82124D01*
X148673Y82143D01*
Y82170D01*
X148678Y82203D01*
X148687Y82281D01*
X148706Y82369D01*
X148733Y82466D01*
X148766Y82572D01*
X148817Y82679D01*
Y82683D01*
X148826Y82693D01*
X148830Y82706D01*
X148844Y82725D01*
X148881Y82776D01*
X148927Y82840D01*
X148987Y82910D01*
X149061Y82984D01*
X149144Y83053D01*
X149241Y83118D01*
X149246D01*
X149255Y83122D01*
X149269Y83131D01*
X149292Y83141D01*
X149315Y83155D01*
X149348Y83164D01*
X149385Y83178D01*
X149422Y83196D01*
X149514Y83224D01*
X149620Y83247D01*
X149736Y83265D01*
X149861Y83270D01*
X149911D01*
X149948Y83265D01*
D02*
G37*
G36*
X161379Y90743D02*
Y85144D01*
X135400D01*
Y90743D01*
X161379D01*
D02*
G37*
%LPC*%
G36*
X162546Y19868D02*
X161950D01*
X161928Y19864D01*
X161894Y19861D01*
X161854Y19850D01*
X161813Y19831D01*
X161772Y19805D01*
X161739Y19768D01*
X161713Y19720D01*
X161498Y19091D01*
Y19087D01*
X161495Y19072D01*
X161487Y19054D01*
X161484Y19032D01*
X161480Y18984D01*
Y18965D01*
X161487Y18947D01*
X161491Y18943D01*
X161495Y18939D01*
X161506Y18932D01*
X161521Y18921D01*
X161539Y18910D01*
X161565Y18902D01*
X161595Y18899D01*
X161628Y18895D01*
X162179D01*
X162201Y18899D01*
X162231Y18902D01*
X162290Y18917D01*
X162320Y18928D01*
X162346Y18943D01*
X162349Y18947D01*
X162353Y18950D01*
X162364Y18961D01*
X162375Y18976D01*
X162390Y18991D01*
X162401Y19013D01*
X162416Y19043D01*
X162427Y19072D01*
X162638Y19690D01*
Y19694D01*
X162642Y19698D01*
X162645Y19720D01*
X162649Y19746D01*
Y19779D01*
X162642Y19813D01*
X162623Y19842D01*
X162612Y19853D01*
X162594Y19861D01*
X162572Y19864D01*
X162546Y19868D01*
D02*
G37*
G36*
X152922Y19864D02*
X152300D01*
X152286Y19861D01*
X152267D01*
X152223Y19846D01*
X152200Y19838D01*
X152178Y19824D01*
X152174Y19820D01*
X152167Y19816D01*
X152145Y19794D01*
X152115Y19757D01*
X152104Y19735D01*
X152093Y19713D01*
X151486Y17922D01*
Y17918D01*
X151483Y17914D01*
X151479Y17892D01*
X151475Y17859D01*
Y17826D01*
X151483Y17789D01*
X151494Y17770D01*
X151508Y17755D01*
X151523Y17744D01*
X151546Y17733D01*
X151571Y17729D01*
X151605Y17726D01*
X152178D01*
X152200Y17729D01*
X152226Y17733D01*
X152282Y17744D01*
X152311Y17755D01*
X152334Y17770D01*
X152337Y17774D01*
X152345Y17777D01*
X152352Y17789D01*
X152367Y17807D01*
X152382Y17826D01*
X152397Y17852D01*
X152411Y17885D01*
X152426Y17922D01*
X153022Y19683D01*
Y19687D01*
X153025Y19690D01*
X153029Y19713D01*
X153033Y19742D01*
Y19775D01*
X153025Y19809D01*
X153007Y19835D01*
X152992Y19850D01*
X152974Y19857D01*
X152952Y19861D01*
X152922Y19864D01*
D02*
G37*
G36*
X149074D02*
X148452D01*
X148438Y19861D01*
X148419D01*
X148375Y19846D01*
X148352Y19838D01*
X148330Y19824D01*
X148327Y19820D01*
X148319Y19816D01*
X148297Y19794D01*
X148267Y19757D01*
X148256Y19735D01*
X148245Y19713D01*
X147638Y17922D01*
Y17918D01*
X147635Y17914D01*
X147631Y17892D01*
X147627Y17859D01*
Y17826D01*
X147635Y17789D01*
X147646Y17770D01*
X147661Y17755D01*
X147675Y17744D01*
X147697Y17733D01*
X147723Y17729D01*
X147757Y17726D01*
X148330D01*
X148352Y17729D01*
X148378Y17733D01*
X148434Y17744D01*
X148463Y17755D01*
X148486Y17770D01*
X148489Y17774D01*
X148497Y17777D01*
X148504Y17789D01*
X148519Y17807D01*
X148534Y17826D01*
X148548Y17852D01*
X148563Y17885D01*
X148578Y17922D01*
X149174Y19683D01*
Y19687D01*
X149178Y19690D01*
X149181Y19713D01*
X149185Y19742D01*
Y19775D01*
X149178Y19809D01*
X149159Y19835D01*
X149144Y19850D01*
X149126Y19857D01*
X149103Y19861D01*
X149074Y19864D01*
D02*
G37*
G36*
X153692Y23437D02*
X153206D01*
X153176Y23392D01*
X153044Y23009D01*
X153546D01*
X153692Y23437D01*
D02*
G37*
G36*
X153442Y22705D02*
X152940D01*
X152804Y22300D01*
X153306D01*
X153442Y22705D01*
D02*
G37*
G36*
X153202Y21995D02*
X152700D01*
X152593Y21678D01*
Y21675D01*
X152590Y21668D01*
X152587Y21655D01*
X152584Y21642D01*
X152577Y21613D01*
Y21603D01*
Y21594D01*
X152580Y21587D01*
X152587Y21584D01*
X152593Y21577D01*
X152606Y21571D01*
X152626Y21568D01*
X152648Y21561D01*
X153053D01*
X153202Y21995D01*
D02*
G37*
G36*
X146891Y22851D02*
X146230D01*
X146204Y22847D01*
X146152Y22841D01*
X146129Y22834D01*
X146113Y22828D01*
X146110Y22825D01*
X146100Y22818D01*
X146087Y22808D01*
X146071Y22796D01*
X146052Y22779D01*
X146036Y22760D01*
X146019Y22734D01*
X146006Y22708D01*
X145754Y21960D01*
Y21956D01*
X145750Y21953D01*
X145747Y21934D01*
X145744Y21905D01*
Y21872D01*
X145750Y21840D01*
X145757Y21827D01*
X145770Y21811D01*
X145783Y21801D01*
X145802Y21791D01*
X145825Y21788D01*
X145851Y21785D01*
X146518D01*
X146538Y21788D01*
X146560Y21791D01*
X146609Y21801D01*
X146632Y21811D01*
X146654Y21824D01*
X146658Y21827D01*
X146664Y21830D01*
X146670Y21840D01*
X146684Y21856D01*
X146696Y21872D01*
X146709Y21895D01*
X146722Y21921D01*
X146735Y21953D01*
X146985Y22689D01*
Y22692D01*
X146988Y22695D01*
X146991Y22715D01*
X146994Y22740D01*
Y22770D01*
X146985Y22799D01*
X146978Y22812D01*
X146969Y22825D01*
X146956Y22834D01*
X146936Y22844D01*
X146917Y22847D01*
X146891Y22851D01*
D02*
G37*
G36*
X155548Y23748D02*
X155295D01*
X155279Y23745D01*
X155256Y23738D01*
X155231Y23725D01*
X155224Y23722D01*
X155211Y23706D01*
X155192Y23687D01*
X155179Y23657D01*
X154916Y22893D01*
X155347D01*
X155610Y23657D01*
Y23661D01*
X155613Y23670D01*
Y23687D01*
Y23703D01*
X155606Y23719D01*
X155597Y23735D01*
X155577Y23745D01*
X155548Y23748D01*
D02*
G37*
G36*
X155244Y22588D02*
X154813D01*
X154531Y21752D01*
Y21749D01*
X154527Y21736D01*
X154524Y21720D01*
Y21700D01*
X154531Y21678D01*
X154547Y21662D01*
X154570Y21649D01*
X154586Y21645D01*
X154842D01*
X154855Y21649D01*
X154884Y21655D01*
X154907Y21665D01*
X154913Y21671D01*
X154926Y21684D01*
X154942Y21710D01*
X154958Y21743D01*
X155244Y22588D01*
D02*
G37*
G36*
X160722Y23719D02*
X159326D01*
X159115Y23440D01*
X160739D01*
X160797Y23612D01*
Y23615D01*
X160800Y23622D01*
X160803Y23644D01*
X160807Y23670D01*
X160803Y23683D01*
X160797Y23693D01*
X160794Y23696D01*
X160787Y23703D01*
X160777Y23706D01*
X160765Y23712D01*
X160745Y23716D01*
X160722Y23719D01*
D02*
G37*
G36*
X160635Y23136D02*
X158882D01*
X158688Y22873D01*
X160437D01*
X160453Y22877D01*
X160486Y22880D01*
X160502Y22883D01*
X160515Y22889D01*
X160518D01*
X160521Y22896D01*
X160531Y22903D01*
X160541Y22912D01*
X160551Y22925D01*
X160564Y22941D01*
X160573Y22961D01*
X160583Y22987D01*
X160635Y23136D01*
D02*
G37*
G36*
X160181Y22024D02*
X160159D01*
X160100Y22021D01*
X158257D01*
X158237Y22018D01*
X158215Y22012D01*
X158192Y21998D01*
X158169Y21982D01*
X158150Y21960D01*
X158137Y21930D01*
X158046Y21668D01*
Y21665D01*
X158043Y21652D01*
Y21639D01*
X158046Y21619D01*
X158053Y21603D01*
X158072Y21587D01*
X158098Y21574D01*
X158114Y21571D01*
X159945D01*
X159968Y21574D01*
X159993D01*
X160023Y21577D01*
X160052Y21584D01*
X160074Y21590D01*
X160094Y21600D01*
X160097D01*
X160100Y21607D01*
X160107Y21613D01*
X160117Y21623D01*
X160126Y21636D01*
X160136Y21652D01*
X160146Y21675D01*
X160155Y21700D01*
X160217Y21882D01*
Y21885D01*
X160220Y21895D01*
X160223Y21908D01*
X160230Y21924D01*
X160236Y21956D01*
Y21973D01*
X160233Y21986D01*
Y21989D01*
X160230Y21992D01*
X160220Y22005D01*
X160211Y22012D01*
X160197Y22018D01*
X160181Y22024D01*
D02*
G37*
G36*
X146978Y83556D02*
X146239D01*
Y82743D01*
X146867D01*
X146959Y82748D01*
X147056Y82753D01*
X147153Y82757D01*
X147195Y82762D01*
X147232Y82766D01*
X147269Y82776D01*
X147292Y82780D01*
X147297D01*
X147310Y82790D01*
X147334Y82799D01*
X147357Y82813D01*
X147417Y82854D01*
X147444Y82882D01*
X147472Y82914D01*
X147477Y82919D01*
X147481Y82933D01*
X147495Y82951D01*
X147509Y82979D01*
X147518Y83016D01*
X147532Y83057D01*
X147537Y83104D01*
X147541Y83155D01*
Y83164D01*
Y83182D01*
X147537Y83210D01*
X147532Y83247D01*
X147518Y83289D01*
X147504Y83330D01*
X147481Y83376D01*
X147454Y83413D01*
X147449Y83418D01*
X147440Y83432D01*
X147417Y83446D01*
X147389Y83469D01*
X147357Y83492D01*
X147315Y83510D01*
X147264Y83529D01*
X147209Y83543D01*
X147204D01*
X147190Y83547D01*
X147162D01*
X147121Y83552D01*
X147019D01*
X146978Y83556D01*
D02*
G37*
G36*
X154943Y82799D02*
X154910D01*
X154873Y82790D01*
X154827Y82780D01*
X154776Y82762D01*
X154721Y82739D01*
X154665Y82702D01*
X154615Y82651D01*
X154610Y82646D01*
X154596Y82623D01*
X154573Y82591D01*
X154550Y82545D01*
X154522Y82489D01*
X154504Y82420D01*
X154490Y82341D01*
X154485Y82254D01*
X155400D01*
Y82258D01*
Y82267D01*
Y82277D01*
X155395Y82295D01*
X155391Y82346D01*
X155382Y82402D01*
X155363Y82466D01*
X155340Y82535D01*
X155303Y82600D01*
X155261Y82656D01*
X155257Y82660D01*
X155238Y82679D01*
X155211Y82702D01*
X155174Y82730D01*
X155127Y82753D01*
X155072Y82776D01*
X155012Y82794D01*
X154943Y82799D01*
D02*
G37*
G36*
X149865Y82771D02*
X149842D01*
X149824Y82766D01*
X149782Y82762D01*
X149727Y82748D01*
X149662Y82725D01*
X149593Y82693D01*
X149523Y82646D01*
X149459Y82586D01*
X149454Y82577D01*
X149436Y82554D01*
X149408Y82508D01*
X149380Y82452D01*
X149348Y82378D01*
X149325Y82286D01*
X149306Y82180D01*
X149297Y82060D01*
Y82055D01*
Y82046D01*
Y82027D01*
X149302Y82004D01*
Y81972D01*
X149306Y81940D01*
X149315Y81866D01*
X149338Y81778D01*
X149366Y81690D01*
X149403Y81602D01*
X149459Y81528D01*
X149468Y81519D01*
X149486Y81501D01*
X149523Y81473D01*
X149574Y81441D01*
X149630Y81404D01*
X149699Y81376D01*
X149777Y81357D01*
X149865Y81348D01*
X149888D01*
X149907Y81353D01*
X149948Y81357D01*
X150004Y81371D01*
X150068Y81394D01*
X150138Y81422D01*
X150203Y81468D01*
X150267Y81528D01*
X150276Y81538D01*
X150295Y81561D01*
X150318Y81607D01*
X150350Y81662D01*
X150383Y81741D01*
X150406Y81829D01*
X150424Y81940D01*
X150434Y82060D01*
Y82064D01*
Y82073D01*
Y82092D01*
X150429Y82115D01*
Y82143D01*
X150424Y82180D01*
X150415Y82254D01*
X150392Y82337D01*
X150364Y82425D01*
X150323Y82512D01*
X150267Y82586D01*
X150258Y82595D01*
X150239Y82614D01*
X150203Y82646D01*
X150156Y82679D01*
X150096Y82711D01*
X150031Y82743D01*
X149953Y82762D01*
X149865Y82771D01*
D02*
G37*
G36*
X140324Y89722D02*
X139647D01*
Y89096D01*
X140324D01*
Y89722D01*
D02*
G37*
G36*
X160379Y89743D02*
X159829D01*
X159778Y89626D01*
X159712Y89519D01*
X159641Y89417D01*
X159570Y89335D01*
X159509Y89269D01*
X159453Y89218D01*
X159432Y89198D01*
X159417Y89183D01*
X159407Y89178D01*
X159402Y89173D01*
X159290Y89091D01*
X159183Y89020D01*
X159086Y88964D01*
X159000Y88923D01*
X158928Y88893D01*
X158877Y88867D01*
X158857Y88862D01*
X158842Y88857D01*
X158837Y88852D01*
X158832D01*
Y88867D01*
Y86200D01*
Y88241D01*
X159015Y88312D01*
X159178Y88389D01*
X159254Y88429D01*
X159325Y88475D01*
X159391Y88516D01*
X159453Y88557D01*
X159509Y88597D01*
X159560Y88633D01*
X159600Y88664D01*
X159636Y88694D01*
X159666Y88720D01*
X159687Y88735D01*
X159697Y88745D01*
X159702Y88750D01*
Y86200D01*
X158832D01*
X160379D01*
Y89743D01*
D02*
G37*
G36*
X141858Y88811D02*
X140839D01*
D01*
X141858D01*
D02*
G37*
G36*
X139647Y89096D02*
D01*
Y88755D01*
Y89096D01*
D02*
G37*
G36*
X156475Y88811D02*
X154144D01*
X155610D01*
X155518Y88806D01*
X155426Y88791D01*
X155345Y88771D01*
X155263Y88745D01*
X155187Y88709D01*
X155121Y88674D01*
X155055Y88633D01*
X154999Y88597D01*
X154948Y88557D01*
X154902Y88516D01*
X154861Y88480D01*
X154831Y88445D01*
X154805Y88419D01*
X154785Y88399D01*
X154775Y88384D01*
X154770Y88379D01*
Y88755D01*
X154144D01*
Y86200D01*
X154821D01*
Y87350D01*
Y87427D01*
Y87498D01*
X154826Y87564D01*
X154831Y87620D01*
Y87676D01*
X154836Y87722D01*
X154841Y87768D01*
X154846Y87803D01*
X154856Y87864D01*
X154861Y87905D01*
X154872Y87931D01*
Y87936D01*
X154892Y87992D01*
X154922Y88048D01*
X154953Y88088D01*
X154984Y88129D01*
X155014Y88155D01*
X155040Y88180D01*
X155055Y88190D01*
X155060Y88195D01*
X155116Y88226D01*
X155172Y88251D01*
X155223Y88266D01*
X155274Y88282D01*
X155314Y88287D01*
X155345Y88292D01*
X155376D01*
X155426Y88287D01*
X155472Y88282D01*
X155508Y88272D01*
X155543Y88256D01*
X155574Y88241D01*
X155594Y88231D01*
X155605Y88226D01*
X155610Y88221D01*
X155645Y88195D01*
X155671Y88165D01*
X155717Y88104D01*
X155732Y88073D01*
X155742Y88053D01*
X155752Y88038D01*
Y88032D01*
X155762Y88007D01*
X155768Y87976D01*
X155778Y87900D01*
X155788Y87808D01*
X155793Y87722D01*
X155798Y87635D01*
Y87600D01*
Y87564D01*
Y87539D01*
Y87518D01*
Y87503D01*
Y87498D01*
Y86200D01*
X156475D01*
Y87890D01*
X156470Y87976D01*
X156465Y88058D01*
X156455Y88119D01*
X156449Y88170D01*
X156439Y88205D01*
X156434Y88231D01*
Y88236D01*
X156419Y88297D01*
X156399Y88348D01*
X156378Y88399D01*
X156353Y88440D01*
X156332Y88475D01*
X156317Y88501D01*
X156307Y88516D01*
X156302Y88521D01*
X156261Y88567D01*
X156215Y88608D01*
X156170Y88643D01*
X156124Y88674D01*
X156083Y88699D01*
X156047Y88714D01*
X156027Y88725D01*
X156017Y88730D01*
X155946Y88755D01*
X155874Y88775D01*
X155808Y88791D01*
X155747Y88801D01*
X155691Y88806D01*
X155645Y88811D01*
X156475D01*
D02*
G37*
G36*
X146081D02*
X143750D01*
X145216D01*
X145124Y88806D01*
X145033Y88791D01*
X144951Y88771D01*
X144870Y88745D01*
X144793Y88709D01*
X144727Y88674D01*
X144661Y88633D01*
X144605Y88597D01*
X144554Y88557D01*
X144508Y88516D01*
X144468Y88480D01*
X144437Y88445D01*
X144412Y88419D01*
X144391Y88399D01*
X144381Y88384D01*
X144376Y88379D01*
Y88755D01*
X143750D01*
Y86200D01*
X144427D01*
Y87350D01*
Y87427D01*
Y87498D01*
X144432Y87564D01*
X144437Y87620D01*
Y87676D01*
X144442Y87722D01*
X144447Y87768D01*
X144452Y87803D01*
X144463Y87864D01*
X144468Y87905D01*
X144478Y87931D01*
Y87936D01*
X144498Y87992D01*
X144529Y88048D01*
X144559Y88088D01*
X144590Y88129D01*
X144620Y88155D01*
X144646Y88180D01*
X144661Y88190D01*
X144666Y88195D01*
X144722Y88226D01*
X144778Y88251D01*
X144829Y88266D01*
X144880Y88282D01*
X144921Y88287D01*
X144951Y88292D01*
X144982D01*
X145033Y88287D01*
X145078Y88282D01*
X145114Y88272D01*
X145150Y88256D01*
X145180Y88241D01*
X145201Y88231D01*
X145211Y88226D01*
X145216Y88221D01*
X145252Y88195D01*
X145277Y88165D01*
X145323Y88104D01*
X145338Y88073D01*
X145348Y88053D01*
X145358Y88038D01*
Y88032D01*
X145369Y88007D01*
X145374Y87976D01*
X145384Y87900D01*
X145394Y87808D01*
X145399Y87722D01*
X145404Y87635D01*
Y87600D01*
Y87564D01*
Y87539D01*
Y87518D01*
Y87503D01*
Y87498D01*
Y86200D01*
X146081D01*
Y87890D01*
X146076Y87976D01*
X146071Y88058D01*
X146061Y88119D01*
X146056Y88170D01*
X146046Y88205D01*
X146040Y88231D01*
Y88236D01*
X146025Y88297D01*
X146005Y88348D01*
X145984Y88399D01*
X145959Y88440D01*
X145939Y88475D01*
X145923Y88501D01*
X145913Y88516D01*
X145908Y88521D01*
X145867Y88567D01*
X145822Y88608D01*
X145776Y88643D01*
X145730Y88674D01*
X145689Y88699D01*
X145654Y88714D01*
X145633Y88725D01*
X145623Y88730D01*
X145552Y88755D01*
X145481Y88775D01*
X145414Y88791D01*
X145353Y88801D01*
X145297Y88806D01*
X145252Y88811D01*
X146081D01*
D02*
G37*
G36*
X151049Y89722D02*
X149919D01*
X150331D01*
X149792Y87259D01*
X149181Y89722D01*
X148326D01*
X147685Y87299D01*
X147155Y89722D01*
X147960D01*
X146427D01*
X147262Y86200D01*
X148381D01*
X148036D01*
X148738Y88832D01*
X149430Y86200D01*
X150199D01*
X151049Y89722D01*
D02*
G37*
G36*
X158409Y87819D02*
X157081D01*
Y87142D01*
X158409D01*
Y87819D01*
D02*
G37*
G36*
X143236Y88811D02*
X141923D01*
X141841Y88801D01*
X141760Y88796D01*
X141689Y88781D01*
X141617Y88771D01*
X141556Y88755D01*
X141500Y88735D01*
X141449Y88720D01*
X141409Y88704D01*
X141368Y88684D01*
X141337Y88669D01*
X141307Y88658D01*
X141286Y88643D01*
X141271Y88638D01*
X141266Y88628D01*
X141261D01*
X141174Y88552D01*
X141103Y88465D01*
X141042Y88373D01*
X140991Y88287D01*
X140955Y88205D01*
X140940Y88170D01*
X140930Y88139D01*
X140920Y88114D01*
X140915Y88094D01*
X140910Y88083D01*
Y88078D01*
X141516Y87966D01*
X141541Y88027D01*
X141566Y88078D01*
X141592Y88124D01*
X141622Y88160D01*
X141643Y88185D01*
X141663Y88200D01*
X141673Y88211D01*
X141678Y88216D01*
X141719Y88241D01*
X141765Y88261D01*
X141816Y88272D01*
X141862Y88282D01*
X141902Y88287D01*
X141933Y88292D01*
X141963D01*
X142055Y88287D01*
X142131Y88277D01*
X142192Y88266D01*
X142243Y88251D01*
X142279Y88231D01*
X142304Y88221D01*
X142320Y88211D01*
X142325Y88205D01*
X142360Y88170D01*
X142386Y88129D01*
X142401Y88083D01*
X142416Y88038D01*
X142421Y87992D01*
X142427Y87956D01*
Y87936D01*
Y87925D01*
Y87859D01*
X142391Y87844D01*
X142345Y87829D01*
X142248Y87798D01*
X142136Y87773D01*
X142030Y87747D01*
X141928Y87722D01*
X141882Y87712D01*
X141841Y87707D01*
X141811Y87701D01*
X141785Y87696D01*
X141770Y87691D01*
X141765D01*
X141643Y87666D01*
X141531Y87641D01*
X141439Y87615D01*
X141363Y87590D01*
X141302Y87564D01*
X141261Y87549D01*
X141235Y87539D01*
X141225Y87534D01*
X141159Y87498D01*
X141103Y87457D01*
X141052Y87411D01*
X141017Y87371D01*
X140981Y87335D01*
X140961Y87305D01*
X140945Y87284D01*
X140940Y87274D01*
X140905Y87208D01*
X140879Y87142D01*
X140864Y87081D01*
X140854Y87019D01*
X140844Y86969D01*
X140839Y86928D01*
Y86948D01*
Y86892D01*
X140844Y86831D01*
X140849Y86775D01*
X140874Y86668D01*
X140910Y86577D01*
X140951Y86500D01*
X140991Y86439D01*
X141027Y86393D01*
X141052Y86363D01*
X141062Y86358D01*
Y86353D01*
X141154Y86281D01*
X141256Y86230D01*
X141358Y86195D01*
X141460Y86169D01*
X141546Y86154D01*
X141587Y86149D01*
X141617D01*
X141648Y86144D01*
X141683D01*
X141765Y86149D01*
X141846Y86159D01*
X141918Y86169D01*
X141979Y86185D01*
X142030Y86200D01*
X142070Y86215D01*
X142096Y86220D01*
X142106Y86225D01*
X142177Y86261D01*
X142248Y86297D01*
X142309Y86343D01*
X142366Y86383D01*
X142411Y86419D01*
X142447Y86449D01*
X142467Y86470D01*
X142478Y86475D01*
X142482Y86454D01*
X142493Y86429D01*
X142498Y86409D01*
X142503Y86404D01*
Y86399D01*
X142518Y86353D01*
X142528Y86312D01*
X142538Y86276D01*
X142549Y86251D01*
X142559Y86230D01*
X142564Y86210D01*
X142569Y86205D01*
Y86200D01*
X143236D01*
X143205Y86266D01*
X143180Y86327D01*
X143159Y86383D01*
X143139Y86434D01*
X143129Y86475D01*
X143119Y86510D01*
X143114Y86531D01*
Y86536D01*
X143104Y86602D01*
X143098Y86684D01*
X143088Y86765D01*
Y86846D01*
X143083Y86918D01*
Y86979D01*
Y87004D01*
Y87019D01*
Y87030D01*
Y87035D01*
X143093Y87824D01*
Y87905D01*
X143088Y87976D01*
X143083Y88043D01*
X143078Y88104D01*
X143073Y88160D01*
X143063Y88211D01*
X143058Y88256D01*
X143047Y88292D01*
X143037Y88328D01*
X143032Y88353D01*
X143017Y88399D01*
X143007Y88419D01*
X143002Y88429D01*
X142961Y88485D01*
X142915Y88541D01*
X142864Y88587D01*
X142808Y88628D01*
X142762Y88658D01*
X142722Y88679D01*
X142696Y88694D01*
X142691Y88699D01*
X142686D01*
X142640Y88720D01*
X142595Y88735D01*
X142488Y88765D01*
X142376Y88786D01*
X142269Y88796D01*
X142167Y88806D01*
X142126D01*
X142091Y88811D01*
X143236D01*
D02*
G37*
G36*
X153599D02*
X151217D01*
X152383D01*
X152291Y88806D01*
X152204Y88796D01*
X152118Y88775D01*
X152042Y88755D01*
X151965Y88730D01*
X151899Y88699D01*
X151833Y88664D01*
X151777Y88633D01*
X151726Y88597D01*
X151680Y88562D01*
X151639Y88531D01*
X151609Y88506D01*
X151584Y88485D01*
X151563Y88465D01*
X151553Y88455D01*
X151548Y88450D01*
X151492Y88379D01*
X151441Y88302D01*
X151395Y88226D01*
X151354Y88144D01*
X151324Y88058D01*
X151298Y87976D01*
X151258Y87819D01*
X151242Y87742D01*
X151232Y87676D01*
X151227Y87615D01*
X151222Y87564D01*
X151217Y87518D01*
Y86144D01*
Y87457D01*
X151222Y87361D01*
X151227Y87264D01*
X151242Y87177D01*
X151258Y87096D01*
X151273Y87014D01*
X151298Y86943D01*
X151319Y86877D01*
X151344Y86816D01*
X151365Y86760D01*
X151390Y86714D01*
X151410Y86673D01*
X151426Y86638D01*
X151446Y86612D01*
X151456Y86592D01*
X151461Y86582D01*
X151466Y86577D01*
X151533Y86500D01*
X151599Y86434D01*
X151675Y86378D01*
X151757Y86327D01*
X151838Y86286D01*
X151919Y86251D01*
X152001Y86220D01*
X152082Y86200D01*
X152154Y86180D01*
X152225Y86169D01*
X152291Y86159D01*
X152347Y86149D01*
X152393D01*
X152423Y86144D01*
X152454D01*
X152602Y86154D01*
X152739Y86174D01*
X152856Y86205D01*
X152958Y86241D01*
X153004Y86261D01*
X153039Y86276D01*
X153075Y86292D01*
X153100Y86307D01*
X153121Y86322D01*
X153141Y86327D01*
X153146Y86337D01*
X153151D01*
X153248Y86419D01*
X153334Y86505D01*
X153406Y86602D01*
X153462Y86694D01*
X153507Y86775D01*
X153523Y86811D01*
X153538Y86841D01*
X153548Y86867D01*
X153558Y86887D01*
X153563Y86897D01*
Y86902D01*
X152892Y87014D01*
X152866Y86948D01*
X152841Y86887D01*
X152815Y86841D01*
X152785Y86801D01*
X152764Y86770D01*
X152744Y86750D01*
X152729Y86739D01*
X152724Y86734D01*
X152683Y86704D01*
X152637Y86684D01*
X152591Y86668D01*
X152551Y86658D01*
X152515Y86653D01*
X152484Y86648D01*
X152459D01*
X152377Y86653D01*
X152301Y86673D01*
X152230Y86699D01*
X152174Y86729D01*
X152128Y86760D01*
X152098Y86785D01*
X152072Y86806D01*
X152067Y86811D01*
X152016Y86877D01*
X151980Y86953D01*
X151950Y87035D01*
X151930Y87106D01*
X151919Y87177D01*
X151914Y87228D01*
X151909Y87248D01*
Y87264D01*
Y87274D01*
Y87279D01*
X153599D01*
Y86261D01*
Y87422D01*
X153589Y87549D01*
X153574Y87671D01*
X153553Y87783D01*
X153528Y87890D01*
X153502Y87981D01*
X153472Y88068D01*
X153441Y88144D01*
X153411Y88211D01*
X153380Y88272D01*
X153355Y88317D01*
X153329Y88358D01*
X153309Y88389D01*
X153294Y88414D01*
X153284Y88424D01*
X153278Y88429D01*
X153217Y88496D01*
X153146Y88557D01*
X153075Y88608D01*
X153004Y88648D01*
X152927Y88689D01*
X152851Y88720D01*
X152780Y88745D01*
X152708Y88765D01*
X152642Y88781D01*
X152581Y88791D01*
X152525Y88801D01*
X152479Y88806D01*
X152439Y88811D01*
X153599D01*
D02*
G37*
G36*
X140324Y88755D02*
D01*
X139647D01*
Y86200D01*
X140324D01*
Y88755D01*
D02*
G37*
G36*
X139194Y89722D02*
X136400D01*
Y89127D01*
X137443D01*
Y86200D01*
X136400D01*
X139194D01*
Y89722D01*
D02*
G37*
%LPD*%
G36*
X142427Y87284D02*
Y87203D01*
X142421Y87132D01*
X142416Y87076D01*
X142411Y87030D01*
X142406Y86999D01*
X142401Y86974D01*
X142396Y86963D01*
Y86958D01*
X142381Y86913D01*
X142355Y86867D01*
X142330Y86831D01*
X142304Y86796D01*
X142279Y86770D01*
X142259Y86750D01*
X142243Y86739D01*
X142238Y86734D01*
X142177Y86694D01*
X142111Y86668D01*
X142055Y86648D01*
X141999Y86633D01*
X141953Y86623D01*
X141918Y86617D01*
X141887D01*
X141831Y86623D01*
X141775Y86633D01*
X141729Y86648D01*
X141694Y86668D01*
X141658Y86689D01*
X141638Y86704D01*
X141622Y86714D01*
X141617Y86719D01*
X141582Y86760D01*
X141556Y86801D01*
X141541Y86841D01*
X141531Y86882D01*
X141521Y86913D01*
X141516Y86938D01*
Y86958D01*
Y86963D01*
X141521Y87014D01*
X141536Y87060D01*
X141556Y87101D01*
X141582Y87137D01*
X141602Y87162D01*
X141622Y87182D01*
X141638Y87193D01*
X141643Y87198D01*
X141683Y87218D01*
X141734Y87243D01*
X141795Y87264D01*
X141857Y87279D01*
X141918Y87294D01*
X141963Y87305D01*
X141984Y87310D01*
X141999Y87315D01*
X142009D01*
X142111Y87335D01*
X142192Y87355D01*
X142269Y87376D01*
X142325Y87391D01*
X142371Y87406D01*
X142401Y87411D01*
X142421Y87422D01*
X142427D01*
Y87284D01*
D02*
G37*
G36*
X152500Y88287D02*
X152566Y88266D01*
X152627Y88241D01*
X152678Y88216D01*
X152718Y88185D01*
X152749Y88160D01*
X152769Y88139D01*
X152775Y88134D01*
X152820Y88073D01*
X152861Y88002D01*
X152886Y87925D01*
X152907Y87854D01*
X152917Y87793D01*
X152922Y87737D01*
X152927Y87717D01*
Y87707D01*
Y87696D01*
Y87691D01*
X151919D01*
X151925Y87788D01*
X151940Y87875D01*
X151960Y87951D01*
X151991Y88012D01*
X152016Y88063D01*
X152042Y88099D01*
X152057Y88124D01*
X152062Y88129D01*
X152118Y88185D01*
X152179Y88226D01*
X152240Y88251D01*
X152296Y88272D01*
X152347Y88282D01*
X152388Y88292D01*
X152423D01*
X152500Y88287D01*
D02*
G37*
G36*
X139194Y86200D02*
X138156D01*
Y89127D01*
X139194D01*
Y86200D01*
D02*
G37*
D10*
X95437Y20504D02*
G03*
X95437Y20504I-394J0D01*
G01*
X77571Y27445D02*
Y29217D01*
Y18770D02*
Y20555D01*
Y18783D02*
X82886D01*
X77571Y29217D02*
X82886D01*
X72429Y18783D02*
Y20555D01*
Y27445D02*
Y29230D01*
X67114Y29217D02*
X72429D01*
X67114Y18783D02*
X72429D01*
X68898Y70457D02*
X72244D01*
X68898D02*
Y74787D01*
X77756Y70457D02*
X81102D01*
Y74787D01*
X92398Y70457D02*
X95744D01*
X92398D02*
Y74787D01*
X101256Y70457D02*
X104602D01*
Y74787D01*
X102756Y96543D02*
X106102D01*
Y92213D02*
Y96543D01*
X93898D02*
X97244D01*
X93898Y92213D02*
Y96543D01*
X140571Y36504D02*
Y38571D01*
X138504D02*
X140571D01*
X124429D02*
X126496D01*
X124429Y36504D02*
Y38571D01*
Y22429D02*
Y24496D01*
Y22429D02*
X126496D01*
X138504D02*
X140571D01*
Y24496D01*
D11*
X92992Y43000D02*
G03*
X92992Y43000I-492J0D01*
G01*
X144803Y25579D02*
G03*
X144803Y25579I-492J0D01*
G01*
D12*
X133177Y81595D02*
G03*
X133177Y81595I-197J0D01*
G01*
D13*
X158405Y92776D02*
Y102618D01*
D14*
X31842Y43972D02*
Y78028D01*
X37860D01*
X45860Y78000D02*
X52860D01*
X31842Y43972D02*
X37860D01*
X45860Y44000D02*
X52860D01*
X118500Y102100D02*
X127500D01*
X118500Y94900D02*
Y102100D01*
Y94900D02*
X127500D01*
X132500D01*
X132500Y102100D02*
X132500Y94900D01*
X127500Y102100D02*
X132500Y102100D01*
D15*
X120721Y76205D02*
X122295Y77780D01*
X148280Y50221D02*
Y51795D01*
X120721Y50221D02*
X122295D01*
X120721D02*
Y51795D01*
X146705Y50221D02*
X148280D01*
X146705Y77780D02*
X148280D01*
Y76205D02*
Y77780D01*
D16*
X113842Y30051D02*
Y43949D01*
X94157Y30051D02*
Y43949D01*
X179220Y23382D02*
Y83618D01*
X163029D02*
X179220D01*
X163029Y23382D02*
Y83618D01*
Y23382D02*
X179220D01*
X119595Y81595D02*
X131405D01*
X119595Y93405D02*
X131405D01*
X119595Y81595D02*
Y81988D01*
X131405Y81595D02*
Y81988D01*
Y93012D02*
Y93405D01*
X119595Y93012D02*
Y93405D01*
D17*
X98350Y56350D02*
Y57650D01*
X98000Y56350D02*
X98350Y56350D01*
X98000Y56350D02*
Y57650D01*
X98350Y57650D01*
X96450Y56350D02*
X96800D01*
Y57650D01*
X96450D02*
X96800D01*
X96450Y56350D02*
Y57650D01*
X115050Y97350D02*
Y98650D01*
X115400Y98650D01*
Y97350D02*
Y98650D01*
X115050Y97350D02*
X115400Y97350D01*
X116600Y98650D02*
X116950D01*
X116600Y97350D02*
Y98650D01*
Y97350D02*
X116950D01*
Y98650D01*
X89950Y77350D02*
Y78650D01*
X89600Y77350D02*
X89950Y77350D01*
X89600Y77350D02*
Y78650D01*
X89950Y78650D01*
X88050Y77350D02*
X88400D01*
Y78650D01*
X88050D02*
X88400D01*
X88050Y77350D02*
Y78650D01*
X78150Y33050D02*
X79450D01*
X78150D02*
X78150Y33400D01*
X79450D01*
X79450Y33050D01*
X78150Y34600D02*
Y34950D01*
Y34600D02*
X79450D01*
Y34950D01*
X78150D02*
X79450D01*
X136850Y95550D02*
X138150D01*
X136850D02*
X136850Y95900D01*
X138150D01*
X138150Y95550D01*
X136850Y97100D02*
Y97450D01*
Y97100D02*
X138150D01*
Y97450D01*
X136850D02*
X138150D01*
X111850Y81050D02*
X113150D01*
X111850D02*
X111850Y81400D01*
X113150D01*
X113150Y81050D01*
X111850Y82600D02*
Y82950D01*
Y82600D02*
X113150D01*
Y82950D01*
X111850D02*
X113150D01*
X85150Y33050D02*
X86450D01*
X85150D02*
X85150Y33400D01*
X86450D01*
X86450Y33050D01*
X85150Y34600D02*
Y34950D01*
Y34600D02*
X86450D01*
Y34950D01*
X85150D02*
X86450D01*
X71150D02*
X72450D01*
X72450Y34600D02*
X72450Y34950D01*
X71150Y34600D02*
X72450D01*
X71150Y34950D02*
X71150Y34600D01*
X72450Y33050D02*
Y33400D01*
X71150D02*
X72450D01*
X71150Y33050D02*
Y33400D01*
Y33050D02*
X72450D01*
X113850Y59050D02*
X115150D01*
X113850D02*
X113850Y59400D01*
X115150D01*
X115150Y59050D01*
X113850Y60600D02*
Y60950D01*
Y60600D02*
X115150D01*
Y60950D01*
X113850D02*
X115150D01*
X154350Y33172D02*
X155650D01*
X155650Y32822D02*
X155650Y33172D01*
X154350Y32822D02*
X155650D01*
X154350Y33172D02*
X154350Y32822D01*
X155650Y31272D02*
Y31622D01*
X154350D02*
X155650D01*
X154350Y31272D02*
Y31622D01*
Y31272D02*
X155650D01*
X154350Y39617D02*
X155650D01*
X155650Y39267D02*
X155650Y39617D01*
X154350Y39267D02*
X155650D01*
X154350Y39617D02*
X154350Y39267D01*
X155650Y37717D02*
Y38067D01*
X154350D02*
X155650D01*
X154350Y37717D02*
Y38067D01*
Y37717D02*
X155650D01*
X154350Y42839D02*
X155650D01*
X155650Y42489D02*
X155650Y42839D01*
X154350Y42489D02*
X155650D01*
X154350Y42839D02*
X154350Y42489D01*
X155650Y40939D02*
Y41289D01*
X154350D02*
X155650D01*
X154350Y40939D02*
Y41289D01*
Y40939D02*
X155650D01*
X154350Y49283D02*
X155650D01*
X155650Y48933D02*
X155650Y49283D01*
X154350Y48933D02*
X155650D01*
X154350Y49283D02*
X154350Y48933D01*
X155650Y47383D02*
Y47733D01*
X154350D02*
X155650D01*
X154350Y47383D02*
Y47733D01*
Y47383D02*
X155650D01*
X154350Y29950D02*
X155650D01*
X155650Y29600D02*
X155650Y29950D01*
X154350Y29600D02*
X155650D01*
X154350Y29950D02*
X154350Y29600D01*
X155650Y28050D02*
Y28400D01*
X154350D02*
X155650D01*
X154350Y28050D02*
Y28400D01*
Y28050D02*
X155650D01*
X99350Y18050D02*
X100650D01*
X99350D02*
X99350Y18400D01*
X100650D01*
X100650Y18050D01*
X99350Y19600D02*
Y19950D01*
Y19600D02*
X100650D01*
Y19950D01*
X99350D02*
X100650D01*
X113857Y70800D02*
Y71150D01*
X112057Y70800D02*
Y71150D01*
Y70800D02*
X113857D01*
X112057Y71150D02*
X113857D01*
X112057Y69850D02*
X113857D01*
X112057Y70200D02*
X113857D01*
Y69850D02*
Y70200D01*
X112057Y69850D02*
Y70200D01*
X85900Y78300D02*
Y78650D01*
X84100Y78300D02*
Y78650D01*
Y78300D02*
X85900D01*
X84100Y78650D02*
X85900D01*
X84100Y77350D02*
X85900D01*
X84100Y77700D02*
X85900D01*
Y77350D02*
Y77700D01*
X84100Y77350D02*
Y77700D01*
X73300Y62600D02*
X73650D01*
X73300Y64400D02*
X73650D01*
X73300Y62600D02*
Y64400D01*
X73650Y62600D02*
Y64400D01*
X72350Y62600D02*
Y64400D01*
X72700Y62600D02*
Y64400D01*
X72350Y62600D02*
X72700D01*
X72350Y64400D02*
X72700D01*
X114800Y63100D02*
X115150D01*
X114800Y64900D02*
X115150D01*
X114800Y63100D02*
Y64900D01*
X115150Y63100D02*
Y64900D01*
X113850Y63100D02*
Y64900D01*
X114200Y63100D02*
Y64900D01*
X113850Y63100D02*
X114200D01*
X113850Y64900D02*
X114200D01*
X103800Y62100D02*
X104150D01*
X103800Y63900D02*
X104150D01*
X103800Y62100D02*
Y63900D01*
X104150Y62100D02*
Y63900D01*
X102850Y62100D02*
Y63900D01*
X103200Y62100D02*
Y63900D01*
X102850Y62100D02*
X103200D01*
X102850Y63900D02*
X103200D01*
X89900Y69300D02*
Y69650D01*
X88100Y69300D02*
Y69650D01*
Y69300D02*
X89900D01*
X88100Y69650D02*
X89900D01*
X88100Y68350D02*
X89900D01*
X88100Y68700D02*
X89900D01*
Y68350D02*
Y68700D01*
X88100Y68350D02*
Y68700D01*
X113400Y98300D02*
Y98650D01*
X111600Y98300D02*
Y98650D01*
Y98300D02*
X113400D01*
X111600Y98650D02*
X113400D01*
X111600Y97350D02*
X113400D01*
X111600Y97700D02*
X113400D01*
Y97350D02*
Y97700D01*
X111600Y97350D02*
Y97700D01*
X108100Y97350D02*
Y97700D01*
X109900Y97350D02*
Y97700D01*
X108100D02*
X109900D01*
X108100Y97350D02*
X109900D01*
X108100Y98650D02*
X109900D01*
X108100Y98300D02*
X109900D01*
X108100D02*
Y98650D01*
X109900Y98300D02*
Y98650D01*
X117600Y37850D02*
Y38200D01*
X119400Y37850D02*
Y38200D01*
X117600D02*
X119400D01*
X117600Y37850D02*
X119400D01*
X117600Y39150D02*
X119400D01*
X117600Y38800D02*
X119400D01*
X117600D02*
Y39150D01*
X119400Y38800D02*
Y39150D01*
X154350Y46011D02*
X154700D01*
X154350Y44211D02*
X154700D01*
Y46011D01*
X154350Y44211D02*
Y46011D01*
X155650Y44211D02*
Y46011D01*
X155300Y44211D02*
Y46011D01*
X155650D01*
X155300Y44211D02*
X155650D01*
X131850Y43500D02*
X132200D01*
X131850Y41700D02*
X132200D01*
Y43500D01*
X131850Y41700D02*
Y43500D01*
X133150Y41700D02*
Y43500D01*
X132800Y41700D02*
Y43500D01*
X133150D01*
X132800Y41700D02*
X133150D01*
X119400Y22800D02*
Y23150D01*
X117600Y22800D02*
Y23150D01*
Y22800D02*
X119400D01*
X117600Y23150D02*
X119400D01*
X117600Y21850D02*
X119400D01*
X117600Y22200D02*
X119400D01*
Y21850D02*
Y22200D01*
X117600Y21850D02*
Y22200D01*
X155300Y57100D02*
X155650D01*
X155300Y58900D02*
X155650D01*
X155300Y57100D02*
Y58900D01*
X155650Y57100D02*
Y58900D01*
X154350Y57100D02*
Y58900D01*
X154700Y57100D02*
Y58900D01*
X154350Y57100D02*
X154700D01*
X154350Y58900D02*
X154700D01*
X154350Y36344D02*
X154700D01*
X154350Y34544D02*
X154700D01*
Y36344D01*
X154350Y34544D02*
Y36344D01*
X155650Y34544D02*
Y36344D01*
X155300Y34544D02*
Y36344D01*
X155650D01*
X155300Y34544D02*
X155650D01*
X117600Y29850D02*
Y30200D01*
X119400Y29850D02*
Y30200D01*
X117600D02*
X119400D01*
X117600Y29850D02*
X119400D01*
X117600Y31150D02*
X119400D01*
X117600Y30800D02*
X119400D01*
X117600D02*
Y31150D01*
X119400Y30800D02*
Y31150D01*
X154350Y52456D02*
X154700D01*
X154350Y50656D02*
X154700D01*
Y52456D01*
X154350Y50656D02*
Y52456D01*
X155650Y50656D02*
Y52456D01*
X155300Y50656D02*
Y52456D01*
X155650D01*
X155300Y50656D02*
X155650D01*
X154350Y55678D02*
X154700D01*
X154350Y53878D02*
X154700D01*
Y55678D01*
X154350Y53878D02*
Y55678D01*
X155650Y53878D02*
Y55678D01*
X155300Y53878D02*
Y55678D01*
X155650D01*
X155300Y53878D02*
X155650D01*
X101700Y57300D02*
Y57650D01*
X99900Y57300D02*
Y57650D01*
Y57300D02*
X101700D01*
X99900Y57650D02*
X101700D01*
X99900Y56350D02*
X101700D01*
X99900Y56700D02*
X101700D01*
Y56350D02*
Y56700D01*
X99900Y56350D02*
Y56700D01*
X104600Y56350D02*
Y56700D01*
X106400Y56350D02*
Y56700D01*
X104600D02*
X106400D01*
X104600Y56350D02*
X106400D01*
X104600Y57650D02*
X106400D01*
X104600Y57300D02*
X106400D01*
X104600D02*
Y57650D01*
X106400Y57300D02*
Y57650D01*
X109900Y57300D02*
Y57650D01*
X108100Y57300D02*
Y57650D01*
Y57300D02*
X109900D01*
X108100Y57650D02*
X109900D01*
X108100Y56350D02*
X109900D01*
X108100Y56700D02*
X109900D01*
Y56350D02*
Y56700D01*
X108100Y56350D02*
Y56700D01*
X113000Y88050D02*
X116000D01*
X113000Y88550D02*
X116000D01*
X113000Y88050D02*
Y88550D01*
Y89450D02*
Y89950D01*
Y89450D02*
X116000D01*
X113000Y89950D02*
X116000Y89950D01*
Y88050D02*
Y88550D01*
Y89450D02*
Y89950D01*
X107457Y70550D02*
X110457D01*
X107457Y71050D02*
X110457D01*
X107457Y70550D02*
Y71050D01*
Y71950D02*
Y72450D01*
Y71950D02*
X110457D01*
X107457Y72450D02*
X110457Y72450D01*
Y70550D02*
Y71050D01*
Y71950D02*
Y72450D01*
X83500Y69950D02*
X86500D01*
X83500Y69450D02*
X86500D01*
Y69950D01*
Y68050D02*
Y68550D01*
X83500D02*
X86500D01*
X83500Y68050D02*
X86500Y68050D01*
X83500Y69450D02*
Y69950D01*
Y68050D02*
Y68550D01*
X95950Y61500D02*
Y64500D01*
X95450Y61500D02*
Y64500D01*
Y61500D02*
X95950D01*
X94050D02*
X94550D01*
Y64500D01*
X94050Y61500D02*
X94050Y64500D01*
X95450D02*
X95950D01*
X94050D02*
X94550D01*
X108500Y89950D02*
X111500D01*
X108500Y89450D02*
X111500D01*
Y89950D01*
Y88050D02*
Y88550D01*
X108500D02*
X111500D01*
X108500Y88050D02*
X111500Y88050D01*
X108500Y89450D02*
Y89950D01*
Y88050D02*
Y88550D01*
X137650Y99450D02*
X138050D01*
X136950Y100750D02*
X137650D01*
X136950Y100250D02*
X137650D01*
Y101550D02*
X138050D01*
X137650Y100750D02*
Y101550D01*
X136950Y100250D02*
Y100750D01*
X137650Y99450D02*
Y100250D01*
X138050Y99450D02*
Y101550D01*
D18*
X69150Y39150D02*
Y41184D01*
Y58850D02*
X71184D01*
X86816Y39150D02*
X88850D01*
X86816Y58850D02*
X88850D01*
X69150Y56815D02*
Y58850D01*
Y39150D02*
X71184D01*
X88850D02*
Y41184D01*
Y56815D02*
Y58850D01*
M02*
