G04*
G04 #@! TF.GenerationSoftware,Altium Limited,Altium Designer,18.1.7 (191)*
G04*
G04 Layer_Color=8388736*
%FSLAX25Y25*%
%MOIN*%
G70*
G01*
G75*
%ADD93C,0.00200*%
G36*
X141000Y98800D02*
X140000D01*
Y99300D01*
Y99400D01*
X140076Y99583D01*
X140217Y99724D01*
X140401Y99800D01*
X140500D01*
D01*
X141000D01*
Y98800D01*
D02*
G37*
D93*
X99100Y53500D02*
Y60500D01*
X95700Y53500D02*
X99100D01*
X95700Y60500D02*
X99100D01*
X95700Y53500D02*
Y60500D01*
X114300Y94500D02*
Y101500D01*
X117700D01*
X114300Y94500D02*
X117700D01*
Y101500D01*
X90700Y74500D02*
Y81500D01*
X87300Y74500D02*
X90700D01*
X87300Y81500D02*
X90700D01*
X87300Y74500D02*
Y81500D01*
X75300Y32300D02*
X82300D01*
X75300D02*
Y35700D01*
X82300Y32300D02*
Y35700D01*
X75300D02*
X82300D01*
X134000Y94800D02*
X141000D01*
X134000D02*
Y98200D01*
X141000Y94800D02*
Y98200D01*
X134000D02*
X141000D01*
X109000Y80300D02*
X116000D01*
X109000D02*
Y83700D01*
X116000Y80300D02*
Y83700D01*
X109000D02*
X116000D01*
X82300Y32300D02*
X89300D01*
X82300D02*
Y35700D01*
X89300Y32300D02*
Y35700D01*
X82300D02*
X89300D01*
X68300D02*
X75300D01*
Y32300D02*
Y35700D01*
X68300Y32300D02*
Y35700D01*
Y32300D02*
X75300D01*
X111000Y58300D02*
X118000D01*
X111000D02*
Y61700D01*
X118000Y58300D02*
Y61700D01*
X111000D02*
X118000D01*
X151500Y33922D02*
X158500D01*
Y30522D02*
Y33922D01*
X151500Y30522D02*
Y33922D01*
Y30522D02*
X158500D01*
X151500Y40367D02*
X158500D01*
Y36967D02*
Y40367D01*
X151500Y36967D02*
Y40367D01*
Y36967D02*
X158500D01*
X151500Y43589D02*
X158500D01*
Y40189D02*
Y43589D01*
X151500Y40189D02*
Y43589D01*
Y40189D02*
X158500D01*
X151500Y50033D02*
X158500D01*
Y46633D02*
Y50033D01*
X151500Y46633D02*
Y50033D01*
Y46633D02*
X158500D01*
X151500Y30700D02*
X158500D01*
Y27300D02*
Y30700D01*
X151500Y27300D02*
Y30700D01*
Y27300D02*
X158500D01*
X96500Y17300D02*
X103500D01*
X96500D02*
Y20700D01*
X103500Y17300D02*
Y20700D01*
X96500D02*
X103500D01*
X114657Y67000D02*
Y74000D01*
X111257Y67000D02*
X114657D01*
X111257Y74000D02*
X114657D01*
X111257Y67000D02*
Y74000D01*
X86700Y74500D02*
Y81500D01*
X83300Y74500D02*
X86700D01*
X83300Y81500D02*
X86700D01*
X83300Y74500D02*
Y81500D01*
X69500Y61800D02*
X76500D01*
X69500D02*
Y65200D01*
X76500Y61800D02*
Y65200D01*
X69500D02*
X76500D01*
X111000Y62300D02*
X118000D01*
X111000D02*
Y65700D01*
X118000Y62300D02*
Y65700D01*
X111000D02*
X118000D01*
X100000Y61300D02*
X107000D01*
X100000D02*
Y64700D01*
X107000Y61300D02*
Y64700D01*
X100000D02*
X107000D01*
X90700Y65500D02*
Y72500D01*
X87300Y65500D02*
X90700D01*
X87300Y72500D02*
X90700D01*
X87300Y65500D02*
Y72500D01*
X114200Y94500D02*
Y101500D01*
X110800Y94500D02*
X114200D01*
X110800Y101500D02*
X114200D01*
X110800Y94500D02*
Y101500D01*
X107300Y94500D02*
Y101500D01*
X110700D01*
X107300Y94500D02*
X110700D01*
Y101500D01*
X116800Y35000D02*
Y42000D01*
X120200D01*
X116800Y35000D02*
X120200D01*
Y42000D01*
X151500Y46811D02*
X158500D01*
Y43411D02*
Y46811D01*
X151500Y43411D02*
Y46811D01*
Y43411D02*
X158500D01*
X129000Y44300D02*
X136000D01*
Y40900D02*
Y44300D01*
X129000Y40900D02*
Y44300D01*
Y40900D02*
X136000D01*
X120200Y19000D02*
Y26000D01*
X116800Y19000D02*
X120200D01*
X116800Y26000D02*
X120200D01*
X116800Y19000D02*
Y26000D01*
X151500Y56300D02*
X158500D01*
X151500D02*
Y59700D01*
X158500Y56300D02*
Y59700D01*
X151500D02*
X158500D01*
X151500Y37144D02*
X158500D01*
Y33744D02*
Y37144D01*
X151500Y33744D02*
Y37144D01*
Y33744D02*
X158500D01*
X116800Y27000D02*
Y34000D01*
X120200D01*
X116800Y27000D02*
X120200D01*
Y34000D01*
X151500Y53255D02*
X158500D01*
Y49856D02*
Y53255D01*
X151500Y49856D02*
Y53255D01*
Y49856D02*
X158500D01*
X151500Y56478D02*
X158500D01*
Y53078D02*
Y56478D01*
X151500Y53078D02*
Y56478D01*
Y53078D02*
X158500D01*
X102500Y53500D02*
Y60500D01*
X99100Y53500D02*
X102500D01*
X99100Y60500D02*
X102500D01*
X99100Y53500D02*
Y60500D01*
X103800Y53500D02*
Y60500D01*
X107200D01*
X103800Y53500D02*
X107200D01*
Y60500D01*
X110700Y53500D02*
Y60500D01*
X107300Y53500D02*
X110700D01*
X107300Y60500D02*
X110700D01*
X107300Y53500D02*
Y60500D01*
X116700Y84200D02*
Y93800D01*
X112300Y84200D02*
X116700D01*
X112300D02*
Y93800D01*
X116700D01*
X111157Y66700D02*
Y76300D01*
X106757Y66700D02*
X111157D01*
X106757D02*
Y76300D01*
X111157D01*
X82800Y64200D02*
Y73800D01*
X87200D01*
Y64200D02*
Y73800D01*
X82800Y64200D02*
X87200D01*
X90200Y65200D02*
X99800D01*
Y60800D02*
Y65200D01*
X90200Y60800D02*
X99800D01*
X90200D02*
Y65200D01*
X107800Y84200D02*
Y93800D01*
X112200D01*
Y84200D02*
Y93800D01*
X107800Y84200D02*
X112200D01*
X92500Y84000D02*
Y101500D01*
X60500Y84000D02*
X92500D01*
X60500D02*
Y101500D01*
X92500D01*
X134000Y98800D02*
X141000D01*
X134000D02*
Y102200D01*
X141000Y98800D02*
Y102200D01*
X134000D02*
X141000D01*
M02*
