G04*
G04 #@! TF.GenerationSoftware,Altium Limited,Altium Designer,18.1.7 (191)*
G04*
G04 Layer_Color=16711935*
%FSLAX25Y25*%
%MOIN*%
G70*
G01*
G75*
%ADD12C,0.00394*%
%ADD93C,0.00200*%
D12*
X68898Y70457D02*
Y77543D01*
X81102Y70457D02*
Y77543D01*
X68898Y70457D02*
X81102D01*
X68898Y77543D02*
X81102D01*
X92398Y70457D02*
Y77543D01*
X104602Y70457D02*
Y77543D01*
X92398Y70457D02*
X104602D01*
X92398Y77543D02*
X104602D01*
X106102Y89457D02*
Y96543D01*
X93898Y89457D02*
Y96543D01*
X106102D01*
X93898Y89457D02*
X106102D01*
D93*
X96416Y55032D02*
X98384D01*
X96416Y58969D02*
X98384D01*
X96416Y55032D02*
Y58969D01*
X98384Y55032D02*
Y58969D01*
X96800Y57000D02*
X98000D01*
X97400Y56400D02*
Y57600D01*
X115016Y99968D02*
X116984D01*
X115016Y96031D02*
X116984D01*
X116984D02*
Y99968D01*
X115016Y96031D02*
Y99968D01*
X115400Y98000D02*
X116600D01*
X116000Y97400D02*
Y98600D01*
X88016Y76032D02*
X89984D01*
X88016Y79969D02*
X89984D01*
X88016Y76032D02*
Y79969D01*
X89984Y76032D02*
Y79969D01*
X88400Y78000D02*
X89600D01*
X89000Y77400D02*
Y78600D01*
X76832Y33016D02*
Y34984D01*
X80769Y33016D02*
Y34984D01*
X76832Y34984D02*
X80769D01*
X76832Y33016D02*
X80769D01*
X78800Y33400D02*
Y34600D01*
X78200Y34000D02*
X79400D01*
X135531Y95516D02*
Y97484D01*
X139469Y95516D02*
Y97484D01*
X135531Y97484D02*
X139469D01*
X135531Y95516D02*
X139469D01*
X137500Y95900D02*
Y97100D01*
X136900Y96500D02*
X138100D01*
X110531Y81016D02*
Y82984D01*
X114469Y81016D02*
Y82984D01*
X110531Y82984D02*
X114469D01*
X110531Y81016D02*
X114469D01*
X112500Y81400D02*
Y82600D01*
X111900Y82000D02*
X113100D01*
X83832Y33016D02*
Y34984D01*
X87769Y33016D02*
Y34984D01*
X83832Y34984D02*
X87769D01*
X83832Y33016D02*
X87769D01*
X85800Y33400D02*
Y34600D01*
X85200Y34000D02*
X86400D01*
X73769Y33016D02*
Y34984D01*
X69832Y33016D02*
Y34984D01*
Y33016D02*
X73769D01*
X69832Y34984D02*
X73769D01*
X71800Y33400D02*
Y34600D01*
X71200Y34000D02*
X72400D01*
X112531Y59016D02*
Y60984D01*
X116469Y59016D02*
Y60984D01*
X112531Y60984D02*
X116469D01*
X112531Y59016D02*
X116469D01*
X114500Y59400D02*
Y60600D01*
X113900Y60000D02*
X115100D01*
X156968Y31238D02*
Y33206D01*
X153032Y31238D02*
Y33206D01*
Y31238D02*
X156968D01*
X153032Y33206D02*
X156968D01*
X155000Y31622D02*
Y32822D01*
X154400Y32222D02*
X155600D01*
X156968Y37682D02*
Y39651D01*
X153032Y37682D02*
Y39651D01*
Y37682D02*
X156968D01*
X153032Y39651D02*
X156968D01*
X155000Y38067D02*
Y39267D01*
X154400Y38666D02*
X155600D01*
X156968Y40905D02*
Y42873D01*
X153032Y40905D02*
Y42873D01*
Y40905D02*
X156968D01*
X153032Y42873D02*
X156968D01*
X155000Y41289D02*
Y42489D01*
X154400Y41889D02*
X155600D01*
X156968Y47349D02*
Y49318D01*
X153032Y47349D02*
Y49318D01*
Y47349D02*
X156968D01*
X153032Y49318D02*
X156968D01*
X155000Y47733D02*
Y48933D01*
X154400Y48333D02*
X155600D01*
X156968Y28016D02*
Y29984D01*
X153032Y28016D02*
Y29984D01*
Y28016D02*
X156968D01*
X153032Y29984D02*
X156968D01*
X155000Y28400D02*
Y29600D01*
X154400Y29000D02*
X155600D01*
X98032Y18016D02*
Y19984D01*
X101969Y18016D02*
Y19984D01*
X98032Y19984D02*
X101969D01*
X98032Y18016D02*
X101969D01*
X100000Y18400D02*
Y19600D01*
X99400Y19000D02*
X100600D01*
X111972Y72469D02*
X113941D01*
X111972Y68532D02*
X113941D01*
X113941D02*
Y72469D01*
X111972Y68532D02*
Y72469D01*
X112357Y70500D02*
X113557D01*
X112957Y69900D02*
Y71100D01*
X84016Y79969D02*
X85984D01*
X84016Y76032D02*
X85984D01*
X85984D02*
Y79969D01*
X84016Y76032D02*
Y79969D01*
X84400Y78000D02*
X85600D01*
X85000Y77400D02*
Y78600D01*
X74968Y62516D02*
Y64484D01*
X71031Y62516D02*
Y64484D01*
Y62516D02*
X74968D01*
X71031Y64484D02*
X74968D01*
X73000Y62900D02*
Y64100D01*
X72400Y63500D02*
X73600D01*
X116469Y63016D02*
Y64984D01*
X112531Y63016D02*
Y64984D01*
Y63016D02*
X116469D01*
X112531Y64984D02*
X116469D01*
X114500Y63400D02*
Y64600D01*
X113900Y64000D02*
X115100D01*
X105468Y62016D02*
Y63984D01*
X101532Y62016D02*
Y63984D01*
Y62016D02*
X105468D01*
X101532Y63984D02*
X105468D01*
X103500Y62400D02*
Y63600D01*
X102900Y63000D02*
X104100D01*
X88016Y70969D02*
X89984D01*
X88016Y67032D02*
X89984D01*
X89984D02*
Y70969D01*
X88016Y67032D02*
Y70969D01*
X88400Y69000D02*
X89600D01*
X89000Y68400D02*
Y69600D01*
X111516Y99968D02*
X113484D01*
X111516Y96031D02*
X113484D01*
X113484D02*
Y99968D01*
X111516Y96031D02*
Y99968D01*
X111900Y98000D02*
X113100D01*
X112500Y97400D02*
Y98600D01*
X108016Y96031D02*
X109984D01*
X108016Y99968D02*
X109984D01*
X108016Y96031D02*
Y99968D01*
X109984Y96031D02*
Y99968D01*
X108400Y98000D02*
X109600D01*
X109000Y97400D02*
Y98600D01*
X117516Y36531D02*
X119484D01*
X117516Y40468D02*
X119484D01*
X117516Y36531D02*
Y40468D01*
X119484Y36531D02*
Y40468D01*
X117900Y38500D02*
X119100D01*
X118500Y37900D02*
Y39100D01*
X153032Y44127D02*
Y46095D01*
X156968Y44127D02*
Y46095D01*
X153032Y46095D02*
X156968D01*
X153032Y44127D02*
X156968D01*
X155000Y44511D02*
Y45711D01*
X154400Y45111D02*
X155600D01*
X130532Y41616D02*
Y43584D01*
X134468Y41616D02*
Y43584D01*
X130532Y43584D02*
X134468D01*
X130532Y41616D02*
X134468D01*
X132500Y42000D02*
Y43200D01*
X131900Y42600D02*
X133100D01*
X117516Y24468D02*
X119484D01*
X117516Y20531D02*
X119484D01*
X119484D02*
Y24468D01*
X117516Y20531D02*
Y24468D01*
X117900Y22500D02*
X119100D01*
X118500Y21900D02*
Y23100D01*
X156968Y57016D02*
Y58984D01*
X153032Y57016D02*
Y58984D01*
Y57016D02*
X156968D01*
X153032Y58984D02*
X156968D01*
X155000Y57400D02*
Y58600D01*
X154400Y58000D02*
X155600D01*
X153032Y34460D02*
Y36429D01*
X156968Y34460D02*
Y36429D01*
X153032Y36429D02*
X156968D01*
X153032Y34460D02*
X156968D01*
X155000Y34844D02*
Y36044D01*
X154400Y35445D02*
X155600D01*
X117516Y28532D02*
X119484D01*
X117516Y32469D02*
X119484D01*
X117516Y28532D02*
Y32469D01*
X119484Y28532D02*
Y32469D01*
X117900Y30500D02*
X119100D01*
X118500Y29900D02*
Y31100D01*
X153032Y50571D02*
Y52540D01*
X156968Y50571D02*
Y52540D01*
X153032Y52540D02*
X156968D01*
X153032Y50571D02*
X156968D01*
X155000Y50955D02*
Y52156D01*
X154400Y51556D02*
X155600D01*
X153032Y53794D02*
Y55762D01*
X156968Y53794D02*
Y55762D01*
X153032Y55762D02*
X156968D01*
X153032Y53794D02*
X156968D01*
X155000Y54178D02*
Y55378D01*
X154400Y54778D02*
X155600D01*
X99816Y58969D02*
X101784D01*
X99816Y55032D02*
X101784D01*
X101784D02*
Y58969D01*
X99816Y55032D02*
Y58969D01*
X100200Y57000D02*
X101400D01*
X100800Y56400D02*
Y57600D01*
X104516Y55032D02*
X106484D01*
X104516Y58969D02*
X106484D01*
X104516Y55032D02*
Y58969D01*
X106484Y55032D02*
Y58969D01*
X104900Y57000D02*
X106100D01*
X105500Y56400D02*
Y57600D01*
X108016Y58969D02*
X109984D01*
X108016Y55032D02*
X109984D01*
X109984D02*
Y58969D01*
X108016Y55032D02*
Y58969D01*
X108400Y57000D02*
X109600D01*
X109000Y56400D02*
Y57600D01*
X113500Y89000D02*
X115500D01*
X114500Y88000D02*
Y90000D01*
X112925Y85850D02*
Y92150D01*
X116075Y85850D02*
Y92150D01*
X112925Y85850D02*
X116075D01*
X112925Y92150D02*
X116075D01*
X107957Y71500D02*
X109957D01*
X108957Y70500D02*
Y72500D01*
X107382Y68350D02*
Y74650D01*
X110531Y68350D02*
Y74650D01*
X107382Y68350D02*
X110531D01*
X107382Y74650D02*
X110531D01*
X84000Y69000D02*
X86000D01*
X85000Y68000D02*
Y70000D01*
X86575Y65850D02*
Y72150D01*
X83425Y65850D02*
Y72150D01*
X86575D01*
X83425Y65850D02*
X86575D01*
X95000Y62000D02*
Y64000D01*
X94000Y63000D02*
X96000D01*
X91850Y61425D02*
X98150D01*
X91850Y64575D02*
X98150D01*
Y61425D02*
Y64575D01*
X91850Y61425D02*
Y64575D01*
X109000Y89000D02*
X111000D01*
X110000Y88000D02*
Y90000D01*
X111575Y85850D02*
Y92150D01*
X108425Y85850D02*
Y92150D01*
X111575D01*
X108425Y85850D02*
X111575D01*
X89500Y89500D02*
Y100500D01*
X63500D02*
X89500D01*
X63500Y89500D02*
Y100500D01*
Y89500D02*
X89500D01*
X139469Y99516D02*
Y101484D01*
X135531Y99516D02*
Y101484D01*
Y99516D02*
X139469D01*
X135531Y101484D02*
X139469D01*
X137500Y99900D02*
Y101100D01*
X136900Y100500D02*
X138100D01*
M02*
