M48
;Layer_Color=9474304
;FILE_FORMAT=2:5
INCH,TZ
;TYPE=PLATED
T1F00S00C0.01000
T3F00S00C0.02559
T4F00S00C0.03150
%
T01
X73658Y19900
X78800Y20400
X82700Y24800
X79700Y29700
X76400Y32600
X73800Y31000
X71000Y30500
X68500
X62000Y34000
X64600Y37100
Y41000
X77000Y48500
X80000
X86000Y31500
X66900Y60800
X56800Y58800
X56600Y53400
X54700Y55300
X47000Y54000
Y50000
Y58000
Y62000
Y66000
X95000Y63900
X94600Y60900
X98100Y56300
X101500Y57800
X102600Y60200
X104600Y66200
X111800Y65700
X112000Y56000
X116500
X123100Y55100
X124400Y57100
X125700Y53500
X131547
X134300
X136400Y47811
X139300Y47800
X143400Y48000
X146000Y44300
X150500
X151500Y41900
X148800Y38600
X148100Y32800
X150200Y30700
X153000Y28600
X154200Y32600
X155900Y38600
X159825Y42675
X166588Y46612
X166900Y49200
X168900Y53000
X167100Y55700
X168758Y58310
X171000Y56100
X167400Y65000
X158400
X159500Y60100
X152200Y62100
X150500Y59000
X151000Y54110
X148700Y50100
X144600Y63200
X137500Y61367
X134300
X131000
X126500Y44500
X122600Y48400
X120300Y50300
X119800Y46200
X122800Y39500
X115000Y40500
X112800Y38400
X110100Y38000
X107839Y37100
X105100Y36600
X103500Y34400
X101000Y31900
X102720Y28100
X105280Y30180
X107839Y30800
X110100Y33100
X112800Y32200
X115500Y35200
X121000Y30180
X124000Y21000
X115700Y22600
X115050Y19950
X105147Y19854
X101146Y18954
X102700Y23000
X97900Y22100
X94300Y18800
X92500Y20600
X90500Y18000
X93000Y31484
X94800Y36500
X97602Y29118
X102200Y42300
X104500Y43200
X109600Y42700
X92000Y48500
Y51500
X87300Y55600
X129700Y35000
X132800
X136100
X135500Y31500
Y28500
X132500Y31484
X135500Y19900
X139100
X147000Y21000
Y25000
X151000Y21000
X155000
X159000
X163000
X160000Y24300
X157000Y26200
X167500Y35500
X173124Y36082
X142000Y38900
X141000Y67500
Y70000
X140600Y74300
X143200Y73800
X144600Y71400
X144000Y67200
X150827Y66953
X153800Y70700
X153900Y73600
X150827Y74827
X155900Y80600
X154700Y85600
X151400
X148100
X139200
X135500Y85300
X137800Y92600
X140400
X131900Y94100
X134500Y100500
X128300Y100400
X125400Y98100
X117000Y96500
X117600Y100700
X112500Y97200
X106900Y97600
X100500
X100000Y100000
X97500Y94000
X100000Y88700
Y84800
X98600Y82100
X105146Y77000
X107800Y76700
X112200Y75800
X114700Y74200
X109800Y71900
X116700Y68700
X115100Y66500
X102100Y67200
X89000Y74700
X108800Y83700
X112100Y84000
X111300Y86600
X116400Y89000
X131400Y74000
X133900
X137500Y74300
X159402Y72202
X158900Y69100
X171000Y77300
X175000Y78000
X174000Y83000
X170000
Y87000
X174000
X166000
X82000Y86000
Y89000
X84000Y99000
X70595
X67500Y91000
Y87500
X64000Y84000
X66000Y81000
Y77300
X70000Y74300
X73333
X76667
X80000
X47000Y70000
T03
X55858Y49622
Y72378
T04
X70595Y95000
X82406
M30
