G04*
G04 #@! TF.GenerationSoftware,Altium Limited,Altium Designer,18.1.7 (191)*
G04*
G04 Layer_Color=16711935*
%FSLAX25Y25*%
%MOIN*%
G70*
G01*
G75*
%ADD92C,0.00000*%
D92*
X72495Y39150D02*
X73694D01*
X72495D02*
X73694D01*
X74463D02*
X75663D01*
X74463D02*
X75663D01*
X76432D02*
X77631D01*
X76432D02*
X77631D01*
X78400D02*
X79600D01*
X78400D02*
X79600D01*
X80369D02*
X81568D01*
X80369D02*
X81568D01*
X82337D02*
X83537D01*
X82337D02*
X83537D01*
X84306D02*
X85505D01*
X84306D02*
X85505D01*
X88850Y42494D02*
Y43694D01*
Y42494D02*
Y43694D01*
Y44463D02*
Y45663D01*
Y44463D02*
Y45663D01*
Y46431D02*
Y47631D01*
Y46431D02*
Y47631D01*
Y48400D02*
Y49600D01*
Y48400D02*
Y49600D01*
Y50368D02*
Y51569D01*
Y50368D02*
Y51569D01*
Y52337D02*
Y53537D01*
Y52337D02*
Y53537D01*
Y54305D02*
Y55506D01*
Y54305D02*
Y55506D01*
X84306Y58850D02*
X85505D01*
X84306D02*
X85505D01*
X82337D02*
X83537D01*
X82337D02*
X83537D01*
X80369D02*
X81568D01*
X80369D02*
X81568D01*
X78400D02*
X79600D01*
X78400D02*
X79600D01*
X76432D02*
X77631D01*
X76432D02*
X77631D01*
X74463D02*
X75663D01*
X74463D02*
X75663D01*
X72495D02*
X73694D01*
X72495D02*
X73694D01*
X69150Y54305D02*
Y55506D01*
Y54305D02*
Y55506D01*
Y52337D02*
Y53537D01*
Y52337D02*
Y53537D01*
Y50368D02*
Y51569D01*
Y50368D02*
Y51569D01*
Y48400D02*
Y49600D01*
Y48400D02*
Y49600D01*
Y46431D02*
Y47631D01*
Y46431D02*
Y47631D01*
Y44463D02*
Y45663D01*
Y44463D02*
Y45663D01*
Y42494D02*
Y43694D01*
Y42494D02*
Y43694D01*
Y58850D02*
X88850D01*
X69150Y39150D02*
Y58850D01*
Y39150D02*
X88850D01*
Y58850D01*
M02*
