G04*
G04 #@! TF.GenerationSoftware,Altium Limited,Altium Designer,18.1.7 (191)*
G04*
G04 Layer_Color=8388736*
%FSLAX25Y25*%
%MOIN*%
G70*
G01*
G75*
G04:AMPARAMS|DCode=45|XSize=37.5mil|YSize=76.87mil|CornerRadius=10.87mil|HoleSize=0mil|Usage=FLASHONLY|Rotation=0.000|XOffset=0mil|YOffset=0mil|HoleType=Round|Shape=RoundedRectangle|*
%AMROUNDEDRECTD45*
21,1,0.03750,0.05512,0,0,0.0*
21,1,0.01575,0.07687,0,0,0.0*
1,1,0.02175,0.00787,-0.02756*
1,1,0.02175,-0.00787,-0.02756*
1,1,0.02175,-0.00787,0.02756*
1,1,0.02175,0.00787,0.02756*
%
%ADD45ROUNDEDRECTD45*%
G04:AMPARAMS|DCode=46|XSize=43.4mil|YSize=45.37mil|CornerRadius=12.35mil|HoleSize=0mil|Usage=FLASHONLY|Rotation=90.000|XOffset=0mil|YOffset=0mil|HoleType=Round|Shape=RoundedRectangle|*
%AMROUNDEDRECTD46*
21,1,0.04340,0.02067,0,0,90.0*
21,1,0.01870,0.04537,0,0,90.0*
1,1,0.02470,0.01034,0.00935*
1,1,0.02470,0.01034,-0.00935*
1,1,0.02470,-0.01034,-0.00935*
1,1,0.02470,-0.01034,0.00935*
%
%ADD46ROUNDEDRECTD46*%
G04:AMPARAMS|DCode=47|XSize=65.06mil|YSize=17.81mil|CornerRadius=5.95mil|HoleSize=0mil|Usage=FLASHONLY|Rotation=0.000|XOffset=0mil|YOffset=0mil|HoleType=Round|Shape=RoundedRectangle|*
%AMROUNDEDRECTD47*
21,1,0.06506,0.00591,0,0,0.0*
21,1,0.05315,0.01781,0,0,0.0*
1,1,0.01191,0.02657,-0.00295*
1,1,0.01191,-0.02657,-0.00295*
1,1,0.01191,-0.02657,0.00295*
1,1,0.01191,0.02657,0.00295*
%
%ADD47ROUNDEDRECTD47*%
G04:AMPARAMS|DCode=48|XSize=166mil|YSize=166mil|CornerRadius=19mil|HoleSize=0mil|Usage=FLASHONLY|Rotation=0.000|XOffset=0mil|YOffset=0mil|HoleType=Round|Shape=RoundedRectangle|*
%AMROUNDEDRECTD48*
21,1,0.16600,0.12800,0,0,0.0*
21,1,0.12800,0.16600,0,0,0.0*
1,1,0.03800,0.06400,-0.06400*
1,1,0.03800,-0.06400,-0.06400*
1,1,0.03800,-0.06400,0.06400*
1,1,0.03800,0.06400,0.06400*
%
%ADD48ROUNDEDRECTD48*%
G04:AMPARAMS|DCode=49|XSize=32.58mil|YSize=15.84mil|CornerRadius=5.46mil|HoleSize=0mil|Usage=FLASHONLY|Rotation=0.000|XOffset=0mil|YOffset=0mil|HoleType=Round|Shape=RoundedRectangle|*
%AMROUNDEDRECTD49*
21,1,0.03258,0.00492,0,0,0.0*
21,1,0.02165,0.01584,0,0,0.0*
1,1,0.01092,0.01083,-0.00246*
1,1,0.01092,-0.01083,-0.00246*
1,1,0.01092,-0.01083,0.00246*
1,1,0.01092,0.01083,0.00246*
%
%ADD49ROUNDEDRECTD49*%
G04:AMPARAMS|DCode=50|XSize=32.58mil|YSize=15.84mil|CornerRadius=5.46mil|HoleSize=0mil|Usage=FLASHONLY|Rotation=90.000|XOffset=0mil|YOffset=0mil|HoleType=Round|Shape=RoundedRectangle|*
%AMROUNDEDRECTD50*
21,1,0.03258,0.00492,0,0,90.0*
21,1,0.02165,0.01584,0,0,90.0*
1,1,0.01092,0.00246,0.01083*
1,1,0.01092,0.00246,-0.01083*
1,1,0.01092,-0.00246,-0.01083*
1,1,0.01092,-0.00246,0.01083*
%
%ADD50ROUNDEDRECTD50*%
G04:AMPARAMS|DCode=51|XSize=84.74mil|YSize=124.11mil|CornerRadius=22.69mil|HoleSize=0mil|Usage=FLASHONLY|Rotation=90.000|XOffset=0mil|YOffset=0mil|HoleType=Round|Shape=RoundedRectangle|*
%AMROUNDEDRECTD51*
21,1,0.08474,0.07874,0,0,90.0*
21,1,0.03937,0.12411,0,0,90.0*
1,1,0.04537,0.03937,0.01968*
1,1,0.04537,0.03937,-0.01968*
1,1,0.04537,-0.03937,-0.01968*
1,1,0.04537,-0.03937,0.01968*
%
%ADD51ROUNDEDRECTD51*%
G04:AMPARAMS|DCode=52|XSize=67.81mil|YSize=22.14mil|CornerRadius=7.04mil|HoleSize=0mil|Usage=FLASHONLY|Rotation=90.000|XOffset=0mil|YOffset=0mil|HoleType=Round|Shape=RoundedRectangle|*
%AMROUNDEDRECTD52*
21,1,0.06781,0.00807,0,0,90.0*
21,1,0.05374,0.02214,0,0,90.0*
1,1,0.01407,0.00404,0.02687*
1,1,0.01407,0.00404,-0.02687*
1,1,0.01407,-0.00404,-0.02687*
1,1,0.01407,-0.00404,0.02687*
%
%ADD52ROUNDEDRECTD52*%
G04:AMPARAMS|DCode=53|XSize=26mil|YSize=26mil|CornerRadius=8mil|HoleSize=0mil|Usage=FLASHONLY|Rotation=180.000|XOffset=0mil|YOffset=0mil|HoleType=Round|Shape=RoundedRectangle|*
%AMROUNDEDRECTD53*
21,1,0.02600,0.01000,0,0,180.0*
21,1,0.01000,0.02600,0,0,180.0*
1,1,0.01600,-0.00500,0.00500*
1,1,0.01600,0.00500,0.00500*
1,1,0.01600,0.00500,-0.00500*
1,1,0.01600,-0.00500,-0.00500*
%
%ADD53ROUNDEDRECTD53*%
G04:AMPARAMS|DCode=54|XSize=26mil|YSize=26mil|CornerRadius=8mil|HoleSize=0mil|Usage=FLASHONLY|Rotation=90.000|XOffset=0mil|YOffset=0mil|HoleType=Round|Shape=RoundedRectangle|*
%AMROUNDEDRECTD54*
21,1,0.02600,0.01000,0,0,90.0*
21,1,0.01000,0.02600,0,0,90.0*
1,1,0.01600,0.00500,0.00500*
1,1,0.01600,0.00500,-0.00500*
1,1,0.01600,-0.00500,-0.00500*
1,1,0.01600,-0.00500,0.00500*
%
%ADD54ROUNDEDRECTD54*%
G04:AMPARAMS|DCode=55|XSize=36mil|YSize=28mil|CornerRadius=8.5mil|HoleSize=0mil|Usage=FLASHONLY|Rotation=0.000|XOffset=0mil|YOffset=0mil|HoleType=Round|Shape=RoundedRectangle|*
%AMROUNDEDRECTD55*
21,1,0.03600,0.01100,0,0,0.0*
21,1,0.01900,0.02800,0,0,0.0*
1,1,0.01700,0.00950,-0.00550*
1,1,0.01700,-0.00950,-0.00550*
1,1,0.01700,-0.00950,0.00550*
1,1,0.01700,0.00950,0.00550*
%
%ADD55ROUNDEDRECTD55*%
G04:AMPARAMS|DCode=56|XSize=36mil|YSize=28mil|CornerRadius=8.5mil|HoleSize=0mil|Usage=FLASHONLY|Rotation=90.000|XOffset=0mil|YOffset=0mil|HoleType=Round|Shape=RoundedRectangle|*
%AMROUNDEDRECTD56*
21,1,0.03600,0.01100,0,0,90.0*
21,1,0.01900,0.02800,0,0,90.0*
1,1,0.01700,0.00550,0.00950*
1,1,0.01700,0.00550,-0.00950*
1,1,0.01700,-0.00550,-0.00950*
1,1,0.01700,-0.00550,0.00950*
%
%ADD56ROUNDEDRECTD56*%
G04:AMPARAMS|DCode=57|XSize=29.62mil|YSize=57.18mil|CornerRadius=8.91mil|HoleSize=0mil|Usage=FLASHONLY|Rotation=0.000|XOffset=0mil|YOffset=0mil|HoleType=Round|Shape=RoundedRectangle|*
%AMROUNDEDRECTD57*
21,1,0.02962,0.03937,0,0,0.0*
21,1,0.01181,0.05718,0,0,0.0*
1,1,0.01781,0.00591,-0.01968*
1,1,0.01781,-0.00591,-0.01968*
1,1,0.01781,-0.00591,0.01968*
1,1,0.01781,0.00591,0.01968*
%
%ADD57ROUNDEDRECTD57*%
G04:AMPARAMS|DCode=58|XSize=92.61mil|YSize=76.87mil|CornerRadius=20.72mil|HoleSize=0mil|Usage=FLASHONLY|Rotation=180.000|XOffset=0mil|YOffset=0mil|HoleType=Round|Shape=RoundedRectangle|*
%AMROUNDEDRECTD58*
21,1,0.09261,0.03543,0,0,180.0*
21,1,0.05118,0.07687,0,0,180.0*
1,1,0.04143,-0.02559,0.01772*
1,1,0.04143,0.02559,0.01772*
1,1,0.04143,0.02559,-0.01772*
1,1,0.04143,-0.02559,-0.01772*
%
%ADD58ROUNDEDRECTD58*%
%ADD59O,0.05521X0.01781*%
G04:AMPARAMS|DCode=60|XSize=22mil|YSize=48mil|CornerRadius=8mil|HoleSize=0mil|Usage=FLASHONLY|Rotation=90.000|XOffset=0mil|YOffset=0mil|HoleType=Round|Shape=RoundedRectangle|*
%AMROUNDEDRECTD60*
21,1,0.02200,0.03200,0,0,90.0*
21,1,0.00600,0.04800,0,0,90.0*
1,1,0.01600,0.01600,0.00300*
1,1,0.01600,0.01600,-0.00300*
1,1,0.01600,-0.01600,-0.00300*
1,1,0.01600,-0.01600,0.00300*
%
%ADD60ROUNDEDRECTD60*%
G04:AMPARAMS|DCode=61|XSize=22mil|YSize=48mil|CornerRadius=8mil|HoleSize=0mil|Usage=FLASHONLY|Rotation=0.000|XOffset=0mil|YOffset=0mil|HoleType=Round|Shape=RoundedRectangle|*
%AMROUNDEDRECTD61*
21,1,0.02200,0.03200,0,0,0.0*
21,1,0.00600,0.04800,0,0,0.0*
1,1,0.01600,0.00300,-0.01600*
1,1,0.01600,-0.00300,-0.01600*
1,1,0.01600,-0.00300,0.01600*
1,1,0.01600,0.00300,0.01600*
%
%ADD61ROUNDEDRECTD61*%
%ADD62R,0.11230X0.11624*%
%ADD63R,0.11624X0.11230*%
%ADD64O,0.01584X0.03356*%
%ADD65O,0.03356X0.01584*%
G04:AMPARAMS|DCode=66|XSize=16.24mil|YSize=39.07mil|CornerRadius=5.56mil|HoleSize=0mil|Usage=FLASHONLY|Rotation=90.000|XOffset=0mil|YOffset=0mil|HoleType=Round|Shape=RoundedRectangle|*
%AMROUNDEDRECTD66*
21,1,0.01624,0.02795,0,0,90.0*
21,1,0.00512,0.03907,0,0,90.0*
1,1,0.01112,0.01398,0.00256*
1,1,0.01112,0.01398,-0.00256*
1,1,0.01112,-0.01398,-0.00256*
1,1,0.01112,-0.01398,0.00256*
%
%ADD66ROUNDEDRECTD66*%
G04:AMPARAMS|DCode=67|XSize=98.52mil|YSize=68.21mil|CornerRadius=18.55mil|HoleSize=0mil|Usage=FLASHONLY|Rotation=90.000|XOffset=0mil|YOffset=0mil|HoleType=Round|Shape=RoundedRectangle|*
%AMROUNDEDRECTD67*
21,1,0.09852,0.03110,0,0,90.0*
21,1,0.06142,0.06821,0,0,90.0*
1,1,0.03710,0.01555,0.03071*
1,1,0.03710,0.01555,-0.03071*
1,1,0.03710,-0.01555,-0.03071*
1,1,0.03710,-0.01555,0.03071*
%
%ADD67ROUNDEDRECTD67*%
G04:AMPARAMS|DCode=68|XSize=57.18mil|YSize=41.43mil|CornerRadius=11.86mil|HoleSize=0mil|Usage=FLASHONLY|Rotation=90.000|XOffset=0mil|YOffset=0mil|HoleType=Round|Shape=RoundedRectangle|*
%AMROUNDEDRECTD68*
21,1,0.05718,0.01772,0,0,90.0*
21,1,0.03347,0.04143,0,0,90.0*
1,1,0.02372,0.00886,0.01673*
1,1,0.02372,0.00886,-0.01673*
1,1,0.02372,-0.00886,-0.01673*
1,1,0.02372,-0.00886,0.01673*
%
%ADD68ROUNDEDRECTD68*%
G04:AMPARAMS|DCode=69|XSize=66mil|YSize=22mil|CornerRadius=7mil|HoleSize=0mil|Usage=FLASHONLY|Rotation=270.000|XOffset=0mil|YOffset=0mil|HoleType=Round|Shape=RoundedRectangle|*
%AMROUNDEDRECTD69*
21,1,0.06600,0.00800,0,0,270.0*
21,1,0.05200,0.02200,0,0,270.0*
1,1,0.01400,-0.00400,-0.02600*
1,1,0.01400,-0.00400,0.02600*
1,1,0.01400,0.00400,0.02600*
1,1,0.01400,0.00400,-0.02600*
%
%ADD69ROUNDEDRECTD69*%
G04:AMPARAMS|DCode=70|XSize=48mil|YSize=36mil|CornerRadius=10.5mil|HoleSize=0mil|Usage=FLASHONLY|Rotation=180.000|XOffset=0mil|YOffset=0mil|HoleType=Round|Shape=RoundedRectangle|*
%AMROUNDEDRECTD70*
21,1,0.04800,0.01500,0,0,180.0*
21,1,0.02700,0.03600,0,0,180.0*
1,1,0.02100,-0.01350,0.00750*
1,1,0.02100,0.01350,0.00750*
1,1,0.02100,0.01350,-0.00750*
1,1,0.02100,-0.01350,-0.00750*
%
%ADD70ROUNDEDRECTD70*%
%ADD71O,0.08868X0.04537*%
%ADD72O,0.06899X0.04537*%
%ADD73C,0.03159*%
%ADD74C,0.01600*%
D45*
X175591Y97500D02*
D03*
X155500D02*
D03*
D46*
X86429Y20260D02*
D03*
X86429Y27740D02*
D03*
X77571Y24000D02*
D03*
X63571Y27740D02*
D03*
X63571Y20260D02*
D03*
X72429Y24000D02*
D03*
D47*
X61921Y74189D02*
D03*
Y73008D02*
D03*
Y71039D02*
D03*
Y69858D02*
D03*
Y67890D02*
D03*
Y65921D02*
D03*
Y63953D02*
D03*
Y61984D02*
D03*
Y60016D02*
D03*
Y58047D02*
D03*
Y56079D02*
D03*
Y54110D02*
D03*
Y52142D02*
D03*
Y50961D02*
D03*
Y48992D02*
D03*
Y47811D02*
D03*
D48*
X134500Y64000D02*
D03*
D49*
X121262Y74827D02*
D03*
Y72858D02*
D03*
Y70890D02*
D03*
Y68921D02*
D03*
Y66953D02*
D03*
Y64984D02*
D03*
Y63016D02*
D03*
Y61047D02*
D03*
Y59079D02*
D03*
Y57110D02*
D03*
Y55142D02*
D03*
Y53173D02*
D03*
X147738D02*
D03*
Y55142D02*
D03*
Y57110D02*
D03*
Y59079D02*
D03*
Y61047D02*
D03*
Y63016D02*
D03*
Y64984D02*
D03*
Y66953D02*
D03*
Y68921D02*
D03*
Y70890D02*
D03*
Y72858D02*
D03*
Y74827D02*
D03*
D50*
X123673Y50762D02*
D03*
X125642D02*
D03*
X127610D02*
D03*
X129579D02*
D03*
X131547D02*
D03*
X133516D02*
D03*
X135484D02*
D03*
X137453D02*
D03*
X139421D02*
D03*
X141390D02*
D03*
X143358D02*
D03*
X145327D02*
D03*
Y77238D02*
D03*
X143358D02*
D03*
X141390D02*
D03*
X139421D02*
D03*
X137453D02*
D03*
X135484D02*
D03*
X133516D02*
D03*
X131547D02*
D03*
X129579D02*
D03*
X127610D02*
D03*
X125642D02*
D03*
X123673D02*
D03*
D51*
X104000Y37000D02*
D03*
D52*
X95043Y48299D02*
D03*
X97602D02*
D03*
X100161D02*
D03*
X102720D02*
D03*
X105280D02*
D03*
X107839D02*
D03*
X110398D02*
D03*
X112957D02*
D03*
Y25701D02*
D03*
X110398D02*
D03*
X107839D02*
D03*
X105280D02*
D03*
X102720D02*
D03*
X100161D02*
D03*
X97602D02*
D03*
X95043D02*
D03*
D53*
X97400Y59000D02*
D03*
Y55000D02*
D03*
X116000Y96000D02*
D03*
Y100000D02*
D03*
X89000Y80000D02*
D03*
Y76000D02*
D03*
X112957Y68500D02*
D03*
Y72500D02*
D03*
X85000Y76000D02*
D03*
Y80000D02*
D03*
X89000Y67000D02*
D03*
Y71000D02*
D03*
X112500Y96000D02*
D03*
Y100000D02*
D03*
X109000D02*
D03*
Y96000D02*
D03*
X118500Y40500D02*
D03*
Y36500D02*
D03*
Y20500D02*
D03*
Y24500D02*
D03*
Y32500D02*
D03*
Y28500D02*
D03*
X100800Y55000D02*
D03*
Y59000D02*
D03*
X105500D02*
D03*
Y55000D02*
D03*
X109000D02*
D03*
Y59000D02*
D03*
D54*
X80800Y34000D02*
D03*
X76800D02*
D03*
X139500Y96500D02*
D03*
X135500D02*
D03*
X114500Y82000D02*
D03*
X110500D02*
D03*
X87800Y34000D02*
D03*
X83800D02*
D03*
X69800D02*
D03*
X73800D02*
D03*
X116500Y60000D02*
D03*
X112500D02*
D03*
X153000Y32222D02*
D03*
X157000D02*
D03*
X153000Y38667D02*
D03*
X157000D02*
D03*
X153000Y41889D02*
D03*
X157000D02*
D03*
X153000Y48333D02*
D03*
X157000D02*
D03*
X153000Y29000D02*
D03*
X157000D02*
D03*
X102000Y19000D02*
D03*
X98000D02*
D03*
X71000Y63500D02*
D03*
X75000D02*
D03*
X112500Y64000D02*
D03*
X116500D02*
D03*
X101500Y63000D02*
D03*
X105500D02*
D03*
X157000Y45111D02*
D03*
X153000D02*
D03*
X134500Y42600D02*
D03*
X130500D02*
D03*
X153000Y58000D02*
D03*
X157000D02*
D03*
Y35444D02*
D03*
X153000D02*
D03*
X157000Y51556D02*
D03*
X153000D02*
D03*
X157000Y54778D02*
D03*
X153000D02*
D03*
X139500Y100500D02*
D03*
X135500D02*
D03*
D55*
X114500Y86000D02*
D03*
Y92000D02*
D03*
X108957Y68500D02*
D03*
Y74500D02*
D03*
X85000Y72000D02*
D03*
Y66000D02*
D03*
X110000Y92000D02*
D03*
Y86000D02*
D03*
D56*
X98000Y63000D02*
D03*
X92000D02*
D03*
D57*
X71260Y79905D02*
D03*
X75000D02*
D03*
X78740D02*
D03*
Y68506D02*
D03*
X71260D02*
D03*
X94760Y79905D02*
D03*
X98500D02*
D03*
X102240D02*
D03*
Y68506D02*
D03*
X94760D02*
D03*
X103740Y87094D02*
D03*
X100000D02*
D03*
X96260D02*
D03*
Y98494D02*
D03*
X103740D02*
D03*
D58*
X172971Y23382D02*
D03*
Y83618D02*
D03*
D59*
X163029Y30864D02*
D03*
Y32832D02*
D03*
Y34801D02*
D03*
Y36769D02*
D03*
Y38738D02*
D03*
Y40706D02*
D03*
Y42675D02*
D03*
Y44643D02*
D03*
Y46612D02*
D03*
Y48580D02*
D03*
Y50549D02*
D03*
Y52517D02*
D03*
Y54486D02*
D03*
X163029Y56454D02*
D03*
X163029Y58423D02*
D03*
Y60391D02*
D03*
Y62360D02*
D03*
Y64328D02*
D03*
Y66297D02*
D03*
Y68265D02*
D03*
Y70234D02*
D03*
Y72202D02*
D03*
Y74171D02*
D03*
X163029Y76139D02*
D03*
D60*
X88150Y43095D02*
D03*
Y45063D02*
D03*
Y47032D02*
D03*
Y49000D02*
D03*
Y50968D02*
D03*
Y52937D02*
D03*
Y54905D02*
D03*
X69850D02*
D03*
Y52937D02*
D03*
Y50968D02*
D03*
Y49000D02*
D03*
Y47032D02*
D03*
Y45063D02*
D03*
Y43095D02*
D03*
D61*
X84905Y58150D02*
D03*
X82937D02*
D03*
X80968D02*
D03*
X79000D02*
D03*
X77031D02*
D03*
X75063D02*
D03*
X73094D02*
D03*
Y39850D02*
D03*
X75063D02*
D03*
X77031D02*
D03*
X79000D02*
D03*
X80968D02*
D03*
X82937D02*
D03*
X84905D02*
D03*
D62*
X79000Y49000D02*
D03*
D63*
X132500Y30500D02*
D03*
D64*
X137421Y22232D02*
D03*
X135453D02*
D03*
X133484D02*
D03*
X131516D02*
D03*
X129547D02*
D03*
X127579D02*
D03*
Y38768D02*
D03*
X129547D02*
D03*
X131516D02*
D03*
X133484D02*
D03*
X135453D02*
D03*
X137421D02*
D03*
D65*
X124232Y25579D02*
D03*
Y27547D02*
D03*
Y29516D02*
D03*
Y31484D02*
D03*
Y33453D02*
D03*
Y35421D02*
D03*
X140768D02*
D03*
Y33453D02*
D03*
Y31484D02*
D03*
Y29516D02*
D03*
Y27547D02*
D03*
Y25579D02*
D03*
D66*
X131150Y83563D02*
D03*
Y85532D02*
D03*
Y87500D02*
D03*
Y89468D02*
D03*
Y91437D02*
D03*
X119850D02*
D03*
Y89468D02*
D03*
Y87500D02*
D03*
Y85532D02*
D03*
Y83563D02*
D03*
D67*
X125500Y87500D02*
D03*
D68*
X121366Y98500D02*
D03*
X129634D02*
D03*
D69*
X85500Y87500D02*
D03*
X73500D02*
D03*
X67500D02*
D03*
D70*
X90000Y90300D02*
D03*
X63000Y99200D02*
D03*
Y90300D02*
D03*
X90000Y99200D02*
D03*
D71*
X57827Y78028D02*
D03*
Y43972D02*
D03*
D72*
X42079Y78028D02*
D03*
Y43972D02*
D03*
D73*
X55858Y49622D02*
D03*
Y72378D02*
D03*
D74*
X82406Y95000D02*
D03*
X70595D02*
D03*
M02*
