G04*
G04 #@! TF.GenerationSoftware,Altium Limited,Altium Designer,18.1.7 (191)*
G04*
G04 Layer_Physical_Order=2*
G04 Layer_Color=6736896*
%FSLAX25Y25*%
%MOIN*%
G70*
G01*
G75*
%ADD13C,0.01000*%
%ADD16C,0.00500*%
%ADD18C,0.00600*%
%ADD75C,0.00400*%
%ADD76C,0.01500*%
%ADD77C,0.00700*%
%ADD78O,0.08268X0.03937*%
%ADD79O,0.06299X0.03937*%
%ADD80C,0.02559*%
%ADD81C,0.01000*%
%ADD82C,0.01800*%
G04:AMPARAMS|DCode=83|XSize=60mil|YSize=30mil|CornerRadius=7.5mil|HoleSize=0mil|Usage=FLASHONLY|Rotation=90.000|XOffset=0mil|YOffset=0mil|HoleType=Round|Shape=RoundedRectangle|*
%AMROUNDEDRECTD83*
21,1,0.06000,0.01500,0,0,90.0*
21,1,0.04500,0.03000,0,0,90.0*
1,1,0.01500,0.00750,0.02250*
1,1,0.01500,0.00750,-0.02250*
1,1,0.01500,-0.00750,-0.02250*
1,1,0.01500,-0.00750,0.02250*
%
%ADD83ROUNDEDRECTD83*%
G04:AMPARAMS|DCode=84|XSize=60mil|YSize=100mil|CornerRadius=15mil|HoleSize=0mil|Usage=FLASHONLY|Rotation=0.000|XOffset=0mil|YOffset=0mil|HoleType=Round|Shape=RoundedRectangle|*
%AMROUNDEDRECTD84*
21,1,0.06000,0.07000,0,0,0.0*
21,1,0.03000,0.10000,0,0,0.0*
1,1,0.03000,0.01500,-0.03500*
1,1,0.03000,-0.01500,-0.03500*
1,1,0.03000,-0.01500,0.03500*
1,1,0.03000,0.01500,0.03500*
%
%ADD84ROUNDEDRECTD84*%
G04:AMPARAMS|DCode=85|XSize=100mil|YSize=60mil|CornerRadius=15mil|HoleSize=0mil|Usage=FLASHONLY|Rotation=90.000|XOffset=0mil|YOffset=0mil|HoleType=Round|Shape=RoundedRectangle|*
%AMROUNDEDRECTD85*
21,1,0.10000,0.03000,0,0,90.0*
21,1,0.07000,0.06000,0,0,90.0*
1,1,0.03000,0.01500,0.03500*
1,1,0.03000,0.01500,-0.03500*
1,1,0.03000,-0.01500,-0.03500*
1,1,0.03000,-0.01500,0.03500*
%
%ADD85ROUNDEDRECTD85*%
G04:AMPARAMS|DCode=86|XSize=60mil|YSize=60mil|CornerRadius=15mil|HoleSize=0mil|Usage=FLASHONLY|Rotation=0.000|XOffset=0mil|YOffset=0mil|HoleType=Round|Shape=RoundedRectangle|*
%AMROUNDEDRECTD86*
21,1,0.06000,0.03000,0,0,0.0*
21,1,0.03000,0.06000,0,0,0.0*
1,1,0.03000,0.01500,-0.01500*
1,1,0.03000,-0.01500,-0.01500*
1,1,0.03000,-0.01500,0.01500*
1,1,0.03000,0.01500,0.01500*
%
%ADD86ROUNDEDRECTD86*%
%ADD87C,0.02000*%
G36*
X134491Y99600D02*
X134400Y99598D01*
X134313Y99590D01*
X134229Y99576D01*
X134148Y99555D01*
X134070Y99529D01*
X133995Y99496D01*
X133924Y99458D01*
X133856Y99413D01*
X133792Y99363D01*
X133730Y99306D01*
X133306Y99730D01*
X133363Y99792D01*
X133413Y99856D01*
X133458Y99924D01*
X133496Y99995D01*
X133529Y100070D01*
X133555Y100147D01*
X133575Y100229D01*
X133590Y100313D01*
X133598Y100400D01*
X133600Y100491D01*
X134491Y99600D01*
D02*
G37*
G36*
X113105Y96528D02*
X113083Y96491D01*
X113064Y96446D01*
X113047Y96393D01*
X113032Y96332D01*
X113021Y96264D01*
X113005Y96103D01*
X113001Y96011D01*
X113000Y95912D01*
X112000D01*
X111999Y96011D01*
X111979Y96264D01*
X111968Y96332D01*
X111953Y96393D01*
X111936Y96446D01*
X111917Y96491D01*
X111895Y96528D01*
X111870Y96557D01*
X113130D01*
X113105Y96528D01*
D02*
G37*
G36*
X142000Y91120D02*
X123000D01*
X122610Y91042D01*
X122279Y90821D01*
X118478Y87020D01*
X116239D01*
X116041Y87251D01*
X116168Y87457D01*
X116394Y87574D01*
X116400Y87573D01*
X116946Y87681D01*
X117409Y87991D01*
X117719Y88454D01*
X117815Y88938D01*
X117841Y88996D01*
X117843Y89068D01*
X117847Y89117D01*
X117855Y89160D01*
X117864Y89200D01*
X117876Y89235D01*
X117891Y89267D01*
X117907Y89298D01*
X117927Y89328D01*
X117950Y89357D01*
X117991Y89403D01*
X118012Y89459D01*
X122138Y93584D01*
X128400D01*
X128400Y93584D01*
X128712Y93646D01*
X128977Y93823D01*
X134041Y98888D01*
X134098Y98909D01*
X134143Y98950D01*
X134172Y98973D01*
X134202Y98993D01*
X134233Y99010D01*
X134265Y99024D01*
X134300Y99036D01*
X134340Y99045D01*
X134383Y99053D01*
X134432Y99057D01*
X134504Y99059D01*
X134562Y99085D01*
X135046Y99181D01*
X135509Y99491D01*
X135819Y99954D01*
X135927Y100500D01*
X135819Y101046D01*
X135529Y101480D01*
X135562Y101637D01*
X135704Y101980D01*
X142000D01*
Y91120D01*
D02*
G37*
G36*
X117594Y89770D02*
X117537Y89708D01*
X117487Y89644D01*
X117442Y89576D01*
X117404Y89505D01*
X117371Y89430D01*
X117345Y89353D01*
X117324Y89271D01*
X117310Y89187D01*
X117302Y89100D01*
X117300Y89009D01*
X116409Y89900D01*
X116500Y89902D01*
X116587Y89910D01*
X116672Y89925D01*
X116753Y89945D01*
X116830Y89971D01*
X116905Y90004D01*
X116976Y90042D01*
X117044Y90087D01*
X117108Y90137D01*
X117170Y90194D01*
X117594Y89770D01*
D02*
G37*
G36*
X133438Y101637D02*
X133471Y101480D01*
X133181Y101046D01*
X133085Y100562D01*
X133059Y100504D01*
X133057Y100432D01*
X133053Y100383D01*
X133045Y100340D01*
X133036Y100301D01*
X133024Y100265D01*
X133009Y100233D01*
X132993Y100202D01*
X132973Y100172D01*
X132950Y100143D01*
X132908Y100098D01*
X132888Y100041D01*
X128062Y95216D01*
X121800D01*
X121488Y95154D01*
X121223Y94977D01*
X121223Y94977D01*
X116859Y90612D01*
X116803Y90592D01*
X116757Y90550D01*
X116728Y90527D01*
X116698Y90507D01*
X116667Y90491D01*
X116635Y90476D01*
X116600Y90464D01*
X116560Y90455D01*
X116517Y90447D01*
X116468Y90443D01*
X116396Y90441D01*
X116338Y90415D01*
X115854Y90319D01*
X115391Y90009D01*
X115081Y89546D01*
X114973Y89000D01*
X114974Y88994D01*
X114572Y88452D01*
X114444Y88439D01*
X113520Y89364D01*
Y95854D01*
X113541Y95905D01*
X113542Y95996D01*
X113545Y96065D01*
X113558Y96192D01*
X113563Y96224D01*
X113569Y96248D01*
X113569Y96249D01*
X113571Y96251D01*
X113571Y96256D01*
X113580Y96276D01*
X113580Y96297D01*
X113819Y96654D01*
X113927Y97200D01*
X113819Y97746D01*
X113509Y98209D01*
X113046Y98519D01*
X112500Y98627D01*
X111954Y98519D01*
X111491Y98209D01*
X111181Y97746D01*
X111073Y97200D01*
X111181Y96654D01*
X111420Y96297D01*
X111420Y96276D01*
X111429Y96256D01*
X111429Y96251D01*
X111431Y96249D01*
X111431Y96248D01*
X111437Y96224D01*
X111442Y96197D01*
X111458Y95987D01*
X111459Y95905D01*
X111480Y95854D01*
Y88942D01*
X111558Y88552D01*
X111779Y88221D01*
X114721Y85279D01*
X115052Y85058D01*
X115442Y84980D01*
X118900D01*
X119290Y85058D01*
X119621Y85279D01*
X123422Y89080D01*
X126774D01*
X126965Y88618D01*
X116123Y77777D01*
X115946Y77512D01*
X115884Y77200D01*
X115884Y77200D01*
Y70164D01*
X115859Y70110D01*
X115857Y70048D01*
X115852Y70011D01*
X115845Y69977D01*
X115835Y69943D01*
X115822Y69910D01*
X115806Y69876D01*
X115785Y69842D01*
X115759Y69806D01*
X115728Y69768D01*
X115679Y69716D01*
X115655Y69656D01*
X115381Y69246D01*
X115273Y68700D01*
X115334Y68391D01*
X115141Y68009D01*
X114961Y67900D01*
X114554Y67819D01*
X114091Y67509D01*
X113781Y67046D01*
X113673Y66500D01*
X113781Y65954D01*
X114091Y65491D01*
X114554Y65181D01*
X115100Y65073D01*
X115646Y65181D01*
X116057Y65455D01*
X116116Y65478D01*
X116168Y65528D01*
X116206Y65559D01*
X116242Y65585D01*
X116277Y65606D01*
X116310Y65622D01*
X116343Y65635D01*
X116376Y65645D01*
X116411Y65652D01*
X116448Y65657D01*
X116510Y65659D01*
X116564Y65684D01*
X118400D01*
X118400Y65684D01*
X118712Y65746D01*
X118977Y65923D01*
X120277Y67223D01*
X120277Y67223D01*
X120454Y67488D01*
X120516Y67800D01*
X120516Y67800D01*
Y77162D01*
X130238Y86884D01*
X133941D01*
X134028Y86822D01*
X134196Y86542D01*
X134198Y86384D01*
X134100Y86320D01*
X132400D01*
X132010Y86242D01*
X131679Y86021D01*
X123479Y77821D01*
X123258Y77490D01*
X123180Y77100D01*
Y66738D01*
X119762Y63320D01*
X111422D01*
X108120Y66622D01*
Y67200D01*
X108042Y67590D01*
X107821Y67921D01*
X104521Y71221D01*
X104190Y71442D01*
X103800Y71520D01*
X100400D01*
X100010Y71442D01*
X99679Y71221D01*
X98579Y70121D01*
X98358Y69790D01*
X98280Y69400D01*
Y66100D01*
X98358Y65710D01*
X98579Y65379D01*
X100879Y63079D01*
X101210Y62858D01*
X101600Y62780D01*
X103078D01*
X105280Y60578D01*
Y59122D01*
X101878Y55720D01*
X100122D01*
X99772Y56069D01*
X99752Y56120D01*
X99688Y56186D01*
X99641Y56237D01*
X99561Y56335D01*
X99542Y56362D01*
X99529Y56383D01*
X99528Y56383D01*
X99528Y56386D01*
X99525Y56390D01*
X99517Y56410D01*
X99503Y56425D01*
X99419Y56846D01*
X99109Y57309D01*
X98646Y57619D01*
X98100Y57727D01*
X97554Y57619D01*
X97091Y57309D01*
X96781Y56846D01*
X96768Y56781D01*
X96226Y56616D01*
X92020Y60822D01*
Y70878D01*
X97122Y75980D01*
X103800D01*
X103850Y75959D01*
X103942Y75958D01*
X104011Y75955D01*
X104138Y75942D01*
X104170Y75937D01*
X104194Y75931D01*
X104194Y75931D01*
X104197Y75929D01*
X104201Y75929D01*
X104221Y75920D01*
X104242Y75920D01*
X104599Y75681D01*
X105146Y75573D01*
X105692Y75681D01*
X106155Y75991D01*
X106464Y76454D01*
X106573Y77000D01*
X106464Y77546D01*
X106155Y78009D01*
X105692Y78319D01*
X105146Y78427D01*
X104599Y78319D01*
X104242Y78080D01*
X104221Y78080D01*
X104201Y78071D01*
X104197Y78071D01*
X104194Y78069D01*
X104194Y78069D01*
X104170Y78063D01*
X104143Y78058D01*
X103933Y78042D01*
X103850Y78041D01*
X103800Y78020D01*
X96700D01*
X96310Y77942D01*
X95979Y77721D01*
X90520Y72262D01*
X90020Y72469D01*
Y73354D01*
X90041Y73405D01*
X90042Y73496D01*
X90045Y73566D01*
X90058Y73692D01*
X90063Y73724D01*
X90069Y73748D01*
X90069Y73749D01*
X90071Y73751D01*
X90071Y73756D01*
X90080Y73776D01*
X90080Y73797D01*
X90319Y74154D01*
X90427Y74700D01*
X90319Y75246D01*
X90009Y75709D01*
X89546Y76019D01*
X89000Y76127D01*
X88454Y76019D01*
X87991Y75709D01*
X87681Y75246D01*
X87573Y74700D01*
X87681Y74154D01*
X87920Y73797D01*
X87920Y73776D01*
X87929Y73756D01*
X87929Y73751D01*
X87931Y73749D01*
X87931Y73748D01*
X87937Y73724D01*
X87941Y73697D01*
X87958Y73487D01*
X87959Y73405D01*
X87980Y73354D01*
Y61186D01*
X87519Y60995D01*
X84873Y63641D01*
X84625Y63806D01*
X84332Y63865D01*
X61100D01*
X60807Y63806D01*
X60559Y63641D01*
X57310Y60391D01*
X57253Y60371D01*
X57215Y60336D01*
X57194Y60321D01*
X57170Y60306D01*
X57140Y60292D01*
X57105Y60278D01*
X57062Y60266D01*
X57012Y60255D01*
X56954Y60247D01*
X56888Y60243D01*
X56800Y60241D01*
X56742Y60216D01*
X56254Y60119D01*
X55791Y59809D01*
X55481Y59346D01*
X55373Y58800D01*
X55481Y58254D01*
X55791Y57791D01*
X56254Y57481D01*
X56800Y57373D01*
X57346Y57481D01*
X57809Y57791D01*
X58119Y58254D01*
X58216Y58742D01*
X58241Y58800D01*
X58243Y58888D01*
X58248Y58954D01*
X58255Y59012D01*
X58266Y59062D01*
X58278Y59105D01*
X58292Y59140D01*
X58306Y59170D01*
X58321Y59194D01*
X58336Y59215D01*
X58371Y59253D01*
X58391Y59310D01*
X61417Y62335D01*
X65778D01*
X65930Y61835D01*
X65891Y61809D01*
X65581Y61346D01*
X65473Y60800D01*
X65581Y60254D01*
X65891Y59791D01*
X66354Y59481D01*
X66842Y59384D01*
X66900Y59359D01*
X66988Y59357D01*
X67054Y59352D01*
X67112Y59345D01*
X67162Y59334D01*
X67205Y59322D01*
X67240Y59308D01*
X67269Y59294D01*
X67294Y59279D01*
X67315Y59264D01*
X67353Y59229D01*
X67410Y59209D01*
X68059Y58559D01*
X68307Y58394D01*
X68600Y58335D01*
X86601D01*
X87424Y57513D01*
X87361Y57265D01*
X87218Y57011D01*
X86754Y56919D01*
X86291Y56609D01*
X85981Y56146D01*
X85954Y56011D01*
X85899Y55937D01*
X85881Y55865D01*
X85836Y55733D01*
X85816Y55686D01*
X85792Y55636D01*
X85767Y55591D01*
X85740Y55549D01*
X85711Y55510D01*
X85681Y55474D01*
X85638Y55427D01*
X85616Y55370D01*
X84462Y54216D01*
X58064D01*
X58010Y54241D01*
X57948Y54243D01*
X57911Y54248D01*
X57876Y54255D01*
X57843Y54265D01*
X57810Y54278D01*
X57776Y54294D01*
X57742Y54315D01*
X57706Y54341D01*
X57668Y54372D01*
X57616Y54422D01*
X57556Y54445D01*
X57146Y54719D01*
X56662Y54815D01*
X56604Y54841D01*
X56532Y54843D01*
X56483Y54847D01*
X56440Y54855D01*
X56401Y54864D01*
X56365Y54876D01*
X56333Y54891D01*
X56302Y54907D01*
X56272Y54927D01*
X56247Y54947D01*
X56227Y54972D01*
X56207Y55002D01*
X56191Y55033D01*
X56176Y55065D01*
X56164Y55101D01*
X56155Y55140D01*
X56147Y55183D01*
X56143Y55232D01*
X56141Y55304D01*
X56115Y55362D01*
X56019Y55846D01*
X55709Y56309D01*
X55246Y56619D01*
X54700Y56727D01*
X54154Y56619D01*
X53691Y56309D01*
X53381Y55846D01*
X53273Y55300D01*
X53381Y54754D01*
X53691Y54291D01*
X54154Y53981D01*
X54638Y53885D01*
X54696Y53859D01*
X54768Y53857D01*
X54817Y53853D01*
X54860Y53845D01*
X54900Y53836D01*
X54935Y53824D01*
X54967Y53809D01*
X54998Y53793D01*
X55028Y53773D01*
X55053Y53753D01*
X55073Y53728D01*
X55093Y53698D01*
X55110Y53667D01*
X55124Y53635D01*
X55136Y53600D01*
X55145Y53560D01*
X55153Y53517D01*
X55157Y53468D01*
X55159Y53396D01*
X55185Y53338D01*
X55281Y52854D01*
X55591Y52391D01*
X56054Y52081D01*
X56600Y51973D01*
X57146Y52081D01*
X57556Y52355D01*
X57616Y52378D01*
X57668Y52428D01*
X57706Y52459D01*
X57742Y52485D01*
X57777Y52506D01*
X57810Y52522D01*
X57843Y52535D01*
X57876Y52545D01*
X57911Y52552D01*
X57948Y52557D01*
X58010Y52559D01*
X58064Y52584D01*
X84800D01*
X84800Y52584D01*
X85112Y52646D01*
X85377Y52823D01*
X86608Y54054D01*
X86621Y54056D01*
X86657Y54103D01*
X86657Y54103D01*
X86713Y54124D01*
X86757Y54165D01*
X86781Y54183D01*
X86801Y54195D01*
X86817Y54203D01*
X86832Y54208D01*
X86846Y54211D01*
X86863Y54212D01*
X86884Y54212D01*
X86912Y54209D01*
X86970Y54198D01*
X87074Y54217D01*
X87300Y54173D01*
X87846Y54281D01*
X88309Y54591D01*
X88619Y55054D01*
X88711Y55518D01*
X88965Y55661D01*
X89213Y55724D01*
X91235Y53701D01*
Y52986D01*
X91210Y52931D01*
X91207Y52880D01*
X91203Y52854D01*
X91196Y52826D01*
X91186Y52795D01*
X91170Y52761D01*
X91149Y52722D01*
X91121Y52679D01*
X91085Y52633D01*
X91042Y52582D01*
X90981Y52519D01*
X90958Y52460D01*
X90681Y52046D01*
X90573Y51500D01*
X90681Y50954D01*
X90991Y50491D01*
X91309Y50278D01*
X91329Y50216D01*
Y49784D01*
X91309Y49722D01*
X90991Y49509D01*
X90681Y49046D01*
X90573Y48500D01*
X90681Y47954D01*
X90991Y47491D01*
X91454Y47181D01*
X92000Y47073D01*
X92546Y47181D01*
X93009Y47491D01*
X93319Y47954D01*
X93416Y48442D01*
X93441Y48500D01*
X93443Y48588D01*
X93448Y48654D01*
X93455Y48712D01*
X93466Y48762D01*
X93478Y48805D01*
X93492Y48840D01*
X93506Y48869D01*
X93521Y48894D01*
X93536Y48915D01*
X93571Y48953D01*
X93591Y49010D01*
X94280Y49699D01*
X94325Y49698D01*
X94780Y49542D01*
Y38153D01*
X94729Y38102D01*
X94616Y37997D01*
X94528Y37924D01*
X94505Y37907D01*
X94492Y37899D01*
X94485Y37896D01*
X94483Y37893D01*
X94469Y37885D01*
X94446Y37857D01*
X94254Y37819D01*
X93791Y37509D01*
X93481Y37046D01*
X93373Y36500D01*
X93469Y36017D01*
X93402Y35806D01*
X93248Y35517D01*
X78450D01*
X78118Y35451D01*
X77837Y35263D01*
X76805Y34231D01*
X76750Y34210D01*
X76699Y34162D01*
X76662Y34132D01*
X76627Y34107D01*
X76594Y34087D01*
X76563Y34072D01*
X76534Y34061D01*
X76506Y34052D01*
X76477Y34046D01*
X76447Y34043D01*
X76392Y34041D01*
X76332Y34014D01*
X75854Y33919D01*
X75391Y33609D01*
X75081Y33146D01*
X74973Y32600D01*
X74995Y32487D01*
X74545Y32186D01*
X74346Y32319D01*
X73800Y32427D01*
X73254Y32319D01*
X72791Y32009D01*
X72481Y31546D01*
X72373Y31000D01*
X72481Y30454D01*
X72760Y30037D01*
X72783Y29979D01*
X72856Y29905D01*
X72911Y29843D01*
X72956Y29786D01*
X72992Y29735D01*
X73019Y29691D01*
X73037Y29654D01*
X73049Y29624D01*
X73055Y29603D01*
X73057Y29590D01*
X73060Y29550D01*
X73086Y29495D01*
Y28500D01*
X73141Y28227D01*
X73295Y27995D01*
X76995Y24295D01*
X77227Y24141D01*
X77500Y24086D01*
X81195D01*
X81250Y24060D01*
X81290Y24057D01*
X81304Y24055D01*
X81324Y24049D01*
X81353Y24037D01*
X81391Y24019D01*
X81435Y23992D01*
X81480Y23960D01*
X81610Y23851D01*
X81679Y23783D01*
X81737Y23760D01*
X82154Y23481D01*
X82700Y23373D01*
X83246Y23481D01*
X83709Y23791D01*
X84019Y24254D01*
X84127Y24800D01*
X84019Y25346D01*
X83865Y25576D01*
X84058Y26063D01*
X84207Y26093D01*
X84466Y26081D01*
X85484Y25062D01*
Y24038D01*
X82662Y21216D01*
X80264D01*
X80210Y21241D01*
X80148Y21243D01*
X80111Y21248D01*
X80076Y21255D01*
X80043Y21265D01*
X80010Y21278D01*
X79976Y21294D01*
X79942Y21315D01*
X79906Y21341D01*
X79868Y21372D01*
X79816Y21421D01*
X79756Y21445D01*
X79346Y21719D01*
X78800Y21827D01*
X78254Y21719D01*
X77791Y21409D01*
X77481Y20946D01*
X77373Y20400D01*
X77481Y19854D01*
X77640Y19616D01*
X77373Y19116D01*
X75596D01*
X75270Y19441D01*
X75250Y19498D01*
X75208Y19543D01*
X75185Y19572D01*
X75165Y19602D01*
X75149Y19633D01*
X75135Y19665D01*
X75123Y19701D01*
X75113Y19740D01*
X75106Y19783D01*
X75101Y19832D01*
X75099Y19904D01*
X75073Y19962D01*
X74977Y20446D01*
X74668Y20909D01*
X74204Y21219D01*
X73658Y21327D01*
X73112Y21219D01*
X72649Y20909D01*
X72339Y20446D01*
X72231Y19900D01*
X72339Y19354D01*
X72649Y18891D01*
X73112Y18581D01*
X73596Y18485D01*
X73655Y18459D01*
X73726Y18457D01*
X73775Y18453D01*
X73819Y18445D01*
X73858Y18436D01*
X73893Y18424D01*
X73926Y18409D01*
X73956Y18393D01*
X73986Y18373D01*
X74016Y18350D01*
X74061Y18308D01*
X74117Y18288D01*
X74682Y17723D01*
X74682Y17723D01*
X74946Y17546D01*
X75081Y17520D01*
X75032Y17020D01*
X63000D01*
X63000Y17020D01*
Y17025D01*
X62230Y17126D01*
X61512Y17423D01*
X60896Y17896D01*
X60423Y18512D01*
X60126Y19230D01*
X60024Y20000D01*
X60020D01*
Y36700D01*
X60043D01*
X59871Y38005D01*
X59368Y39222D01*
X58566Y40266D01*
X57522Y41067D01*
X56305Y41571D01*
X55000Y41743D01*
Y41720D01*
X38020D01*
Y80480D01*
X55000D01*
Y80457D01*
X56305Y80629D01*
X57522Y81133D01*
X58566Y81934D01*
X59368Y82978D01*
X59871Y84195D01*
X60043Y85500D01*
X60020D01*
Y99000D01*
X60024D01*
X60126Y99770D01*
X60423Y100488D01*
X60896Y101104D01*
X61512Y101577D01*
X62230Y101874D01*
X63000Y101976D01*
Y101980D01*
X133296D01*
X133438Y101637D01*
D02*
G37*
G36*
X134857Y84670D02*
X134828Y84695D01*
X134791Y84717D01*
X134746Y84736D01*
X134693Y84753D01*
X134632Y84768D01*
X134564Y84779D01*
X134403Y84795D01*
X134311Y84799D01*
X134212Y84800D01*
Y85800D01*
X134311Y85801D01*
X134564Y85821D01*
X134632Y85833D01*
X134693Y85847D01*
X134746Y85864D01*
X134791Y85883D01*
X134828Y85905D01*
X134857Y85930D01*
Y84670D01*
D02*
G37*
G36*
X165773Y77980D02*
Y76523D01*
X165311Y76331D01*
X157821Y83821D01*
X157490Y84042D01*
X157100Y84120D01*
X147000D01*
X146610Y84042D01*
X146279Y83821D01*
X143178Y80720D01*
X130672D01*
X130282Y80642D01*
X129952Y80421D01*
X125967Y76436D01*
X125436Y76613D01*
X125400Y76858D01*
X132822Y84280D01*
X134154D01*
X134205Y84259D01*
X134296Y84258D01*
X134365Y84255D01*
X134492Y84242D01*
X134524Y84237D01*
X134548Y84231D01*
X134549Y84231D01*
X134552Y84229D01*
X134556Y84229D01*
X134576Y84220D01*
X134597Y84220D01*
X134954Y83981D01*
X135500Y83873D01*
X136046Y83981D01*
X136509Y84291D01*
X136819Y84754D01*
X136927Y85300D01*
X136819Y85846D01*
X136509Y86309D01*
X136397Y86384D01*
X136549Y86884D01*
X156868D01*
X165773Y77980D01*
D02*
G37*
G36*
X155257Y79970D02*
X155174Y80052D01*
X155010Y80189D01*
X154931Y80245D01*
X154853Y80292D01*
X154776Y80331D01*
X154701Y80361D01*
X154627Y80383D01*
X154554Y80396D01*
X154482Y80400D01*
Y80800D01*
X154554Y80804D01*
X154627Y80817D01*
X154701Y80839D01*
X154776Y80869D01*
X154853Y80907D01*
X154931Y80955D01*
X155010Y81011D01*
X155091Y81075D01*
X155174Y81148D01*
X155257Y81230D01*
Y79970D01*
D02*
G37*
G36*
X170514Y78495D02*
X170706Y78330D01*
X170763Y78290D01*
X170816Y78257D01*
X170865Y78232D01*
X170911Y78214D01*
X170953Y78203D01*
X170991Y78200D01*
X170100Y77309D01*
X170097Y77347D01*
X170086Y77389D01*
X170068Y77435D01*
X170043Y77484D01*
X170010Y77537D01*
X169970Y77594D01*
X169867Y77718D01*
X169805Y77786D01*
X169736Y77857D01*
X170443Y78565D01*
X170514Y78495D01*
D02*
G37*
G36*
X104503Y76370D02*
X104474Y76395D01*
X104436Y76417D01*
X104391Y76436D01*
X104339Y76453D01*
X104278Y76468D01*
X104209Y76479D01*
X104049Y76495D01*
X103957Y76499D01*
X103857Y76500D01*
Y77500D01*
X103957Y77501D01*
X104209Y77521D01*
X104278Y77533D01*
X104339Y77547D01*
X104391Y77564D01*
X104436Y77583D01*
X104474Y77605D01*
X104503Y77630D01*
Y76370D01*
D02*
G37*
G36*
X178480Y74220D02*
X177980Y74068D01*
X177742Y74425D01*
X177080Y74867D01*
X176300Y75023D01*
X173300D01*
X172520Y74867D01*
X171858Y74425D01*
X171416Y73764D01*
X171261Y72983D01*
Y72299D01*
X170255D01*
X168616Y73938D01*
Y77288D01*
X169116Y77583D01*
X169348Y77480D01*
X169412Y77414D01*
X169459Y77363D01*
X169539Y77265D01*
X169558Y77238D01*
X169571Y77217D01*
X169571Y77217D01*
X169572Y77214D01*
X169575Y77210D01*
X169583Y77190D01*
X169597Y77175D01*
X169681Y76754D01*
X169991Y76291D01*
X170454Y75981D01*
X171000Y75873D01*
X171546Y75981D01*
X172009Y76291D01*
X172319Y76754D01*
X172427Y77300D01*
X172319Y77846D01*
X172009Y78309D01*
X171546Y78619D01*
X171125Y78703D01*
X171110Y78717D01*
X171090Y78725D01*
X171086Y78728D01*
X171083Y78728D01*
X171083Y78729D01*
X171062Y78742D01*
X171039Y78758D01*
X170879Y78895D01*
X170820Y78952D01*
X170770Y78972D01*
X161204Y88538D01*
X161395Y89000D01*
X178480D01*
Y74220D01*
D02*
G37*
G36*
X140953Y75581D02*
X140961Y75495D01*
X140975Y75414D01*
X140995Y75336D01*
X141020Y75262D01*
X141051Y75191D01*
X141087Y75123D01*
X141129Y75060D01*
X141177Y74999D01*
X141230Y74943D01*
X139970D01*
X140023Y74999D01*
X140071Y75060D01*
X140113Y75123D01*
X140149Y75191D01*
X140180Y75262D01*
X140205Y75336D01*
X140225Y75414D01*
X140239Y75495D01*
X140247Y75581D01*
X140250Y75669D01*
X140950D01*
X140953Y75581D01*
D02*
G37*
G36*
X152021Y75596D02*
X151964Y75535D01*
X151913Y75471D01*
X151869Y75403D01*
X151830Y75331D01*
X151798Y75257D01*
X151772Y75179D01*
X151751Y75098D01*
X151737Y75014D01*
X151729Y74927D01*
X151727Y74836D01*
X150836Y75727D01*
X150926Y75729D01*
X151014Y75737D01*
X151098Y75751D01*
X151179Y75772D01*
X151257Y75798D01*
X151331Y75830D01*
X151403Y75869D01*
X151470Y75913D01*
X151535Y75964D01*
X151596Y76021D01*
X152021Y75596D01*
D02*
G37*
G36*
X137141Y75545D02*
X137189Y75507D01*
X137312Y75422D01*
X137470Y75328D01*
X137772Y75169D01*
X137890Y75111D01*
X136711Y74732D01*
X136753Y74818D01*
X136785Y74901D01*
X136806Y74980D01*
X136817Y75057D01*
X136817Y75131D01*
X136807Y75202D01*
X136786Y75270D01*
X136755Y75335D01*
X136713Y75397D01*
X136660Y75457D01*
X137101Y75582D01*
X137141Y75545D01*
D02*
G37*
G36*
X132240Y75157D02*
X132187Y75098D01*
X132145Y75035D01*
X132114Y74970D01*
X132093Y74902D01*
X132083Y74831D01*
X132083Y74757D01*
X132094Y74680D01*
X132115Y74601D01*
X132147Y74518D01*
X132189Y74432D01*
X131010Y74811D01*
X131128Y74869D01*
X131654Y75165D01*
X131711Y75207D01*
X131799Y75282D01*
X132240Y75157D01*
D02*
G37*
G36*
X131600Y74530D02*
X131618Y74241D01*
X131624Y74215D01*
X131631Y74196D01*
X131638Y74183D01*
X131162D01*
X131169Y74196D01*
X131176Y74215D01*
X131182Y74241D01*
X131186Y74273D01*
X131194Y74357D01*
X131200Y74530D01*
X131200Y74600D01*
X131600D01*
X131600Y74530D01*
D02*
G37*
G36*
X89605Y74028D02*
X89583Y73991D01*
X89564Y73946D01*
X89547Y73893D01*
X89533Y73832D01*
X89521Y73764D01*
X89505Y73603D01*
X89501Y73511D01*
X89500Y73412D01*
X88500D01*
X88499Y73511D01*
X88479Y73764D01*
X88468Y73832D01*
X88453Y73893D01*
X88436Y73946D01*
X88417Y73991D01*
X88395Y74028D01*
X88370Y74057D01*
X89630D01*
X89605Y74028D01*
D02*
G37*
G36*
X143191Y72900D02*
X143074Y72899D01*
X142861Y72881D01*
X142766Y72864D01*
X142677Y72842D01*
X142595Y72815D01*
X142521Y72783D01*
X142453Y72746D01*
X142393Y72704D01*
X142339Y72656D01*
X142056Y72939D01*
X142104Y72993D01*
X142146Y73053D01*
X142183Y73121D01*
X142215Y73195D01*
X142242Y73277D01*
X142264Y73366D01*
X142281Y73462D01*
X142292Y73564D01*
X142299Y73674D01*
X142300Y73791D01*
X143191Y72900D01*
D02*
G37*
G36*
X131967Y73292D02*
X131911Y73224D01*
X131862Y73154D01*
X131819Y73083D01*
X131782Y73009D01*
X131753Y72934D01*
X131730Y72856D01*
X131713Y72776D01*
X131703Y72695D01*
X131700Y72611D01*
X131100D01*
X131097Y72695D01*
X131087Y72776D01*
X131070Y72856D01*
X131047Y72934D01*
X131017Y73009D01*
X130981Y73083D01*
X130938Y73154D01*
X130889Y73224D01*
X130833Y73292D01*
X130770Y73357D01*
X132030D01*
X131967Y73292D01*
D02*
G37*
G36*
X134448Y73274D02*
X134311Y73111D01*
X134255Y73031D01*
X134207Y72953D01*
X134169Y72876D01*
X134139Y72801D01*
X134117Y72727D01*
X134104Y72654D01*
X134100Y72583D01*
X133700D01*
X133696Y72654D01*
X133683Y72727D01*
X133661Y72801D01*
X133631Y72876D01*
X133592Y72953D01*
X133545Y73031D01*
X133489Y73111D01*
X133425Y73191D01*
X133352Y73274D01*
X133270Y73357D01*
X134530D01*
X134448Y73274D01*
D02*
G37*
G36*
X154802Y73500D02*
X154810Y73413D01*
X154824Y73329D01*
X154845Y73247D01*
X154871Y73170D01*
X154904Y73095D01*
X154942Y73024D01*
X154987Y72956D01*
X155037Y72892D01*
X155094Y72830D01*
X154670Y72406D01*
X154608Y72463D01*
X154544Y72513D01*
X154476Y72558D01*
X154405Y72596D01*
X154330Y72629D01*
X154253Y72655D01*
X154172Y72676D01*
X154087Y72690D01*
X154000Y72698D01*
X153909Y72700D01*
X154800Y73591D01*
X154802Y73500D01*
D02*
G37*
G36*
X158760Y71572D02*
X158694Y71635D01*
X158626Y71691D01*
X158557Y71741D01*
X158485Y71784D01*
X158411Y71820D01*
X158336Y71850D01*
X158258Y71873D01*
X158179Y71889D01*
X158097Y71899D01*
X158014Y71902D01*
Y72502D01*
X158097Y72506D01*
X158179Y72515D01*
X158258Y72532D01*
X158336Y72555D01*
X158411Y72585D01*
X158485Y72621D01*
X158557Y72664D01*
X158626Y72714D01*
X158694Y72770D01*
X158760Y72832D01*
Y71572D01*
D02*
G37*
G36*
X145744Y72261D02*
X145696Y72207D01*
X145654Y72147D01*
X145617Y72079D01*
X145585Y72005D01*
X145558Y71923D01*
X145536Y71834D01*
X145519Y71738D01*
X145508Y71636D01*
X145501Y71526D01*
X145500Y71409D01*
X144609Y72300D01*
X144726Y72301D01*
X144939Y72319D01*
X145034Y72336D01*
X145123Y72358D01*
X145205Y72385D01*
X145279Y72417D01*
X145347Y72454D01*
X145407Y72496D01*
X145461Y72544D01*
X145744Y72261D01*
D02*
G37*
G36*
X171811Y70883D02*
X171809Y70940D01*
X171802Y70991D01*
X171791Y71036D01*
X171776Y71075D01*
X171756Y71108D01*
X171731Y71135D01*
X171702Y71156D01*
X171669Y71171D01*
X171631Y71180D01*
X171589Y71183D01*
Y71783D01*
X171631Y71786D01*
X171669Y71795D01*
X171702Y71810D01*
X171731Y71831D01*
X171756Y71858D01*
X171776Y71891D01*
X171791Y71930D01*
X171802Y71975D01*
X171809Y72026D01*
X171811Y72083D01*
Y70883D01*
D02*
G37*
G36*
X154450Y79860D02*
X154490Y79857D01*
X154504Y79855D01*
X154524Y79849D01*
X154553Y79837D01*
X154591Y79819D01*
X154635Y79792D01*
X154680Y79760D01*
X154810Y79651D01*
X154879Y79583D01*
X154937Y79560D01*
X155006Y79514D01*
X154854Y79014D01*
X150000D01*
X149727Y78959D01*
X149495Y78805D01*
X147995Y77305D01*
X147841Y77073D01*
X147786Y76800D01*
Y72000D01*
X147841Y71727D01*
X147995Y71495D01*
X152895Y66595D01*
X153127Y66441D01*
X153400Y66386D01*
X156677D01*
X156950Y66161D01*
X156967Y66126D01*
X156999Y65886D01*
X156809Y65714D01*
X140796D01*
X134614Y71896D01*
Y72496D01*
X134640Y72550D01*
X134643Y72590D01*
X134645Y72603D01*
X134651Y72624D01*
X134663Y72654D01*
X134681Y72691D01*
X134708Y72735D01*
X134740Y72780D01*
X134827Y72821D01*
X135199Y72857D01*
X135274Y72846D01*
X135385Y72805D01*
X135386Y72804D01*
X136395Y71795D01*
X136627Y71641D01*
X136900Y71586D01*
X141700D01*
X141973Y71641D01*
X142205Y71795D01*
X142532Y72123D01*
X142883Y72141D01*
X143242Y71747D01*
X143173Y71400D01*
X143281Y70854D01*
X143591Y70391D01*
X144054Y70081D01*
X144600Y69973D01*
X145146Y70081D01*
X145609Y70391D01*
X145919Y70854D01*
X146017Y71345D01*
X146041Y71403D01*
X146042Y71507D01*
X146047Y71589D01*
X146055Y71662D01*
X146066Y71723D01*
X146078Y71773D01*
X146091Y71813D01*
X146104Y71842D01*
X146114Y71861D01*
X146122Y71872D01*
X146149Y71902D01*
X146168Y71959D01*
X147005Y72795D01*
X147159Y73027D01*
X147214Y73300D01*
Y77504D01*
X149596Y79886D01*
X154395D01*
X154450Y79860D01*
D02*
G37*
G36*
X154702Y70600D02*
X154710Y70513D01*
X154725Y70429D01*
X154745Y70347D01*
X154771Y70270D01*
X154804Y70195D01*
X154842Y70124D01*
X154887Y70056D01*
X154937Y69992D01*
X154994Y69930D01*
X154570Y69506D01*
X154508Y69563D01*
X154444Y69613D01*
X154376Y69658D01*
X154305Y69696D01*
X154230Y69729D01*
X154153Y69755D01*
X154071Y69775D01*
X153987Y69790D01*
X153900Y69798D01*
X153809Y69800D01*
X154700Y70691D01*
X154702Y70600D01*
D02*
G37*
G36*
X117003Y70005D02*
X117013Y69924D01*
X117030Y69844D01*
X117053Y69766D01*
X117083Y69691D01*
X117119Y69617D01*
X117162Y69546D01*
X117211Y69476D01*
X117267Y69408D01*
X117330Y69343D01*
X116070D01*
X116133Y69408D01*
X116189Y69476D01*
X116238Y69546D01*
X116281Y69617D01*
X116317Y69691D01*
X116347Y69766D01*
X116370Y69844D01*
X116387Y69924D01*
X116397Y70005D01*
X116400Y70088D01*
X117000D01*
X117003Y70005D01*
D02*
G37*
G36*
X158257Y68470D02*
X158192Y68533D01*
X158124Y68589D01*
X158054Y68638D01*
X157983Y68681D01*
X157909Y68717D01*
X157834Y68747D01*
X157756Y68770D01*
X157676Y68787D01*
X157595Y68797D01*
X157511Y68800D01*
Y69400D01*
X157595Y69403D01*
X157676Y69413D01*
X157756Y69430D01*
X157834Y69453D01*
X157909Y69482D01*
X157983Y69519D01*
X158054Y69562D01*
X158124Y69611D01*
X158192Y69667D01*
X158257Y69730D01*
Y68470D01*
D02*
G37*
G36*
X115808Y67067D02*
X115876Y67011D01*
X115946Y66962D01*
X116017Y66919D01*
X116091Y66882D01*
X116166Y66853D01*
X116244Y66830D01*
X116324Y66813D01*
X116405Y66803D01*
X116489Y66800D01*
Y66200D01*
X116405Y66197D01*
X116324Y66187D01*
X116244Y66170D01*
X116166Y66147D01*
X116091Y66118D01*
X116017Y66081D01*
X115946Y66038D01*
X115876Y65989D01*
X115808Y65933D01*
X115743Y65870D01*
Y67130D01*
X115808Y67067D01*
D02*
G37*
G36*
X167600Y66058D02*
X167608Y65931D01*
X167612Y65911D01*
X167616Y65894D01*
X167621Y65881D01*
X167627Y65873D01*
X167633Y65869D01*
X167167D01*
X167173Y65873D01*
X167179Y65881D01*
X167184Y65894D01*
X167188Y65911D01*
X167192Y65931D01*
X167195Y65957D01*
X167199Y66020D01*
X167200Y66100D01*
X167600D01*
X167600Y66058D01*
D02*
G37*
G36*
X103001Y67121D02*
X103011Y67087D01*
X103028Y67048D01*
X103054Y67004D01*
X103086Y66956D01*
X103127Y66903D01*
X103230Y66782D01*
X103312Y66698D01*
Y66700D01*
X103411Y66701D01*
X103664Y66721D01*
X103732Y66733D01*
X103793Y66747D01*
X103846Y66764D01*
X103891Y66783D01*
X103928Y66805D01*
X103957Y66830D01*
Y65570D01*
X103928Y65595D01*
X103891Y65617D01*
X103846Y65636D01*
X103793Y65653D01*
X103732Y65667D01*
X103664Y65679D01*
X103503Y65695D01*
X103411Y65699D01*
X103312Y65700D01*
Y66590D01*
X102657Y65935D01*
X102585Y66006D01*
X102344Y66214D01*
X102296Y66246D01*
X102252Y66272D01*
X102213Y66289D01*
X102179Y66299D01*
X102150Y66301D01*
X102999Y67150D01*
X103001Y67121D01*
D02*
G37*
G36*
X105503Y66153D02*
X105514Y66111D01*
X105532Y66065D01*
X105557Y66016D01*
X105590Y65963D01*
X105630Y65906D01*
X105733Y65782D01*
X105795Y65714D01*
X105865Y65643D01*
X105157Y64935D01*
X105086Y65005D01*
X104894Y65170D01*
X104837Y65210D01*
X104784Y65243D01*
X104735Y65268D01*
X104689Y65286D01*
X104647Y65297D01*
X104609Y65300D01*
X105500Y66191D01*
X105503Y66153D01*
D02*
G37*
G36*
X157757Y64370D02*
X157674Y64452D01*
X157510Y64589D01*
X157431Y64645D01*
X157353Y64692D01*
X157276Y64731D01*
X157201Y64761D01*
X157126Y64783D01*
X157054Y64796D01*
X156983Y64800D01*
Y65200D01*
X157054Y65204D01*
X157126Y65217D01*
X157201Y65239D01*
X157276Y65269D01*
X157353Y65307D01*
X157431Y65355D01*
X157510Y65411D01*
X157591Y65475D01*
X157674Y65548D01*
X157757Y65630D01*
Y64370D01*
D02*
G37*
G36*
X174443Y64485D02*
X174483Y64458D01*
X174527Y64434D01*
X174577Y64413D01*
X174632Y64395D01*
X174692Y64381D01*
X174757Y64370D01*
X174826Y64362D01*
X174981Y64355D01*
X173287Y64354D01*
X173368Y64355D01*
X173494Y64368D01*
X173539Y64380D01*
X173573Y64394D01*
X173594Y64412D01*
X173603Y64433D01*
X173601Y64458D01*
X173586Y64485D01*
X173560Y64516D01*
X174408D01*
X174443Y64485D01*
D02*
G37*
G36*
X129829Y73788D02*
X130045Y73635D01*
X130081Y73454D01*
X130355Y73044D01*
X130378Y72984D01*
X130428Y72932D01*
X130459Y72894D01*
X130485Y72858D01*
X130506Y72823D01*
X130522Y72790D01*
X130535Y72757D01*
X130545Y72724D01*
X130552Y72689D01*
X130557Y72652D01*
X130559Y72590D01*
X130584Y72536D01*
Y72300D01*
X130584Y72300D01*
X130646Y71988D01*
X130823Y71723D01*
X139923Y62623D01*
X139923Y62623D01*
X140188Y62446D01*
X140500Y62384D01*
X143136D01*
X143190Y62359D01*
X143252Y62357D01*
X143289Y62352D01*
X143324Y62345D01*
X143357Y62335D01*
X143390Y62322D01*
X143423Y62306D01*
X143458Y62285D01*
X143494Y62259D01*
X143532Y62228D01*
X143584Y62178D01*
X143643Y62155D01*
X144054Y61881D01*
X144600Y61773D01*
X145146Y61881D01*
X145609Y62191D01*
X145919Y62654D01*
X146027Y63200D01*
X145919Y63746D01*
X145892Y63786D01*
X146159Y64286D01*
X156895D01*
X156950Y64260D01*
X156990Y64257D01*
X157003Y64255D01*
X157024Y64249D01*
X157053Y64237D01*
X157091Y64219D01*
X157135Y64192D01*
X157180Y64160D01*
X157310Y64051D01*
X157379Y63983D01*
X157437Y63960D01*
X157854Y63681D01*
X158400Y63573D01*
X158595Y63611D01*
X158841Y63151D01*
X158504Y62814D01*
X153705D01*
X153650Y62840D01*
X153610Y62843D01*
X153596Y62845D01*
X153576Y62851D01*
X153547Y62863D01*
X153509Y62881D01*
X153465Y62908D01*
X153420Y62940D01*
X153290Y63049D01*
X153221Y63117D01*
X153163Y63140D01*
X152746Y63419D01*
X152200Y63527D01*
X151654Y63419D01*
X151191Y63109D01*
X150881Y62646D01*
X150773Y62100D01*
X150881Y61554D01*
X151191Y61091D01*
X151654Y60781D01*
X152200Y60673D01*
X152746Y60781D01*
X153163Y61060D01*
X153221Y61083D01*
X153295Y61156D01*
X153357Y61211D01*
X153414Y61256D01*
X153465Y61292D01*
X153509Y61319D01*
X153546Y61337D01*
X153576Y61349D01*
X153596Y61355D01*
X153610Y61357D01*
X153650Y61360D01*
X153705Y61386D01*
X158074D01*
X158342Y60886D01*
X158181Y60646D01*
X158083Y60155D01*
X158059Y60097D01*
X158058Y59993D01*
X158053Y59911D01*
X158045Y59838D01*
X158034Y59777D01*
X158022Y59727D01*
X158017Y59714D01*
X152005D01*
X151950Y59740D01*
X151910Y59743D01*
X151897Y59745D01*
X151876Y59751D01*
X151847Y59763D01*
X151809Y59781D01*
X151765Y59808D01*
X151720Y59840D01*
X151590Y59949D01*
X151521Y60017D01*
X151463Y60040D01*
X151046Y60319D01*
X150500Y60427D01*
X149954Y60319D01*
X149491Y60009D01*
X149181Y59546D01*
X149073Y59000D01*
X149181Y58454D01*
X149491Y57991D01*
X149954Y57681D01*
X150500Y57573D01*
X151046Y57681D01*
X151463Y57960D01*
X151521Y57983D01*
X151595Y58056D01*
X151657Y58111D01*
X151714Y58156D01*
X151765Y58192D01*
X151809Y58219D01*
X151846Y58237D01*
X151876Y58249D01*
X151897Y58255D01*
X151910Y58257D01*
X151950Y58260D01*
X152005Y58286D01*
X158400D01*
X158673Y58341D01*
X158905Y58495D01*
X158941Y58531D01*
X158998Y58551D01*
X159028Y58578D01*
X159039Y58586D01*
X159058Y58596D01*
X159087Y58609D01*
X159127Y58622D01*
X159177Y58634D01*
X159231Y58643D01*
X159400Y58658D01*
X159497Y58659D01*
X159555Y58684D01*
X160046Y58781D01*
X160509Y59091D01*
X160519Y59105D01*
X161196Y59218D01*
X161284Y59150D01*
Y51100D01*
X161284Y51100D01*
X161346Y50788D01*
X161523Y50523D01*
X164976Y47071D01*
X164997Y47014D01*
X165039Y46969D01*
X165062Y46940D01*
X165081Y46910D01*
X165098Y46879D01*
X165112Y46847D01*
X165124Y46811D01*
X165134Y46772D01*
X165141Y46729D01*
X165146Y46680D01*
X165147Y46608D01*
X165173Y46549D01*
X165269Y46066D01*
X165579Y45602D01*
X166042Y45293D01*
X166588Y45184D01*
X166592Y45185D01*
X166905Y44738D01*
X166831Y44616D01*
X164638D01*
X152677Y56577D01*
X152412Y56754D01*
X152100Y56816D01*
X152100Y56816D01*
X148638D01*
X147077Y58377D01*
X146812Y58554D01*
X146500Y58616D01*
X146500Y58616D01*
X125100D01*
X125100Y58616D01*
X124788Y58554D01*
X124669Y58474D01*
X124400Y58527D01*
X123854Y58419D01*
X123391Y58109D01*
X123081Y57646D01*
X122973Y57100D01*
X123081Y56554D01*
X123068Y56521D01*
X122554Y56419D01*
X122091Y56109D01*
X121781Y55646D01*
X121701Y55242D01*
X121522Y55034D01*
X121204Y54893D01*
X121100Y54914D01*
X119976D01*
X119785Y55376D01*
X129105Y64695D01*
X129259Y64927D01*
X129314Y65200D01*
Y73664D01*
X129509Y73854D01*
X129829Y73788D01*
D02*
G37*
G36*
X143957Y62570D02*
X143892Y62633D01*
X143824Y62689D01*
X143754Y62738D01*
X143683Y62781D01*
X143609Y62818D01*
X143534Y62847D01*
X143456Y62870D01*
X143376Y62887D01*
X143295Y62897D01*
X143211Y62900D01*
Y63500D01*
X143295Y63503D01*
X143376Y63513D01*
X143456Y63530D01*
X143534Y63553D01*
X143609Y63582D01*
X143683Y63619D01*
X143754Y63662D01*
X143824Y63711D01*
X143892Y63767D01*
X143957Y63830D01*
Y62570D01*
D02*
G37*
G36*
X152926Y62648D02*
X153089Y62511D01*
X153169Y62455D01*
X153247Y62407D01*
X153324Y62369D01*
X153399Y62339D01*
X153473Y62317D01*
X153546Y62304D01*
X153618Y62300D01*
Y61900D01*
X153546Y61896D01*
X153473Y61883D01*
X153399Y61861D01*
X153324Y61831D01*
X153247Y61792D01*
X153169Y61745D01*
X153089Y61689D01*
X153009Y61625D01*
X152926Y61552D01*
X152843Y61470D01*
Y62730D01*
X152926Y62648D01*
D02*
G37*
G36*
X67802Y60687D02*
X67809Y60588D01*
X67822Y60495D01*
X67841Y60406D01*
X67865Y60323D01*
X67895Y60245D01*
X67930Y60172D01*
X67971Y60104D01*
X68018Y60041D01*
X68070Y59984D01*
X67716Y59630D01*
X67659Y59682D01*
X67596Y59729D01*
X67528Y59770D01*
X67455Y59805D01*
X67377Y59835D01*
X67294Y59859D01*
X67205Y59878D01*
X67112Y59891D01*
X67013Y59898D01*
X66909Y59900D01*
X67800Y60791D01*
X67802Y60687D01*
D02*
G37*
G36*
X159491Y59200D02*
X159374Y59199D01*
X159161Y59181D01*
X159066Y59164D01*
X158977Y59142D01*
X158895Y59115D01*
X158821Y59083D01*
X158753Y59046D01*
X158693Y59004D01*
X158639Y58956D01*
X158356Y59239D01*
X158404Y59293D01*
X158446Y59353D01*
X158483Y59421D01*
X158515Y59495D01*
X158542Y59577D01*
X158564Y59666D01*
X158581Y59762D01*
X158592Y59864D01*
X158599Y59974D01*
X158600Y60091D01*
X159491Y59200D01*
D02*
G37*
G36*
X57970Y59616D02*
X57918Y59559D01*
X57871Y59496D01*
X57830Y59428D01*
X57795Y59355D01*
X57765Y59277D01*
X57741Y59194D01*
X57722Y59105D01*
X57709Y59012D01*
X57702Y58913D01*
X57700Y58809D01*
X56809Y59700D01*
X56913Y59702D01*
X57012Y59709D01*
X57105Y59722D01*
X57194Y59741D01*
X57277Y59765D01*
X57355Y59795D01*
X57428Y59830D01*
X57496Y59871D01*
X57559Y59918D01*
X57616Y59970D01*
X57970Y59616D01*
D02*
G37*
G36*
X151226Y59548D02*
X151390Y59411D01*
X151469Y59355D01*
X151547Y59307D01*
X151624Y59269D01*
X151699Y59239D01*
X151774Y59217D01*
X151846Y59204D01*
X151918Y59200D01*
Y58800D01*
X151846Y58796D01*
X151774Y58783D01*
X151699Y58761D01*
X151624Y58731D01*
X151547Y58693D01*
X151469Y58645D01*
X151390Y58589D01*
X151309Y58525D01*
X151226Y58452D01*
X151143Y58370D01*
Y59630D01*
X151226Y59548D01*
D02*
G37*
G36*
X111357Y55370D02*
X111328Y55395D01*
X111291Y55417D01*
X111246Y55436D01*
X111193Y55453D01*
X111132Y55467D01*
X111064Y55479D01*
X110903Y55495D01*
X110811Y55499D01*
X110712Y55500D01*
Y56500D01*
X110811Y56501D01*
X111064Y56521D01*
X111132Y56533D01*
X111193Y56547D01*
X111246Y56564D01*
X111291Y56583D01*
X111328Y56605D01*
X111357Y56630D01*
Y55370D01*
D02*
G37*
G36*
X99003Y56253D02*
X99014Y56211D01*
X99032Y56165D01*
X99057Y56116D01*
X99090Y56063D01*
X99130Y56006D01*
X99233Y55882D01*
X99295Y55814D01*
X99365Y55743D01*
X98657Y55036D01*
X98586Y55105D01*
X98394Y55270D01*
X98337Y55310D01*
X98284Y55343D01*
X98235Y55368D01*
X98189Y55386D01*
X98147Y55397D01*
X98109Y55400D01*
X99000Y56291D01*
X99003Y56253D01*
D02*
G37*
G36*
X116491Y55100D02*
X116400Y55098D01*
X116313Y55090D01*
X116228Y55076D01*
X116147Y55055D01*
X116070Y55029D01*
X115995Y54996D01*
X115924Y54958D01*
X115856Y54913D01*
X115792Y54863D01*
X115730Y54806D01*
X115306Y55230D01*
X115363Y55292D01*
X115413Y55356D01*
X115458Y55424D01*
X115496Y55495D01*
X115529Y55570D01*
X115555Y55647D01*
X115576Y55729D01*
X115590Y55813D01*
X115598Y55900D01*
X115600Y55991D01*
X116491Y55100D01*
D02*
G37*
G36*
X87079Y54728D02*
X86996Y54745D01*
X86915Y54753D01*
X86836Y54754D01*
X86760Y54746D01*
X86686Y54730D01*
X86614Y54705D01*
X86544Y54672D01*
X86476Y54631D01*
X86410Y54581D01*
X86347Y54523D01*
X86033Y55057D01*
X86088Y55115D01*
X86139Y55177D01*
X86187Y55243D01*
X86231Y55312D01*
X86272Y55385D01*
X86309Y55462D01*
X86343Y55542D01*
X86400Y55712D01*
X86423Y55803D01*
X87079Y54728D01*
D02*
G37*
G36*
X167667Y54992D02*
X167611Y54924D01*
X167562Y54854D01*
X167519Y54783D01*
X167482Y54709D01*
X167453Y54633D01*
X167430Y54556D01*
X167413Y54476D01*
X167403Y54395D01*
X167400Y54312D01*
X166800D01*
X166797Y54395D01*
X166787Y54476D01*
X166770Y54556D01*
X166747Y54633D01*
X166718Y54709D01*
X166681Y54783D01*
X166638Y54854D01*
X166589Y54924D01*
X166533Y54992D01*
X166470Y55057D01*
X167730D01*
X167667Y54992D01*
D02*
G37*
G36*
X172205Y65142D02*
X172142Y64498D01*
X171858Y64309D01*
X171416Y63647D01*
X171261Y62867D01*
Y59867D01*
X171416Y59086D01*
X171858Y58425D01*
X172520Y57983D01*
X173300Y57828D01*
X176300D01*
X177080Y57983D01*
X177742Y58425D01*
X177980Y58782D01*
X178480Y58630D01*
Y53987D01*
X177980Y53835D01*
X177742Y54192D01*
X177080Y54634D01*
X176300Y54789D01*
X173300D01*
X172520Y54634D01*
X171858Y54192D01*
X171416Y53530D01*
X171261Y52750D01*
Y52115D01*
X170761Y52066D01*
X170759Y52073D01*
X170605Y52305D01*
X170468Y52441D01*
X170449Y52498D01*
X170422Y52528D01*
X170414Y52539D01*
X170404Y52558D01*
X170391Y52587D01*
X170378Y52627D01*
X170366Y52677D01*
X170357Y52731D01*
X170342Y52900D01*
X170341Y52997D01*
X170317Y53055D01*
X170219Y53546D01*
X169909Y54009D01*
X169446Y54319D01*
X168900Y54427D01*
X168486Y54345D01*
X168280Y54536D01*
X168174Y54685D01*
X168145Y54743D01*
X168419Y55154D01*
X168527Y55700D01*
X168419Y56246D01*
X168109Y56709D01*
X167646Y57019D01*
X167100Y57127D01*
X166554Y57019D01*
X166091Y56709D01*
X165920Y56453D01*
X165420Y56605D01*
Y57278D01*
X170421Y62279D01*
X170642Y62610D01*
X170720Y63000D01*
Y65974D01*
X171181Y66165D01*
X172205Y65142D01*
D02*
G37*
G36*
X123648Y54374D02*
X123511Y54211D01*
X123455Y54131D01*
X123407Y54053D01*
X123369Y53976D01*
X123339Y53901D01*
X123317Y53826D01*
X123304Y53754D01*
X123300Y53683D01*
X122900D01*
X122896Y53754D01*
X122883Y53826D01*
X122861Y53901D01*
X122831Y53976D01*
X122792Y54053D01*
X122745Y54131D01*
X122689Y54211D01*
X122625Y54291D01*
X122552Y54374D01*
X122470Y54457D01*
X123730D01*
X123648Y54374D01*
D02*
G37*
G36*
X126844Y54361D02*
X126796Y54307D01*
X126754Y54247D01*
X126717Y54179D01*
X126685Y54105D01*
X126658Y54023D01*
X126636Y53934D01*
X126619Y53838D01*
X126608Y53736D01*
X126601Y53626D01*
X126600Y53509D01*
X125709Y54400D01*
X125826Y54401D01*
X126039Y54419D01*
X126134Y54436D01*
X126223Y54458D01*
X126305Y54485D01*
X126379Y54517D01*
X126447Y54554D01*
X126507Y54596D01*
X126561Y54644D01*
X126844Y54361D01*
D02*
G37*
G36*
X55602Y55200D02*
X55610Y55113D01*
X55625Y55028D01*
X55645Y54948D01*
X55671Y54870D01*
X55704Y54795D01*
X55742Y54724D01*
X55787Y54656D01*
X55837Y54592D01*
X55863Y54563D01*
X55892Y54537D01*
X55956Y54487D01*
X56024Y54442D01*
X56095Y54404D01*
X56170Y54371D01*
X56248Y54345D01*
X56328Y54325D01*
X56413Y54310D01*
X56500Y54302D01*
X56591Y54300D01*
X55700Y53409D01*
X55698Y53500D01*
X55690Y53587D01*
X55676Y53671D01*
X55655Y53752D01*
X55629Y53830D01*
X55596Y53905D01*
X55558Y53976D01*
X55513Y54044D01*
X55463Y54108D01*
X55437Y54137D01*
X55408Y54163D01*
X55344Y54213D01*
X55276Y54258D01*
X55205Y54296D01*
X55130Y54329D01*
X55053Y54355D01*
X54971Y54375D01*
X54887Y54390D01*
X54800Y54398D01*
X54709Y54400D01*
X55600Y55291D01*
X55602Y55200D01*
D02*
G37*
G36*
X130904Y52870D02*
X130821Y52952D01*
X130658Y53089D01*
X130578Y53145D01*
X130500Y53193D01*
X130423Y53231D01*
X130348Y53261D01*
X130274Y53283D01*
X130201Y53296D01*
X130130Y53300D01*
Y53700D01*
X130201Y53704D01*
X130274Y53717D01*
X130348Y53739D01*
X130423Y53769D01*
X130500Y53807D01*
X130578Y53855D01*
X130658Y53911D01*
X130739Y53975D01*
X130821Y54048D01*
X130904Y54130D01*
Y52870D01*
D02*
G37*
G36*
X57308Y53967D02*
X57376Y53911D01*
X57446Y53862D01*
X57517Y53819D01*
X57591Y53782D01*
X57666Y53753D01*
X57744Y53730D01*
X57824Y53713D01*
X57905Y53703D01*
X57989Y53700D01*
Y53100D01*
X57905Y53097D01*
X57824Y53087D01*
X57744Y53070D01*
X57666Y53047D01*
X57591Y53017D01*
X57517Y52981D01*
X57446Y52938D01*
X57376Y52889D01*
X57308Y52833D01*
X57243Y52770D01*
Y54030D01*
X57308Y53967D01*
D02*
G37*
G36*
X92254Y52827D02*
X92265Y52750D01*
X92284Y52672D01*
X92311Y52596D01*
X92345Y52519D01*
X92387Y52443D01*
X92436Y52368D01*
X92493Y52292D01*
X92558Y52217D01*
X92630Y52143D01*
X91370D01*
X91442Y52217D01*
X91507Y52292D01*
X91564Y52368D01*
X91613Y52443D01*
X91655Y52519D01*
X91689Y52596D01*
X91716Y52672D01*
X91735Y52750D01*
X91746Y52827D01*
X91750Y52905D01*
X92250D01*
X92254Y52827D01*
D02*
G37*
G36*
X134088Y52851D02*
X134082Y52876D01*
X134077Y52892D01*
X134070Y52905D01*
X134063Y52916D01*
X134537D01*
X134530Y52905D01*
X134523Y52892D01*
X134518Y52876D01*
X134513Y52859D01*
X134509Y52838D01*
X134503Y52790D01*
X134503Y52785D01*
X134783Y52741D01*
X134696Y52684D01*
X134359Y52437D01*
X134278Y52370D01*
X133965Y52082D01*
X133595Y52278D01*
X133649Y52338D01*
X133691Y52400D01*
X133722Y52462D01*
X133740Y52526D01*
X133747Y52590D01*
X133743Y52655D01*
X133726Y52722D01*
X133698Y52789D01*
X133658Y52858D01*
X133606Y52927D01*
X134088Y52851D01*
D02*
G37*
G36*
X169801Y52874D02*
X169819Y52662D01*
X169836Y52566D01*
X169858Y52477D01*
X169885Y52395D01*
X169917Y52321D01*
X169954Y52253D01*
X169996Y52193D01*
X170044Y52139D01*
X169761Y51856D01*
X169707Y51904D01*
X169647Y51946D01*
X169579Y51983D01*
X169505Y52015D01*
X169423Y52042D01*
X169334Y52064D01*
X169239Y52081D01*
X169136Y52092D01*
X169026Y52099D01*
X168909Y52100D01*
X169800Y52991D01*
X169801Y52874D01*
D02*
G37*
G36*
X147893Y51196D02*
X147953Y51154D01*
X148021Y51117D01*
X148095Y51085D01*
X148177Y51058D01*
X148266Y51036D01*
X148361Y51019D01*
X148464Y51008D01*
X148574Y51001D01*
X148691Y51000D01*
X147800Y50109D01*
X147799Y50226D01*
X147781Y50438D01*
X147764Y50534D01*
X147742Y50623D01*
X147715Y50705D01*
X147683Y50779D01*
X147646Y50847D01*
X147604Y50907D01*
X147556Y50961D01*
X147839Y51244D01*
X147893Y51196D01*
D02*
G37*
G36*
X166414Y50395D02*
X166606Y50230D01*
X166663Y50190D01*
X166716Y50157D01*
X166765Y50132D01*
X166811Y50114D01*
X166853Y50103D01*
X166891Y50100D01*
X166000Y49209D01*
X165997Y49247D01*
X165986Y49289D01*
X165968Y49335D01*
X165943Y49384D01*
X165910Y49437D01*
X165870Y49494D01*
X165767Y49618D01*
X165705Y49686D01*
X165636Y49757D01*
X166343Y50464D01*
X166414Y50395D01*
D02*
G37*
G36*
X120291Y49400D02*
X120174Y49399D01*
X119961Y49381D01*
X119866Y49364D01*
X119777Y49342D01*
X119695Y49315D01*
X119621Y49283D01*
X119553Y49246D01*
X119493Y49204D01*
X119439Y49156D01*
X119156Y49439D01*
X119204Y49493D01*
X119246Y49553D01*
X119283Y49621D01*
X119315Y49695D01*
X119342Y49777D01*
X119364Y49866D01*
X119381Y49962D01*
X119392Y50064D01*
X119399Y50174D01*
X119400Y50291D01*
X120291Y49400D01*
D02*
G37*
G36*
X93170Y49316D02*
X93118Y49259D01*
X93071Y49196D01*
X93030Y49128D01*
X92995Y49055D01*
X92965Y48977D01*
X92941Y48894D01*
X92922Y48805D01*
X92909Y48712D01*
X92902Y48613D01*
X92900Y48509D01*
X92009Y49400D01*
X92113Y49402D01*
X92212Y49409D01*
X92305Y49422D01*
X92394Y49441D01*
X92477Y49465D01*
X92555Y49495D01*
X92628Y49530D01*
X92696Y49571D01*
X92759Y49618D01*
X92816Y49670D01*
X93170Y49316D01*
D02*
G37*
G36*
X173515Y48261D02*
X173471Y48268D01*
X173428Y48272D01*
X173387Y48271D01*
X173347Y48267D01*
X173309Y48258D01*
X173272Y48246D01*
X173237Y48230D01*
X173204Y48210D01*
X173171Y48186D01*
X173141Y48158D01*
X172675Y48258D01*
X172700Y48286D01*
X172718Y48312D01*
X172727Y48336D01*
X172729Y48358D01*
X172723Y48378D01*
X172710Y48397D01*
X172689Y48413D01*
X172660Y48428D01*
X172623Y48440D01*
X172579Y48451D01*
X173515Y48261D01*
D02*
G37*
G36*
X144126Y48548D02*
X144290Y48411D01*
X144369Y48355D01*
X144447Y48307D01*
X144524Y48269D01*
X144599Y48239D01*
X144674Y48217D01*
X144746Y48204D01*
X144817Y48200D01*
Y47800D01*
X144746Y47796D01*
X144674Y47783D01*
X144599Y47761D01*
X144524Y47731D01*
X144447Y47692D01*
X144369Y47645D01*
X144290Y47589D01*
X144209Y47525D01*
X144126Y47452D01*
X144043Y47370D01*
Y47796D01*
X143612Y47788D01*
Y48212D01*
X143620Y48210D01*
X143640Y48208D01*
X143716Y48204D01*
X144043Y48202D01*
Y48630D01*
X144126Y48548D01*
D02*
G37*
G36*
X138592Y48937D02*
X138656Y48887D01*
X138724Y48842D01*
X138795Y48804D01*
X138870Y48771D01*
X138947Y48745D01*
X139029Y48724D01*
X139113Y48710D01*
X139200Y48702D01*
X139291Y48700D01*
X138400Y47809D01*
X138398Y47900D01*
X138390Y47987D01*
X138375Y48072D01*
X138355Y48153D01*
X138329Y48230D01*
X138296Y48305D01*
X138258Y48376D01*
X138213Y48444D01*
X138163Y48508D01*
X138106Y48570D01*
X138530Y48994D01*
X138592Y48937D01*
D02*
G37*
G36*
X121957Y47770D02*
X121874Y47852D01*
X121711Y47989D01*
X121631Y48045D01*
X121553Y48092D01*
X121476Y48131D01*
X121401Y48161D01*
X121326Y48183D01*
X121254Y48196D01*
X121183Y48200D01*
Y48600D01*
X121254Y48604D01*
X121326Y48617D01*
X121401Y48639D01*
X121476Y48669D01*
X121553Y48708D01*
X121631Y48755D01*
X121711Y48811D01*
X121791Y48875D01*
X121874Y48948D01*
X121957Y49030D01*
Y47770D01*
D02*
G37*
G36*
X135757Y47181D02*
X135692Y47244D01*
X135624Y47300D01*
X135554Y47349D01*
X135483Y47392D01*
X135409Y47429D01*
X135334Y47458D01*
X135256Y47481D01*
X135176Y47498D01*
X135095Y47508D01*
X135011Y47511D01*
Y48111D01*
X135095Y48114D01*
X135176Y48124D01*
X135256Y48141D01*
X135334Y48164D01*
X135409Y48193D01*
X135483Y48230D01*
X135554Y48273D01*
X135624Y48322D01*
X135692Y48378D01*
X135757Y48441D01*
Y47181D01*
D02*
G37*
G36*
X143391Y47100D02*
X143300Y47098D01*
X143213Y47090D01*
X143129Y47076D01*
X143047Y47055D01*
X142970Y47029D01*
X142895Y46996D01*
X142824Y46958D01*
X142756Y46913D01*
X142692Y46863D01*
X142630Y46806D01*
X142206Y47230D01*
X142263Y47292D01*
X142313Y47356D01*
X142358Y47424D01*
X142396Y47495D01*
X142429Y47570D01*
X142455Y47648D01*
X142475Y47728D01*
X142490Y47813D01*
X142498Y47900D01*
X142500Y47991D01*
X143391Y47100D01*
D02*
G37*
G36*
X165880Y47749D02*
X165945Y47698D01*
X166012Y47654D01*
X166084Y47615D01*
X166158Y47583D01*
X166236Y47557D01*
X166317Y47536D01*
X166401Y47522D01*
X166488Y47514D01*
X166579Y47512D01*
X165688Y46621D01*
X165686Y46712D01*
X165678Y46799D01*
X165664Y46883D01*
X165643Y46964D01*
X165617Y47042D01*
X165585Y47116D01*
X165546Y47188D01*
X165502Y47256D01*
X165451Y47320D01*
X165394Y47381D01*
X165819Y47806D01*
X165880Y47749D01*
D02*
G37*
G36*
X120508Y46767D02*
X120576Y46711D01*
X120646Y46662D01*
X120717Y46619D01*
X120791Y46582D01*
X120867Y46553D01*
X120944Y46530D01*
X121024Y46513D01*
X121105Y46503D01*
X121188Y46500D01*
Y45900D01*
X121105Y45897D01*
X121024Y45887D01*
X120944Y45870D01*
X120867Y45847D01*
X120791Y45818D01*
X120717Y45781D01*
X120646Y45738D01*
X120576Y45689D01*
X120508Y45633D01*
X120443Y45570D01*
Y46830D01*
X120508Y46767D01*
D02*
G37*
G36*
X127694Y45270D02*
X127637Y45208D01*
X127587Y45144D01*
X127542Y45076D01*
X127504Y45005D01*
X127471Y44930D01*
X127445Y44853D01*
X127425Y44772D01*
X127410Y44687D01*
X127402Y44600D01*
X127400Y44509D01*
X126509Y45400D01*
X126600Y45402D01*
X126687Y45410D01*
X126771Y45425D01*
X126853Y45445D01*
X126930Y45471D01*
X127005Y45504D01*
X127076Y45542D01*
X127144Y45587D01*
X127208Y45637D01*
X127270Y45694D01*
X127694Y45270D01*
D02*
G37*
G36*
X104704Y44546D02*
X104717Y44473D01*
X104739Y44399D01*
X104769Y44324D01*
X104807Y44247D01*
X104855Y44169D01*
X104911Y44089D01*
X104975Y44009D01*
X105048Y43926D01*
X105130Y43843D01*
X103870D01*
X103952Y43926D01*
X104089Y44089D01*
X104145Y44169D01*
X104192Y44247D01*
X104231Y44324D01*
X104261Y44399D01*
X104283Y44473D01*
X104296Y44546D01*
X104300Y44618D01*
X104700D01*
X104704Y44546D01*
D02*
G37*
G36*
X102404Y43646D02*
X102417Y43573D01*
X102439Y43499D01*
X102469Y43424D01*
X102507Y43347D01*
X102555Y43269D01*
X102611Y43189D01*
X102675Y43109D01*
X102748Y43026D01*
X102830Y42943D01*
X101570D01*
X101652Y43026D01*
X101789Y43189D01*
X101845Y43269D01*
X101892Y43347D01*
X101931Y43424D01*
X101961Y43499D01*
X101983Y43573D01*
X101996Y43646D01*
X102000Y43718D01*
X102400D01*
X102404Y43646D01*
D02*
G37*
G36*
X159018Y43771D02*
X159078Y43729D01*
X159146Y43692D01*
X159221Y43660D01*
X159302Y43633D01*
X159391Y43611D01*
X159487Y43594D01*
X159590Y43582D01*
X159699Y43576D01*
X159816Y43575D01*
X158925Y42684D01*
X158924Y42801D01*
X158906Y43013D01*
X158889Y43109D01*
X158867Y43198D01*
X158840Y43279D01*
X158808Y43354D01*
X158771Y43422D01*
X158729Y43482D01*
X158681Y43536D01*
X158964Y43819D01*
X159018Y43771D01*
D02*
G37*
G36*
X108957Y42070D02*
X108928Y42095D01*
X108891Y42117D01*
X108846Y42136D01*
X108793Y42153D01*
X108732Y42167D01*
X108664Y42179D01*
X108503Y42195D01*
X108411Y42199D01*
X108312Y42200D01*
Y43200D01*
X108411Y43201D01*
X108664Y43221D01*
X108732Y43233D01*
X108793Y43247D01*
X108846Y43264D01*
X108891Y43283D01*
X108928Y43305D01*
X108957Y43330D01*
Y42070D01*
D02*
G37*
G36*
X163723Y43223D02*
X163723Y43223D01*
X163988Y43046D01*
X164300Y42984D01*
X164300Y42984D01*
X166768D01*
X166975Y42484D01*
X166004Y41514D01*
X161335D01*
X161067Y42014D01*
X161144Y42129D01*
X161253Y42675D01*
X161144Y43221D01*
X160835Y43684D01*
X160371Y43993D01*
X159880Y44091D01*
X159822Y44116D01*
X159718Y44117D01*
X159636Y44122D01*
X159564Y44130D01*
X159502Y44141D01*
X159452Y44153D01*
X159412Y44166D01*
X159384Y44179D01*
X159365Y44189D01*
X159353Y44197D01*
X159323Y44223D01*
X159266Y44243D01*
X148787Y54722D01*
X148978Y55184D01*
X151762D01*
X163723Y43223D01*
D02*
G37*
G36*
X150857Y41270D02*
X150828Y41295D01*
X150791Y41317D01*
X150746Y41336D01*
X150693Y41353D01*
X150632Y41368D01*
X150564Y41379D01*
X150403Y41395D01*
X150311Y41399D01*
X150212Y41400D01*
Y42400D01*
X150311Y42401D01*
X150564Y42421D01*
X150632Y42432D01*
X150693Y42447D01*
X150746Y42464D01*
X150791Y42483D01*
X150828Y42505D01*
X150857Y42530D01*
Y41270D01*
D02*
G37*
G36*
X171811Y40733D02*
X171810Y40771D01*
X171805Y40805D01*
X171798Y40835D01*
X171787Y40861D01*
X171773Y40883D01*
X171756Y40901D01*
X171737Y40915D01*
X171714Y40925D01*
X171688Y40931D01*
X171659Y40933D01*
Y41333D01*
X171688Y41335D01*
X171714Y41341D01*
X171737Y41351D01*
X171756Y41365D01*
X171773Y41383D01*
X171787Y41405D01*
X171798Y41431D01*
X171805Y41461D01*
X171810Y41495D01*
X171811Y41533D01*
Y40733D01*
D02*
G37*
G36*
X158395Y39095D02*
X158627Y38941D01*
X158900Y38886D01*
X166270D01*
X166477Y38386D01*
X164504Y36414D01*
X145400D01*
X145127Y36359D01*
X144895Y36205D01*
X142604Y33914D01*
X125898D01*
X125851Y33939D01*
X125769Y33914D01*
X116926D01*
X116658Y34414D01*
X116819Y34654D01*
X116927Y35200D01*
X116900Y35337D01*
X116923Y35426D01*
X116910Y35518D01*
X116905Y35586D01*
X116904Y35644D01*
X116908Y35690D01*
X116913Y35726D01*
X116920Y35752D01*
X116926Y35769D01*
X116932Y35779D01*
X116937Y35786D01*
X116964Y35817D01*
X116973Y35844D01*
X116998Y35860D01*
X117007Y35897D01*
X120926Y39816D01*
X121387Y39570D01*
X121373Y39500D01*
X121481Y38954D01*
X121791Y38491D01*
X122254Y38181D01*
X122800Y38073D01*
X123346Y38181D01*
X123703Y38420D01*
X123724Y38420D01*
X123744Y38429D01*
X123749Y38429D01*
X123751Y38431D01*
X123752Y38431D01*
X123776Y38437D01*
X123803Y38442D01*
X124013Y38458D01*
X124095Y38459D01*
X124146Y38480D01*
X138388D01*
X138451Y38461D01*
X138487Y38480D01*
X140435D01*
X140447Y38472D01*
X140497Y38480D01*
X140502D01*
X140550Y38459D01*
X140661Y38456D01*
X140681Y38354D01*
X140991Y37891D01*
X141454Y37581D01*
X142000Y37473D01*
X142546Y37581D01*
X143009Y37891D01*
X143319Y38354D01*
X143427Y38900D01*
X143319Y39446D01*
X143009Y39909D01*
X142546Y40219D01*
X142000Y40327D01*
X141994Y40380D01*
X142433Y40880D01*
X150154D01*
X150205Y40859D01*
X150296Y40858D01*
X150365Y40855D01*
X150492Y40842D01*
X150524Y40837D01*
X150548Y40831D01*
X150549Y40831D01*
X150551Y40829D01*
X150556Y40829D01*
X150576Y40820D01*
X150597Y40820D01*
X150954Y40581D01*
X151500Y40473D01*
X152046Y40581D01*
X152509Y40891D01*
X152819Y41354D01*
X152927Y41900D01*
X152819Y42446D01*
X152509Y42909D01*
X152046Y43219D01*
X151500Y43327D01*
X150954Y43219D01*
X150597Y42980D01*
X150576Y42980D01*
X150556Y42971D01*
X150551Y42971D01*
X150549Y42969D01*
X150548Y42969D01*
X150524Y42963D01*
X150497Y42959D01*
X150287Y42942D01*
X150205Y42941D01*
X150154Y42920D01*
X141696D01*
X141494Y43383D01*
X141739Y43686D01*
X143400D01*
X143673Y43741D01*
X143905Y43895D01*
X145596Y45586D01*
X151904D01*
X158395Y39095D01*
D02*
G37*
G36*
X140190Y40573D02*
X140100Y40453D01*
X140044Y40347D01*
X140022Y40255D01*
X140034Y40177D01*
X140080Y40113D01*
X140161Y40064D01*
X140275Y40028D01*
X140424Y40007D01*
X140607Y40000D01*
X138400Y39000D01*
X137193Y40000D01*
X137390Y40007D01*
X137581Y40028D01*
X137767Y40064D01*
X137946Y40113D01*
X138120Y40177D01*
X138287Y40255D01*
X138449Y40347D01*
X138605Y40453D01*
X138756Y40573D01*
X138900Y40707D01*
X140314D01*
X140190Y40573D01*
D02*
G37*
G36*
X123472Y40105D02*
X123509Y40083D01*
X123554Y40064D01*
X123607Y40047D01*
X123668Y40033D01*
X123736Y40021D01*
X123897Y40005D01*
X123989Y40001D01*
X124088Y40000D01*
Y39000D01*
X123989Y38999D01*
X123736Y38979D01*
X123668Y38967D01*
X123607Y38953D01*
X123554Y38936D01*
X123509Y38917D01*
X123472Y38895D01*
X123443Y38870D01*
Y40130D01*
X123472Y40105D01*
D02*
G37*
G36*
X141832Y39784D02*
X141101Y38859D01*
X141094Y38886D01*
X141077Y38910D01*
X141050Y38931D01*
X141012Y38949D01*
X140964Y38965D01*
X140905Y38977D01*
X140836Y38987D01*
X140756Y38994D01*
X140566Y39000D01*
X140789Y40000D01*
X141832Y39784D01*
D02*
G37*
G36*
X110304Y39346D02*
X110317Y39274D01*
X110339Y39199D01*
X110369Y39124D01*
X110407Y39047D01*
X110455Y38969D01*
X110511Y38890D01*
X110575Y38809D01*
X110648Y38726D01*
X110730Y38643D01*
X109470D01*
X109552Y38726D01*
X109689Y38890D01*
X109745Y38969D01*
X109792Y39047D01*
X109831Y39124D01*
X109861Y39199D01*
X109883Y39274D01*
X109896Y39346D01*
X109900Y39417D01*
X110300D01*
X110304Y39346D01*
D02*
G37*
G36*
X118546Y45557D02*
X118791Y45191D01*
X119254Y44881D01*
X119800Y44773D01*
X120346Y44881D01*
X120756Y45155D01*
X120816Y45178D01*
X120868Y45228D01*
X120906Y45259D01*
X120942Y45285D01*
X120977Y45306D01*
X121010Y45322D01*
X121043Y45335D01*
X121077Y45345D01*
X121111Y45352D01*
X121148Y45357D01*
X121210Y45359D01*
X121264Y45384D01*
X124852D01*
X125149Y44884D01*
X125073Y44500D01*
X125181Y43954D01*
X125407Y43616D01*
X125250Y43195D01*
X125186Y43116D01*
X120000D01*
X119688Y43054D01*
X119423Y42877D01*
X119423Y42877D01*
X114685Y38139D01*
X114225Y38385D01*
X114227Y38400D01*
X114119Y38946D01*
X113809Y39409D01*
X113514Y39607D01*
Y41232D01*
X117998Y45716D01*
X118546Y45557D01*
D02*
G37*
G36*
X96019Y37212D02*
X95950Y37141D01*
X95836Y37008D01*
X95791Y36947D01*
X95754Y36889D01*
X95724Y36835D01*
X95703Y36783D01*
X95690Y36736D01*
X95685Y36691D01*
X95687Y36650D01*
X94668Y37390D01*
X94697Y37398D01*
X94731Y37412D01*
X94770Y37434D01*
X94814Y37462D01*
X94862Y37498D01*
X94973Y37591D01*
X95103Y37711D01*
X95175Y37782D01*
X96019Y37212D01*
D02*
G37*
G36*
X116558Y36176D02*
X116509Y36119D01*
X116466Y36057D01*
X116431Y35990D01*
X116403Y35916D01*
X116383Y35836D01*
X116369Y35751D01*
X116363Y35660D01*
X116364Y35562D01*
X116372Y35459D01*
X116387Y35350D01*
X115367Y36090D01*
X115490Y36110D01*
X115810Y36187D01*
X115900Y36218D01*
X115982Y36251D01*
X116056Y36288D01*
X116122Y36326D01*
X116180Y36368D01*
X116229Y36412D01*
X116558Y36176D01*
D02*
G37*
G36*
X172941Y35201D02*
X171897Y35000D01*
X171688Y36000D01*
X171788Y36002D01*
X171958Y36013D01*
X172027Y36024D01*
X172086Y36037D01*
X172135Y36053D01*
X172173Y36072D01*
X172201Y36094D01*
X172219Y36119D01*
X172226Y36147D01*
X172941Y35201D01*
D02*
G37*
G36*
X168172Y36105D02*
X168209Y36083D01*
X168254Y36064D01*
X168307Y36047D01*
X168368Y36033D01*
X168436Y36021D01*
X168597Y36005D01*
X168689Y36001D01*
X168788Y36000D01*
Y35000D01*
X168689Y34999D01*
X168436Y34979D01*
X168368Y34967D01*
X168307Y34953D01*
X168254Y34936D01*
X168209Y34917D01*
X168172Y34895D01*
X168143Y34870D01*
Y36130D01*
X168172Y36105D01*
D02*
G37*
G36*
X111141Y33859D02*
X111094Y33808D01*
X111054Y33758D01*
X111020Y33707D01*
X110993Y33657D01*
X110972Y33606D01*
X110957Y33555D01*
X110949Y33504D01*
X110948Y33452D01*
X110953Y33401D01*
X110965Y33350D01*
X110350Y33965D01*
X110401Y33953D01*
X110452Y33948D01*
X110504Y33949D01*
X110555Y33957D01*
X110606Y33972D01*
X110657Y33993D01*
X110707Y34020D01*
X110758Y34054D01*
X110808Y34095D01*
X110859Y34141D01*
X111141Y33859D01*
D02*
G37*
G36*
X126683Y33000D02*
X126610Y32997D01*
X126550Y32989D01*
X126504Y32974D01*
X126472Y32955D01*
X126453Y32929D01*
X126449Y32898D01*
X126457Y32861D01*
X126480Y32819D01*
X126516Y32771D01*
X126566Y32717D01*
X126000D01*
X125942Y32771D01*
X125882Y32819D01*
X125820Y32861D01*
X125755Y32898D01*
X125688Y32929D01*
X125618Y32955D01*
X125547Y32974D01*
X125472Y32989D01*
X125396Y32997D01*
X125317Y33000D01*
X125800Y33400D01*
X126683Y33000D01*
D02*
G37*
G36*
X77616Y33321D02*
X77555Y33256D01*
X77501Y33190D01*
X77453Y33122D01*
X77412Y33053D01*
X77377Y32983D01*
X77349Y32911D01*
X77327Y32838D01*
X77311Y32763D01*
X77302Y32687D01*
X77300Y32609D01*
X76409Y33500D01*
X76487Y33502D01*
X76563Y33511D01*
X76638Y33527D01*
X76711Y33549D01*
X76783Y33577D01*
X76853Y33612D01*
X76922Y33653D01*
X76990Y33701D01*
X77056Y33755D01*
X77121Y33816D01*
X77616Y33321D01*
D02*
G37*
G36*
X101501Y33089D02*
X101521Y32836D01*
X101532Y32768D01*
X101547Y32707D01*
X101564Y32654D01*
X101583Y32609D01*
X101605Y32572D01*
X101630Y32543D01*
X100370D01*
X100395Y32572D01*
X100417Y32609D01*
X100436Y32654D01*
X100453Y32707D01*
X100468Y32768D01*
X100479Y32836D01*
X100495Y32997D01*
X100499Y33089D01*
X100500Y33188D01*
X101500D01*
X101501Y33089D01*
D02*
G37*
G36*
X108305Y41659D02*
X108396Y41658D01*
X108466Y41655D01*
X108592Y41642D01*
X108624Y41637D01*
X108648Y41631D01*
X108649Y41631D01*
X108651Y41629D01*
X108656Y41629D01*
X108676Y41620D01*
X108697Y41620D01*
X109054Y41381D01*
X109563Y41280D01*
X109655Y41137D01*
X109792Y40801D01*
X109595Y40605D01*
X109441Y40373D01*
X109386Y40100D01*
Y39505D01*
X109360Y39450D01*
X109357Y39410D01*
X109355Y39397D01*
X109349Y39376D01*
X109337Y39346D01*
X109319Y39309D01*
X109292Y39265D01*
X109260Y39220D01*
X109151Y39090D01*
X109083Y39021D01*
X109060Y38963D01*
X108781Y38546D01*
X108673Y38000D01*
X108781Y37454D01*
X109091Y36991D01*
X109554Y36681D01*
X109883Y36616D01*
X109834Y36116D01*
X107200D01*
X106888Y36054D01*
X106623Y35877D01*
X106623Y35877D01*
X102889Y32142D01*
X102347Y32307D01*
X102319Y32446D01*
X102080Y32803D01*
X102080Y32824D01*
X102071Y32844D01*
X102071Y32849D01*
X102069Y32851D01*
X102069Y32852D01*
X102063Y32876D01*
X102058Y32903D01*
X102042Y33113D01*
X102041Y33195D01*
X102020Y33246D01*
Y35978D01*
X107722Y41680D01*
X108254D01*
X108305Y41659D01*
D02*
G37*
G36*
X166113Y35297D02*
X166181Y34954D01*
X166491Y34491D01*
X166954Y34181D01*
X167500Y34073D01*
X168046Y34181D01*
X168403Y34420D01*
X168424Y34420D01*
X168444Y34429D01*
X168448Y34429D01*
X168451Y34431D01*
X168452Y34431D01*
X168476Y34437D01*
X168503Y34442D01*
X168713Y34458D01*
X168795Y34459D01*
X168846Y34480D01*
X171739D01*
X171891Y33980D01*
X171891Y33980D01*
X171858Y33959D01*
X171416Y33297D01*
X171261Y32517D01*
Y32036D01*
X156206D01*
X155872Y32370D01*
X155852Y32420D01*
X155788Y32486D01*
X155741Y32537D01*
X155661Y32635D01*
X155642Y32662D01*
X155629Y32683D01*
X155629Y32683D01*
X155628Y32686D01*
X155625Y32690D01*
X155617Y32710D01*
X155603Y32725D01*
X155519Y33146D01*
X155209Y33609D01*
X154746Y33919D01*
X154200Y34027D01*
X153654Y33919D01*
X153191Y33609D01*
X152881Y33146D01*
X152773Y32600D01*
X152881Y32054D01*
X153191Y31591D01*
X153654Y31281D01*
X154075Y31197D01*
X154090Y31183D01*
X154110Y31175D01*
X154114Y31172D01*
X154117Y31171D01*
X154117Y31171D01*
X154138Y31158D01*
X154161Y31142D01*
X154321Y31005D01*
X154380Y30948D01*
X154430Y30928D01*
X155062Y30296D01*
X155393Y30075D01*
X155783Y29997D01*
X171261D01*
Y29517D01*
X171416Y28736D01*
X171858Y28075D01*
X172520Y27633D01*
X173300Y27477D01*
X176300D01*
X177080Y27633D01*
X177742Y28075D01*
X177980Y28432D01*
X178480Y28280D01*
Y23637D01*
X177980Y23485D01*
X177742Y23842D01*
X177080Y24284D01*
X176300Y24439D01*
X173300D01*
X172520Y24284D01*
X171858Y23842D01*
X171416Y23180D01*
X171261Y22400D01*
Y21920D01*
X168600D01*
X168210Y21842D01*
X167879Y21621D01*
X164978Y18720D01*
X140596D01*
X140329Y19220D01*
X140419Y19354D01*
X140527Y19900D01*
X140419Y20446D01*
X140109Y20909D01*
X139646Y21219D01*
X139155Y21317D01*
X139097Y21341D01*
X138993Y21342D01*
X138910Y21347D01*
X138838Y21355D01*
X138777Y21366D01*
X138727Y21378D01*
X138687Y21391D01*
X138658Y21404D01*
X138639Y21414D01*
X138628Y21422D01*
X138598Y21449D01*
X138541Y21468D01*
X127985Y32024D01*
X128176Y32486D01*
X142900D01*
X143173Y32541D01*
X143405Y32695D01*
X145696Y34986D01*
X164800D01*
X165073Y35041D01*
X165305Y35195D01*
X165600Y35490D01*
X166113Y35297D01*
D02*
G37*
G36*
X111442Y31783D02*
X111458Y31768D01*
X111481Y31654D01*
X111791Y31191D01*
X112254Y30881D01*
X112800Y30773D01*
X113346Y30881D01*
X113763Y31160D01*
X113821Y31183D01*
X113895Y31256D01*
X113957Y31311D01*
X114014Y31356D01*
X114065Y31392D01*
X114109Y31419D01*
X114146Y31437D01*
X114176Y31449D01*
X114197Y31455D01*
X114210Y31457D01*
X114250Y31460D01*
X114304Y31486D01*
X122904D01*
X133932Y20459D01*
X133951Y20402D01*
X133978Y20372D01*
X133986Y20361D01*
X133996Y20342D01*
X134009Y20313D01*
X134022Y20273D01*
X134034Y20223D01*
X134043Y20169D01*
X134058Y20000D01*
X134059Y19903D01*
X134083Y19845D01*
X134181Y19354D01*
X134271Y19220D01*
X134004Y18720D01*
X116513Y18720D01*
X116246Y19220D01*
X116369Y19404D01*
X116477Y19950D01*
X116475Y19960D01*
X116642Y20210D01*
X116720Y20600D01*
Y21254D01*
X116741Y21305D01*
X116742Y21396D01*
X116745Y21465D01*
X116758Y21592D01*
X116763Y21624D01*
X116769Y21648D01*
X116769Y21649D01*
X116771Y21652D01*
X116771Y21656D01*
X116780Y21676D01*
X116780Y21697D01*
X117004Y22032D01*
X117128Y22066D01*
X117532Y22073D01*
X117749Y21749D01*
X118162Y21473D01*
X118650Y21375D01*
X120150D01*
X120638Y21473D01*
X121051Y21749D01*
X121327Y22162D01*
X121424Y22650D01*
Y27150D01*
X121327Y27638D01*
X121051Y28051D01*
X120638Y28328D01*
X120363Y28382D01*
X120342Y28490D01*
X120121Y28821D01*
X119221Y29721D01*
X118890Y29942D01*
X118500Y30020D01*
X110061D01*
X109511Y30569D01*
X109491Y30620D01*
X109427Y30686D01*
X109380Y30737D01*
X109299Y30835D01*
X109280Y30862D01*
X109267Y30883D01*
X109267Y30883D01*
X109266Y30886D01*
X109264Y30890D01*
X109256Y30910D01*
X109241Y30925D01*
X109157Y31346D01*
X109038Y31524D01*
X109399Y31885D01*
X109554Y31781D01*
X110100Y31673D01*
X110646Y31781D01*
X110911Y31958D01*
X111442Y31783D01*
D02*
G37*
G36*
X113526Y32748D02*
X113689Y32611D01*
X113769Y32555D01*
X113847Y32508D01*
X113924Y32469D01*
X113999Y32439D01*
X114074Y32417D01*
X114146Y32404D01*
X114217Y32400D01*
Y32000D01*
X114146Y31996D01*
X114074Y31983D01*
X113999Y31961D01*
X113924Y31931D01*
X113847Y31892D01*
X113769Y31845D01*
X113689Y31789D01*
X113609Y31725D01*
X113526Y31652D01*
X113443Y31570D01*
Y32830D01*
X113526Y32748D01*
D02*
G37*
G36*
X155103Y32553D02*
X155114Y32511D01*
X155132Y32465D01*
X155157Y32416D01*
X155190Y32363D01*
X155230Y32306D01*
X155333Y32182D01*
X155395Y32114D01*
X155464Y32043D01*
X154757Y31335D01*
X154686Y31405D01*
X154494Y31570D01*
X154437Y31610D01*
X154384Y31643D01*
X154335Y31668D01*
X154289Y31686D01*
X154247Y31697D01*
X154209Y31700D01*
X155100Y32591D01*
X155103Y32553D01*
D02*
G37*
G36*
X107196Y30170D02*
X107167Y30195D01*
X107129Y30217D01*
X107084Y30236D01*
X107031Y30253D01*
X106971Y30268D01*
X106902Y30279D01*
X106742Y30295D01*
X106650Y30299D01*
X106632Y30299D01*
X106611Y30299D01*
X106372Y30279D01*
X106313Y30267D01*
X106265Y30252D01*
X106228Y30235D01*
X106201Y30214D01*
X106185Y30192D01*
X106179Y30166D01*
X105430Y31067D01*
X106472Y31300D01*
X106550Y30972D01*
Y31300D01*
X106650Y31301D01*
X106902Y31321D01*
X106971Y31332D01*
X107031Y31347D01*
X107084Y31364D01*
X107129Y31383D01*
X107167Y31405D01*
X107196Y31430D01*
Y30170D01*
D02*
G37*
G36*
X95599Y32222D02*
X93790Y30414D01*
X81204D01*
X81150Y30440D01*
X81110Y30443D01*
X81097Y30445D01*
X81076Y30451D01*
X81046Y30463D01*
X81009Y30481D01*
X80965Y30508D01*
X80920Y30540D01*
X80790Y30649D01*
X80721Y30717D01*
X80663Y30740D01*
X80246Y31019D01*
X79953Y31077D01*
X79785Y31615D01*
X80854Y32684D01*
X95407D01*
X95599Y32222D01*
D02*
G37*
G36*
X171811Y30017D02*
X171808Y30112D01*
X171797Y30197D01*
X171779Y30272D01*
X171753Y30337D01*
X171721Y30392D01*
X171681Y30437D01*
X171634Y30472D01*
X171580Y30497D01*
X171518Y30512D01*
X171449Y30517D01*
Y31517D01*
X171518Y31522D01*
X171580Y31537D01*
X171634Y31562D01*
X171681Y31597D01*
X171721Y31642D01*
X171753Y31697D01*
X171779Y31762D01*
X171797Y31837D01*
X171808Y31922D01*
X171811Y32017D01*
Y30017D01*
D02*
G37*
G36*
X74348Y30274D02*
X74211Y30110D01*
X74155Y30031D01*
X74107Y29953D01*
X74069Y29876D01*
X74039Y29801D01*
X74017Y29726D01*
X74004Y29654D01*
X74000Y29583D01*
X73600D01*
X73596Y29654D01*
X73583Y29726D01*
X73561Y29801D01*
X73531Y29876D01*
X73492Y29953D01*
X73445Y30031D01*
X73389Y30110D01*
X73325Y30191D01*
X73252Y30274D01*
X73170Y30357D01*
X74430D01*
X74348Y30274D01*
D02*
G37*
G36*
X108742Y30753D02*
X108753Y30711D01*
X108771Y30665D01*
X108796Y30616D01*
X108829Y30563D01*
X108869Y30506D01*
X108971Y30382D01*
X109034Y30314D01*
X109103Y30243D01*
X108396Y29535D01*
X108325Y29605D01*
X108132Y29770D01*
X108076Y29810D01*
X108023Y29843D01*
X107973Y29868D01*
X107928Y29886D01*
X107886Y29897D01*
X107848Y29900D01*
X108739Y30791D01*
X108742Y30753D01*
D02*
G37*
G36*
X80426Y30248D02*
X80589Y30111D01*
X80669Y30055D01*
X80747Y30007D01*
X80824Y29969D01*
X80899Y29939D01*
X80974Y29917D01*
X81046Y29904D01*
X81117Y29900D01*
Y29500D01*
X81046Y29496D01*
X80974Y29483D01*
X80899Y29461D01*
X80824Y29431D01*
X80747Y29392D01*
X80669Y29345D01*
X80589Y29289D01*
X80509Y29225D01*
X80426Y29152D01*
X80343Y29070D01*
Y30330D01*
X80426Y30248D01*
D02*
G37*
G36*
X119901Y28060D02*
X119906Y27993D01*
X119910Y27966D01*
X119916Y27943D01*
X119923Y27924D01*
X119932Y27909D01*
X119941Y27899D01*
X119952Y27893D01*
X119964Y27891D01*
X118836D01*
X118848Y27893D01*
X118859Y27899D01*
X118868Y27909D01*
X118877Y27924D01*
X118884Y27943D01*
X118890Y27966D01*
X118894Y27993D01*
X118897Y28025D01*
X118900Y28100D01*
X119900D01*
X119901Y28060D01*
D02*
G37*
G36*
X98905Y28476D02*
X98919Y28361D01*
X98944Y28257D01*
X98978Y28164D01*
X99022Y28083D01*
X99076Y28013D01*
X99139Y27954D01*
X99212Y27907D01*
X99295Y27870D01*
X99388Y27845D01*
X97068Y27682D01*
X97036Y27666D01*
X97008Y27663D01*
X96982Y27674D01*
X96961Y27697D01*
X96942Y27734D01*
X96927Y27784D01*
X96915Y27846D01*
X96907Y27922D01*
X96902Y28011D01*
X96900Y28114D01*
X98900Y28602D01*
X98905Y28476D01*
D02*
G37*
G36*
X103326Y27428D02*
X103304Y27391D01*
X103284Y27346D01*
X103267Y27293D01*
X103253Y27232D01*
X103241Y27164D01*
X103226Y27003D01*
X103222Y26911D01*
X103220Y26812D01*
X102220D01*
X102219Y26911D01*
X102200Y27164D01*
X102188Y27232D01*
X102174Y27293D01*
X102157Y27346D01*
X102137Y27391D01*
X102115Y27428D01*
X102091Y27457D01*
X103350D01*
X103326Y27428D01*
D02*
G37*
G36*
X82057Y24170D02*
X81974Y24252D01*
X81810Y24389D01*
X81731Y24445D01*
X81653Y24493D01*
X81576Y24531D01*
X81501Y24561D01*
X81427Y24583D01*
X81354Y24596D01*
X81283Y24600D01*
Y25000D01*
X81354Y25004D01*
X81427Y25017D01*
X81501Y25039D01*
X81576Y25069D01*
X81653Y25107D01*
X81731Y25155D01*
X81810Y25211D01*
X81891Y25275D01*
X81974Y25348D01*
X82057Y25430D01*
Y24170D01*
D02*
G37*
G36*
X103220Y24274D02*
X103222Y24174D01*
X103240Y23922D01*
X103252Y23853D01*
X103265Y23793D01*
X103281Y23740D01*
X103300Y23695D01*
X103321Y23658D01*
X103345Y23628D01*
X102085Y23657D01*
X102111Y23686D01*
X102134Y23723D01*
X102154Y23768D01*
X102172Y23821D01*
X102187Y23882D01*
X102199Y23950D01*
X102208Y24026D01*
X102219Y24202D01*
X102220Y24302D01*
X103220Y24274D01*
D02*
G37*
G36*
X114865Y23505D02*
X114866Y23420D01*
X114877Y23345D01*
X114898Y23280D01*
X114929Y23225D01*
X114970Y23180D01*
X115022Y23145D01*
X115083Y23120D01*
X115154Y23105D01*
X115236Y23100D01*
X114989Y22100D01*
X114925Y22100D01*
X114666Y22115D01*
X114665Y22118D01*
X114874Y23600D01*
X114865Y23505D01*
D02*
G37*
G36*
X114127Y21917D02*
X114076Y21908D01*
X114030Y21892D01*
X113991Y21871D01*
X113958Y21844D01*
X113931Y21811D01*
X113910Y21771D01*
X113895Y21726D01*
X113886Y21674D01*
X113883Y21617D01*
X112883D01*
X112880Y21674D01*
X112871Y21726D01*
X112856Y21771D01*
X112835Y21811D01*
X112808Y21844D01*
X112775Y21871D01*
X112736Y21892D01*
X112691Y21908D01*
X112640Y21917D01*
X112583Y21920D01*
X114183D01*
X114127Y21917D01*
D02*
G37*
G36*
X107103Y29608D02*
X107292Y29481D01*
X107714Y29397D01*
X107729Y29383D01*
X107749Y29375D01*
X107752Y29372D01*
X107755Y29371D01*
X107756Y29371D01*
X107777Y29358D01*
X107799Y29342D01*
X107959Y29205D01*
X108018Y29148D01*
X108069Y29128D01*
X108918Y28279D01*
X109248Y28058D01*
X109639Y27980D01*
X111129D01*
X111425Y27480D01*
X111359Y27150D01*
Y22650D01*
X111456Y22162D01*
X111732Y21749D01*
X112146Y21473D01*
X112403Y21421D01*
X112441Y21226D01*
X112662Y20896D01*
X113378Y20180D01*
X113398Y20130D01*
X113462Y20064D01*
X113509Y20013D01*
X113589Y19915D01*
X113608Y19888D01*
X113621Y19867D01*
X113621Y19867D01*
X113622Y19864D01*
X113625Y19860D01*
X113633Y19840D01*
X113647Y19825D01*
X113731Y19404D01*
X113854Y19220D01*
X113587Y18720D01*
X102822D01*
X102819Y18723D01*
X102799Y18774D01*
X102735Y18839D01*
X102688Y18891D01*
X102607Y18988D01*
X102588Y19015D01*
X102575Y19036D01*
X102575Y19037D01*
X102574Y19040D01*
X102572Y19043D01*
X102564Y19063D01*
X102549Y19079D01*
X102465Y19500D01*
X102156Y19963D01*
X101693Y20272D01*
X101146Y20381D01*
X100600Y20272D01*
X100304Y20075D01*
X94912D01*
X94846Y20119D01*
X94768Y20134D01*
X93834Y21068D01*
X93819Y21146D01*
X93509Y21609D01*
X93046Y21919D01*
X92500Y22027D01*
X91954Y21919D01*
X91491Y21609D01*
X91181Y21146D01*
X91073Y20600D01*
X91181Y20054D01*
X91491Y19591D01*
X91954Y19281D01*
X92032Y19266D01*
X92966Y18332D01*
X92981Y18254D01*
X93291Y17791D01*
X93298Y17786D01*
X93400Y17116D01*
X93323Y17020D01*
X84326D01*
X84277Y17520D01*
X84412Y17546D01*
X84677Y17723D01*
X95648Y28694D01*
X96130Y28550D01*
X96359Y28105D01*
X96361Y28003D01*
X96365Y27992D01*
X96361Y27981D01*
X96366Y27892D01*
X96371Y27883D01*
Y27869D01*
X96369Y27863D01*
X96371Y27847D01*
Y27377D01*
X96325Y27150D01*
Y22650D01*
X96371Y22423D01*
Y22100D01*
X96487Y21515D01*
X96819Y21019D01*
X97315Y20687D01*
X97900Y20571D01*
X98485Y20687D01*
X98981Y21019D01*
X99398Y21435D01*
X99588Y21473D01*
X100001Y21749D01*
X100277Y22162D01*
X100374Y22650D01*
Y27150D01*
X100277Y27638D01*
X100001Y28051D01*
X99765Y28209D01*
X99743Y28254D01*
X99653Y28284D01*
X99588Y28328D01*
X99579Y28329D01*
X99555Y28348D01*
X99490Y28857D01*
X99573Y28939D01*
X99877Y29132D01*
X100117Y29084D01*
X101168D01*
X101328Y28783D01*
X101389Y28584D01*
X101293Y28100D01*
X101402Y27554D01*
X101640Y27197D01*
X101641Y27176D01*
X101649Y27156D01*
X101650Y27152D01*
X101652Y27149D01*
X101652Y27148D01*
X101657Y27124D01*
X101662Y27097D01*
X101678Y26887D01*
X101679Y26805D01*
X101701Y26754D01*
Y24364D01*
X101680Y24316D01*
X101681Y24313D01*
X101679Y24309D01*
X101678Y24222D01*
X101669Y24076D01*
X101663Y24031D01*
X101657Y23994D01*
X101652Y23973D01*
X101651Y23972D01*
X101650Y23969D01*
X101649Y23966D01*
X101641Y23947D01*
X101640Y23934D01*
X101381Y23546D01*
X101273Y23000D01*
X101381Y22454D01*
X101691Y21991D01*
X102154Y21681D01*
X102700Y21573D01*
X102915Y21615D01*
X103129Y21473D01*
X103617Y21375D01*
X105117D01*
X105604Y21473D01*
X106018Y21749D01*
X106294Y22162D01*
X106391Y22650D01*
Y27150D01*
X106294Y27638D01*
X106018Y28051D01*
X105628Y28312D01*
X105614Y28416D01*
X105656Y28827D01*
X105826Y28861D01*
X106289Y29170D01*
X106518Y29513D01*
X106989Y29614D01*
X107103Y29608D01*
D02*
G37*
G36*
X116305Y21928D02*
X116283Y21891D01*
X116264Y21846D01*
X116247Y21793D01*
X116233Y21732D01*
X116221Y21664D01*
X116205Y21503D01*
X116201Y21411D01*
X116200Y21312D01*
X115200D01*
X115199Y21411D01*
X115179Y21664D01*
X115167Y21732D01*
X115153Y21793D01*
X115136Y21846D01*
X115117Y21891D01*
X115095Y21928D01*
X115070Y21957D01*
X116330D01*
X116305Y21928D01*
D02*
G37*
G36*
X114564Y21145D02*
X114756Y20980D01*
X114813Y20940D01*
X114866Y20907D01*
X114915Y20882D01*
X114961Y20864D01*
X115003Y20853D01*
X115041Y20850D01*
X114150Y19959D01*
X114147Y19997D01*
X114136Y20039D01*
X114118Y20085D01*
X114093Y20134D01*
X114060Y20187D01*
X114020Y20244D01*
X113917Y20368D01*
X113855Y20436D01*
X113786Y20507D01*
X114493Y21215D01*
X114564Y21145D01*
D02*
G37*
G36*
X138293Y20996D02*
X138353Y20954D01*
X138421Y20917D01*
X138495Y20885D01*
X138577Y20858D01*
X138666Y20836D01*
X138761Y20819D01*
X138864Y20808D01*
X138974Y20801D01*
X139091Y20800D01*
X138200Y19909D01*
X138199Y20026D01*
X138181Y20239D01*
X138164Y20334D01*
X138142Y20423D01*
X138115Y20505D01*
X138083Y20579D01*
X138046Y20647D01*
X138004Y20707D01*
X137956Y20761D01*
X138239Y21044D01*
X138293Y20996D01*
D02*
G37*
G36*
X134693D02*
X134753Y20954D01*
X134821Y20917D01*
X134895Y20885D01*
X134977Y20858D01*
X135066Y20836D01*
X135161Y20819D01*
X135264Y20808D01*
X135374Y20801D01*
X135491Y20800D01*
X134600Y19909D01*
X134599Y20026D01*
X134581Y20239D01*
X134564Y20334D01*
X134542Y20423D01*
X134515Y20505D01*
X134483Y20579D01*
X134446Y20647D01*
X134404Y20707D01*
X134356Y20761D01*
X134639Y21044D01*
X134693Y20996D01*
D02*
G37*
G36*
X171811Y19900D02*
X171808Y19995D01*
X171797Y20080D01*
X171779Y20155D01*
X171753Y20220D01*
X171721Y20275D01*
X171681Y20320D01*
X171634Y20355D01*
X171580Y20380D01*
X171518Y20395D01*
X171449Y20400D01*
Y21400D01*
X171518Y21405D01*
X171580Y21420D01*
X171634Y21445D01*
X171681Y21480D01*
X171721Y21525D01*
X171753Y21580D01*
X171779Y21645D01*
X171797Y21720D01*
X171808Y21805D01*
X171811Y21900D01*
Y19900D01*
D02*
G37*
G36*
X79508Y20967D02*
X79576Y20911D01*
X79646Y20862D01*
X79717Y20819D01*
X79791Y20783D01*
X79866Y20753D01*
X79944Y20730D01*
X80024Y20713D01*
X80105Y20703D01*
X80189Y20700D01*
Y20100D01*
X80105Y20097D01*
X80024Y20087D01*
X79944Y20070D01*
X79866Y20047D01*
X79791Y20018D01*
X79717Y19981D01*
X79646Y19938D01*
X79576Y19889D01*
X79508Y19833D01*
X79443Y19770D01*
Y21030D01*
X79508Y20967D01*
D02*
G37*
G36*
X74560Y19800D02*
X74568Y19713D01*
X74583Y19628D01*
X74603Y19547D01*
X74629Y19470D01*
X74662Y19395D01*
X74700Y19324D01*
X74745Y19256D01*
X74796Y19192D01*
X74852Y19130D01*
X74428Y18706D01*
X74367Y18763D01*
X74302Y18813D01*
X74234Y18858D01*
X74163Y18896D01*
X74089Y18929D01*
X74011Y18955D01*
X73930Y18975D01*
X73846Y18990D01*
X73758Y18998D01*
X73667Y19000D01*
X74558Y19891D01*
X74560Y19800D01*
D02*
G37*
G36*
X102050Y18906D02*
X102060Y18864D01*
X102078Y18819D01*
X102104Y18769D01*
X102137Y18716D01*
X102177Y18660D01*
X102279Y18535D01*
X102341Y18467D01*
X102411Y18396D01*
X101704Y17689D01*
X101632Y17759D01*
X101440Y17923D01*
X101384Y17963D01*
X101331Y17996D01*
X101281Y18022D01*
X101236Y18040D01*
X101194Y18050D01*
X101155Y18054D01*
X102046Y18945D01*
X102050Y18906D01*
D02*
G37*
%LPC*%
G36*
X125400Y99527D02*
X124854Y99419D01*
X124443Y99145D01*
X124384Y99121D01*
X124332Y99072D01*
X124294Y99041D01*
X124258Y99015D01*
X124223Y98994D01*
X124190Y98978D01*
X124157Y98965D01*
X124124Y98955D01*
X124089Y98948D01*
X124052Y98943D01*
X123990Y98941D01*
X123936Y98916D01*
X118600D01*
X118288Y98854D01*
X118023Y98677D01*
X118023Y98677D01*
X117459Y98112D01*
X117403Y98092D01*
X117357Y98050D01*
X117328Y98027D01*
X117298Y98007D01*
X117267Y97991D01*
X117235Y97976D01*
X117200Y97964D01*
X117160Y97955D01*
X117117Y97947D01*
X117068Y97943D01*
X116996Y97941D01*
X116938Y97915D01*
X116454Y97819D01*
X115991Y97509D01*
X115681Y97046D01*
X115573Y96500D01*
X115681Y95954D01*
X115991Y95491D01*
X116454Y95181D01*
X117000Y95073D01*
X117546Y95181D01*
X118009Y95491D01*
X118319Y95954D01*
X118415Y96438D01*
X118441Y96496D01*
X118443Y96568D01*
X118447Y96617D01*
X118455Y96660D01*
X118464Y96700D01*
X118476Y96735D01*
X118491Y96767D01*
X118507Y96798D01*
X118527Y96828D01*
X118550Y96857D01*
X118591Y96903D01*
X118612Y96959D01*
X118938Y97284D01*
X123936D01*
X123990Y97259D01*
X124052Y97257D01*
X124089Y97252D01*
X124124Y97245D01*
X124157Y97235D01*
X124190Y97222D01*
X124223Y97206D01*
X124258Y97185D01*
X124294Y97159D01*
X124332Y97128D01*
X124384Y97079D01*
X124443Y97055D01*
X124854Y96781D01*
X125400Y96673D01*
X125946Y96781D01*
X126409Y97091D01*
X126719Y97554D01*
X126827Y98100D01*
X126719Y98646D01*
X126409Y99109D01*
X125946Y99419D01*
X125400Y99527D01*
D02*
G37*
G36*
X82406Y97115D02*
X81596Y96954D01*
X80910Y96496D01*
X80451Y95810D01*
X80290Y95000D01*
X80451Y94190D01*
X80910Y93504D01*
X81596Y93046D01*
X82406Y92885D01*
X83215Y93046D01*
X83901Y93504D01*
X84360Y94190D01*
X84521Y95000D01*
X84360Y95810D01*
X83901Y96496D01*
X83215Y96954D01*
X82406Y97115D01*
D02*
G37*
G36*
X66100Y100739D02*
X63100D01*
X62320Y100584D01*
X61658Y100142D01*
X61216Y99480D01*
X61061Y98700D01*
Y91700D01*
X61216Y90920D01*
X61658Y90258D01*
X62320Y89816D01*
X63100Y89661D01*
X66100D01*
X66480Y89227D01*
Y88846D01*
X66459Y88795D01*
X66458Y88704D01*
X66455Y88635D01*
X66442Y88508D01*
X66437Y88476D01*
X66431Y88452D01*
X66431Y88451D01*
X66429Y88449D01*
X66429Y88444D01*
X66420Y88424D01*
X66420Y88403D01*
X66181Y88046D01*
X66073Y87500D01*
X66181Y86954D01*
X66491Y86491D01*
X66954Y86181D01*
X67500Y86073D01*
X68046Y86181D01*
X68509Y86491D01*
X68819Y86954D01*
X68927Y87500D01*
X68819Y88046D01*
X68580Y88403D01*
X68580Y88424D01*
X68571Y88444D01*
X68571Y88449D01*
X68569Y88451D01*
X68569Y88452D01*
X68563Y88476D01*
X68559Y88503D01*
X68542Y88713D01*
X68541Y88795D01*
X68520Y88846D01*
Y89654D01*
X68541Y89705D01*
X68542Y89796D01*
X68545Y89865D01*
X68558Y89992D01*
X68563Y90024D01*
X68569Y90048D01*
X68569Y90049D01*
X68571Y90052D01*
X68571Y90056D01*
X68580Y90076D01*
X68580Y90097D01*
X68819Y90454D01*
X68927Y91000D01*
X68819Y91546D01*
X68520Y91994D01*
Y92300D01*
X68442Y92690D01*
X68221Y93021D01*
X68139Y93103D01*
Y94146D01*
X68639Y94195D01*
X68640Y94190D01*
X69099Y93504D01*
X69785Y93046D01*
X70595Y92885D01*
X71404Y93046D01*
X72090Y93504D01*
X72549Y94190D01*
X72710Y95000D01*
X72549Y95810D01*
X72090Y96496D01*
X71404Y96954D01*
X70595Y97115D01*
X69785Y96954D01*
X69099Y96496D01*
X68640Y95810D01*
X68639Y95805D01*
X68139Y95854D01*
Y98700D01*
X67984Y99480D01*
X67542Y100142D01*
X66880Y100584D01*
X66100Y100739D01*
D02*
G37*
G36*
X55858Y74192D02*
X55164Y74054D01*
X54575Y73661D01*
X54182Y73072D01*
X54044Y72378D01*
X54182Y71684D01*
X54575Y71095D01*
X55164Y70702D01*
X55858Y70564D01*
X56553Y70702D01*
X57141Y71095D01*
X57535Y71684D01*
X57673Y72378D01*
X57535Y73072D01*
X57141Y73661D01*
X56553Y74054D01*
X55858Y74192D01*
D02*
G37*
G36*
Y51436D02*
X55164Y51298D01*
X54575Y50905D01*
X54182Y50316D01*
X54044Y49622D01*
X54182Y48928D01*
X54575Y48339D01*
X55164Y47946D01*
X55858Y47808D01*
X56553Y47946D01*
X57141Y48339D01*
X57535Y48928D01*
X57673Y49622D01*
X57535Y50316D01*
X57141Y50905D01*
X56553Y51298D01*
X55858Y51436D01*
D02*
G37*
%LPD*%
G36*
X124757Y97470D02*
X124692Y97533D01*
X124624Y97589D01*
X124554Y97638D01*
X124483Y97681D01*
X124409Y97717D01*
X124334Y97747D01*
X124256Y97770D01*
X124176Y97787D01*
X124095Y97797D01*
X124012Y97800D01*
Y98400D01*
X124095Y98403D01*
X124176Y98413D01*
X124256Y98430D01*
X124334Y98453D01*
X124409Y98483D01*
X124483Y98519D01*
X124554Y98562D01*
X124624Y98611D01*
X124692Y98667D01*
X124757Y98730D01*
Y97470D01*
D02*
G37*
G36*
X118194Y97270D02*
X118137Y97208D01*
X118087Y97144D01*
X118042Y97076D01*
X118004Y97005D01*
X117971Y96930D01*
X117945Y96852D01*
X117924Y96772D01*
X117910Y96687D01*
X117902Y96600D01*
X117900Y96509D01*
X117009Y97400D01*
X117100Y97402D01*
X117187Y97410D01*
X117271Y97425D01*
X117352Y97445D01*
X117430Y97471D01*
X117505Y97504D01*
X117576Y97542D01*
X117644Y97587D01*
X117708Y97637D01*
X117770Y97694D01*
X118194Y97270D01*
D02*
G37*
G36*
X68105Y90328D02*
X68083Y90291D01*
X68064Y90246D01*
X68047Y90193D01*
X68032Y90132D01*
X68021Y90064D01*
X68005Y89903D01*
X68001Y89811D01*
X68000Y89712D01*
X67000D01*
X66999Y89811D01*
X66979Y90064D01*
X66967Y90132D01*
X66953Y90193D01*
X66936Y90246D01*
X66917Y90291D01*
X66895Y90328D01*
X66870Y90357D01*
X68130D01*
X68105Y90328D01*
D02*
G37*
G36*
X68001Y88689D02*
X68021Y88436D01*
X68032Y88368D01*
X68047Y88307D01*
X68064Y88254D01*
X68083Y88209D01*
X68105Y88172D01*
X68130Y88143D01*
X66870D01*
X66895Y88172D01*
X66917Y88209D01*
X66936Y88254D01*
X66953Y88307D01*
X66967Y88368D01*
X66979Y88436D01*
X66995Y88597D01*
X66999Y88689D01*
X67000Y88788D01*
X68000D01*
X68001Y88689D01*
D02*
G37*
%LPC*%
G36*
X155900Y40027D02*
X155354Y39919D01*
X154937Y39640D01*
X154879Y39617D01*
X154805Y39544D01*
X154743Y39489D01*
X154686Y39444D01*
X154635Y39408D01*
X154591Y39381D01*
X154554Y39363D01*
X154524Y39351D01*
X154504Y39345D01*
X154490Y39343D01*
X154450Y39340D01*
X154395Y39314D01*
X150304D01*
X150250Y39340D01*
X150210Y39343D01*
X150197Y39345D01*
X150176Y39351D01*
X150146Y39363D01*
X150109Y39381D01*
X150065Y39408D01*
X150020Y39440D01*
X149890Y39549D01*
X149821Y39617D01*
X149763Y39640D01*
X149346Y39919D01*
X148800Y40027D01*
X148254Y39919D01*
X147791Y39609D01*
X147481Y39146D01*
X147373Y38600D01*
X147481Y38054D01*
X147791Y37591D01*
X148254Y37281D01*
X148800Y37173D01*
X149346Y37281D01*
X149763Y37560D01*
X149821Y37583D01*
X149895Y37656D01*
X149957Y37711D01*
X150014Y37756D01*
X150065Y37792D01*
X150109Y37819D01*
X150146Y37837D01*
X150176Y37849D01*
X150197Y37855D01*
X150210Y37857D01*
X150250Y37860D01*
X150304Y37886D01*
X154395D01*
X154450Y37860D01*
X154490Y37857D01*
X154504Y37855D01*
X154524Y37849D01*
X154553Y37837D01*
X154591Y37819D01*
X154635Y37792D01*
X154680Y37760D01*
X154810Y37651D01*
X154879Y37583D01*
X154937Y37560D01*
X155354Y37281D01*
X155900Y37173D01*
X156446Y37281D01*
X156909Y37591D01*
X157219Y38054D01*
X157327Y38600D01*
X157219Y39146D01*
X156909Y39609D01*
X156446Y39919D01*
X155900Y40027D01*
D02*
G37*
%LPD*%
G36*
X155257Y37970D02*
X155174Y38052D01*
X155010Y38189D01*
X154931Y38245D01*
X154853Y38293D01*
X154776Y38331D01*
X154701Y38361D01*
X154627Y38383D01*
X154554Y38396D01*
X154482Y38400D01*
Y38800D01*
X154554Y38804D01*
X154627Y38817D01*
X154701Y38839D01*
X154776Y38869D01*
X154853Y38908D01*
X154931Y38955D01*
X155010Y39011D01*
X155091Y39075D01*
X155174Y39148D01*
X155257Y39230D01*
Y37970D01*
D02*
G37*
G36*
X149526Y39148D02*
X149689Y39011D01*
X149769Y38955D01*
X149847Y38908D01*
X149924Y38869D01*
X149999Y38839D01*
X150074Y38817D01*
X150146Y38804D01*
X150217Y38800D01*
Y38400D01*
X150146Y38396D01*
X150074Y38383D01*
X149999Y38361D01*
X149924Y38331D01*
X149847Y38293D01*
X149769Y38245D01*
X149689Y38189D01*
X149609Y38125D01*
X149526Y38052D01*
X149443Y37970D01*
Y39230D01*
X149526Y39148D01*
D02*
G37*
%LPC*%
G36*
X148100Y34227D02*
X147554Y34119D01*
X147091Y33809D01*
X146781Y33346D01*
X146673Y32800D01*
X146781Y32254D01*
X147060Y31837D01*
X147083Y31779D01*
X147156Y31705D01*
X147211Y31643D01*
X147256Y31586D01*
X147292Y31535D01*
X147319Y31491D01*
X147337Y31454D01*
X147349Y31424D01*
X147355Y31403D01*
X147357Y31390D01*
X147360Y31350D01*
X147386Y31295D01*
Y28927D01*
X147441Y28654D01*
X147595Y28422D01*
X152222Y23795D01*
X152454Y23641D01*
X152727Y23586D01*
X158495D01*
X158550Y23560D01*
X158590Y23557D01*
X158604Y23555D01*
X158624Y23549D01*
X158653Y23537D01*
X158691Y23519D01*
X158735Y23492D01*
X158780Y23460D01*
X158910Y23351D01*
X158979Y23283D01*
X159037Y23260D01*
X159454Y22981D01*
X160000Y22873D01*
X160546Y22981D01*
X161009Y23291D01*
X161319Y23754D01*
X161427Y24300D01*
X161319Y24846D01*
X161009Y25309D01*
X160546Y25619D01*
X160000Y25727D01*
X159454Y25619D01*
X159037Y25340D01*
X158979Y25317D01*
X158905Y25244D01*
X158651Y25250D01*
X158368Y25594D01*
X158320Y25662D01*
X158427Y26200D01*
X158319Y26746D01*
X158009Y27209D01*
X157546Y27519D01*
X157000Y27627D01*
X156454Y27519D01*
X156044Y27245D01*
X155984Y27222D01*
X155932Y27172D01*
X155894Y27141D01*
X155858Y27115D01*
X155823Y27094D01*
X155790Y27078D01*
X155757Y27065D01*
X155724Y27055D01*
X155689Y27048D01*
X155652Y27043D01*
X155590Y27041D01*
X155536Y27016D01*
X152638D01*
X151016Y28638D01*
Y29236D01*
X151041Y29290D01*
X151043Y29352D01*
X151048Y29389D01*
X151055Y29423D01*
X151065Y29457D01*
X151078Y29490D01*
X151094Y29524D01*
X151115Y29558D01*
X151141Y29594D01*
X151172Y29632D01*
X151222Y29684D01*
X151245Y29743D01*
X151519Y30154D01*
X151627Y30700D01*
X151519Y31246D01*
X151209Y31709D01*
X150746Y32019D01*
X150200Y32127D01*
X149851Y32058D01*
X149832Y32066D01*
X149466Y32432D01*
X149458Y32451D01*
X149527Y32800D01*
X149419Y33346D01*
X149109Y33809D01*
X148646Y34119D01*
X148100Y34227D01*
D02*
G37*
%LPD*%
G36*
X148648Y32074D02*
X148511Y31910D01*
X148455Y31831D01*
X148407Y31753D01*
X148369Y31676D01*
X148339Y31601D01*
X148317Y31526D01*
X148304Y31454D01*
X148300Y31383D01*
X147900D01*
X147896Y31454D01*
X147883Y31526D01*
X147861Y31601D01*
X147831Y31676D01*
X147792Y31753D01*
X147745Y31831D01*
X147689Y31910D01*
X147625Y31991D01*
X147552Y32074D01*
X147470Y32157D01*
X148730D01*
X148648Y32074D01*
D02*
G37*
G36*
X150767Y29992D02*
X150711Y29924D01*
X150662Y29854D01*
X150619Y29783D01*
X150583Y29709D01*
X150553Y29634D01*
X150530Y29556D01*
X150513Y29476D01*
X150503Y29395D01*
X150500Y29311D01*
X149900D01*
X149897Y29395D01*
X149887Y29476D01*
X149870Y29556D01*
X149847Y29634D01*
X149818Y29709D01*
X149781Y29783D01*
X149738Y29854D01*
X149689Y29924D01*
X149633Y29992D01*
X149570Y30057D01*
X150830D01*
X150767Y29992D01*
D02*
G37*
G36*
X156357Y25570D02*
X156292Y25633D01*
X156224Y25689D01*
X156154Y25738D01*
X156083Y25781D01*
X156009Y25817D01*
X155933Y25847D01*
X155856Y25870D01*
X155776Y25887D01*
X155695Y25897D01*
X155612Y25900D01*
Y26500D01*
X155695Y26503D01*
X155776Y26513D01*
X155856Y26530D01*
X155933Y26553D01*
X156009Y26583D01*
X156083Y26619D01*
X156154Y26662D01*
X156224Y26711D01*
X156292Y26767D01*
X156357Y26830D01*
Y25570D01*
D02*
G37*
G36*
X159357Y23670D02*
X159274Y23752D01*
X159110Y23889D01*
X159031Y23945D01*
X158953Y23992D01*
X158876Y24031D01*
X158801Y24061D01*
X158727Y24083D01*
X158654Y24096D01*
X158582Y24100D01*
Y24500D01*
X158654Y24504D01*
X158727Y24517D01*
X158801Y24539D01*
X158876Y24569D01*
X158953Y24608D01*
X159031Y24655D01*
X159110Y24711D01*
X159191Y24775D01*
X159274Y24848D01*
X159357Y24930D01*
Y23670D01*
D02*
G37*
D13*
X107300Y42700D02*
X109600D01*
X101000Y36400D02*
X107300Y42700D01*
X101000Y31900D02*
Y36400D01*
X101146Y18954D02*
X102400Y17700D01*
X126000Y75028D02*
X130672Y79700D01*
X126000Y65994D02*
Y75028D01*
X120806Y60800D02*
X126000Y65994D01*
X124200Y77100D02*
X132400Y85300D01*
X124200Y66315D02*
Y77100D01*
X120185Y62300D02*
X124200Y66315D01*
X111000Y62300D02*
X120185D01*
X110000Y60800D02*
X120806D01*
X107100Y66200D02*
X111000Y62300D01*
X104600Y66200D02*
X110000Y60800D01*
X103500Y63800D02*
X106300Y61000D01*
X101600Y63800D02*
X103500D01*
X99300Y66100D02*
X101600Y63800D01*
X106300Y58700D02*
Y61000D01*
X102300Y54700D02*
X106300Y58700D01*
X99700Y54700D02*
X102300D01*
X98100Y56300D02*
X99700Y54700D01*
X102790Y52600D02*
X106190Y56000D01*
X98800Y52600D02*
X102790D01*
X91000Y60400D02*
X98800Y52600D01*
X106190Y56000D02*
X112000D01*
X157100Y83100D02*
X165288Y74912D01*
X147000Y83100D02*
X157100D01*
X143600Y79700D02*
X147000Y83100D01*
X96700Y77000D02*
X105146D01*
X91000Y71300D02*
X96700Y77000D01*
X91000Y60400D02*
Y71300D01*
X99300Y66100D02*
Y69400D01*
X107100Y66200D02*
Y67200D01*
X99300Y69400D02*
X100400Y70500D01*
X95800Y37700D02*
Y53400D01*
X89000Y60200D02*
X95800Y53400D01*
X115442Y86000D02*
X118900D01*
X112500Y88942D02*
X115442Y86000D01*
X112500Y88942D02*
Y97200D01*
X118500Y29000D02*
X119400Y28100D01*
X109639Y29000D02*
X118500D01*
X107839Y30800D02*
X109639Y29000D01*
X172542Y35500D02*
X173124Y36082D01*
X167500Y35500D02*
X172542D01*
X140800Y41900D02*
X151500D01*
X94800Y36700D02*
X95800Y37700D01*
X94800Y36500D02*
Y36700D01*
X119400Y24900D02*
Y28100D01*
X105900Y30800D02*
X107839D01*
X105280Y30180D02*
X105900Y30800D01*
X113383Y21617D02*
Y23800D01*
Y24900D01*
Y23800D02*
X114583Y22600D01*
X115700D01*
Y20600D02*
Y22600D01*
X115050Y19950D02*
X115700Y20600D01*
X113383Y21617D02*
X115050Y19950D01*
X102720Y23020D02*
Y28100D01*
X102400Y17700D02*
X165400Y17700D01*
X158200Y90100D02*
X171000Y77300D01*
X123000Y90100D02*
X158200D01*
X118900Y86000D02*
X123000Y90100D01*
X165288Y71373D02*
Y74912D01*
X169700Y63000D02*
Y66961D01*
X165288Y71373D02*
X169700Y66961D01*
X130672Y79700D02*
X143600D01*
X103800Y70500D02*
X107100Y67200D01*
X164400Y57700D02*
X169700Y63000D01*
X141400Y39500D02*
X142000Y38900D01*
X138400Y39500D02*
X141400D01*
X89000Y60200D02*
Y74700D01*
X100400Y70500D02*
X103800D01*
X132400Y85300D02*
X135500D01*
X103100Y66200D02*
X104600D01*
X102100Y67200D02*
X103100Y66200D01*
X164400Y51700D02*
Y57700D01*
Y51700D02*
X166900Y49200D01*
X122800Y39500D02*
X138400D01*
X140800Y41900D01*
X154200Y32600D02*
X155783Y31017D01*
X174800D01*
X165400Y17700D02*
X168600Y20900D01*
X174800D01*
X67500Y91000D02*
Y92300D01*
Y87500D02*
Y91000D01*
X64600Y95200D02*
X67500Y92300D01*
D16*
X93750Y50250D02*
Y53682D01*
X84332Y63100D02*
X93750Y53682D01*
X92000Y51500D02*
Y54018D01*
X86918Y59100D02*
X92000Y54018D01*
Y48500D02*
X93750Y50250D01*
X61100Y63100D02*
X84332D01*
X68600Y59100D02*
X86918D01*
X56800Y58800D02*
X61100Y63100D01*
X66900Y60800D02*
X68600Y59100D01*
D18*
X98600Y35628D02*
Y43974D01*
X96472Y33500D02*
X98600Y35628D01*
X84100Y18300D02*
X97400Y31600D01*
X107200Y35300D02*
X113000D01*
X97400Y31600D02*
X98417D01*
X100117Y29900D01*
X101800D01*
X107200Y35300D01*
X109800D01*
X106226Y51600D02*
X112100D01*
X98600Y43974D02*
X106226Y51600D01*
X152300Y26200D02*
X157000D01*
X150200Y28300D02*
X152300Y26200D01*
X150200Y28300D02*
Y30700D01*
X119800Y46200D02*
X126100D01*
X113000Y35300D02*
X120000Y42300D01*
X80516Y33500D02*
X96472D01*
X77500Y30484D02*
X80516Y33500D01*
X77500Y28500D02*
Y30484D01*
Y28500D02*
X79000Y27000D01*
X84700D01*
X86300Y25400D01*
X137700Y42300D02*
X143400Y48000D01*
X120000Y42300D02*
X137700D01*
X126500Y44500D02*
X129811Y47811D01*
X126300Y44300D02*
X126500Y44500D01*
X75258Y18300D02*
X84100D01*
X78800Y20400D02*
X83000D01*
X157206Y87700D02*
X166588Y78318D01*
X129900Y87700D02*
X157206D01*
X119700Y77500D02*
X129900Y87700D01*
X157661Y88800D02*
X167800Y78662D01*
X128300Y88800D02*
X157661D01*
X116700Y77200D02*
X128300Y88800D01*
X166588Y71912D02*
Y78318D01*
X167800Y73600D02*
Y78662D01*
X116700Y68700D02*
Y77200D01*
X119700Y67800D02*
Y77500D01*
X115100Y66500D02*
X118400D01*
X119700Y67800D01*
X167800Y73600D02*
X169917Y71483D01*
X174800D01*
Y61367D02*
Y63700D01*
X166588Y71912D02*
X174800Y63700D01*
X159800Y76600D02*
X162100Y74300D01*
Y51100D02*
Y74300D01*
X140500Y63200D02*
X144600D01*
X131400Y72300D02*
X140500Y63200D01*
X131400Y72300D02*
Y74000D01*
X87000Y55600D02*
X87300D01*
X84800Y53400D02*
X87000Y55600D01*
X112100Y51600D02*
X116500Y56000D01*
X129800Y49900D02*
X137200D01*
X126100Y46200D02*
X129800Y49900D01*
X134300Y53100D02*
Y53500D01*
X148300Y56000D02*
X152100D01*
X146500Y57800D02*
X148300Y56000D01*
X125100Y57800D02*
X146500D01*
X152100Y56000D02*
X164300Y43800D01*
X124400Y57100D02*
X125100Y57800D01*
X56600Y53400D02*
X84800D01*
X162100Y51100D02*
X166588Y46612D01*
X169000Y45400D02*
Y50300D01*
X167100Y52200D02*
X169000Y50300D01*
X167100Y52200D02*
Y55700D01*
X137200Y49900D02*
X139300Y47800D01*
X129811Y47811D02*
X136400D01*
X164300Y43800D02*
X167400D01*
X169000Y45400D01*
X152600Y76600D02*
X159800D01*
X150827Y74827D02*
X152600Y76600D01*
X153800Y70700D02*
X155400Y69100D01*
X158900D01*
X153900Y73600D02*
X155298Y72202D01*
X159402D01*
X54700Y55300D02*
X56600Y53400D01*
X73658Y19900D02*
X75258Y18300D01*
X86300Y23700D02*
Y25400D01*
X83000Y20400D02*
X86300Y23700D01*
X117000Y96500D02*
X118600Y98100D01*
X125400D01*
X116400Y89000D02*
X121800Y94400D01*
X128400D01*
X134500Y100500D01*
D75*
X99600Y43559D02*
X106541Y50500D01*
X99600Y35214D02*
Y43559D01*
X94086Y29700D02*
X99600Y35214D01*
X119673Y48400D02*
X122600D01*
X112800Y41527D02*
X119673Y48400D01*
X112800Y38400D02*
Y41527D01*
X110100Y40100D02*
X120300Y50300D01*
X110100Y38000D02*
Y40100D01*
X104500Y43200D02*
Y45300D01*
X128600Y74234D02*
X131567Y77200D01*
X128600Y65200D02*
Y74234D01*
X113900Y50500D02*
X128600Y65200D01*
X106913Y49600D02*
X114273D01*
X102200Y44887D02*
X106913Y49600D01*
X102200Y42300D02*
Y44887D01*
X106541Y50500D02*
X113900D01*
X142900Y33200D02*
X145400Y35700D01*
X125800Y33200D02*
X142900D01*
X164800Y35700D02*
X170233Y41133D01*
X145400Y35700D02*
X164800D01*
X140500Y65000D02*
X158400D01*
X133900Y71600D02*
X140500Y65000D01*
X133900Y71600D02*
Y74000D01*
X171100Y44200D02*
Y46400D01*
X166500Y39600D02*
X171100Y44200D01*
X158900Y39600D02*
X166500D01*
X170233Y41133D02*
X174800D01*
X121300Y41200D02*
X138200D01*
X115500Y35400D02*
X121300Y41200D01*
X145300Y46300D02*
X152200D01*
X143400Y44400D02*
X145300Y46300D01*
X141400Y44400D02*
X143400D01*
X79700Y29700D02*
X94086D01*
X112800Y32200D02*
X123200D01*
X160203Y78300D02*
X164000Y74503D01*
Y69500D02*
Y74503D01*
X150000Y78300D02*
X160203D01*
X131567Y77200D02*
X135200D01*
X114200Y33200D02*
X125800D01*
X113400Y34000D02*
X114200Y33200D01*
X111000Y34000D02*
X113400D01*
X110100Y33100D02*
X111000Y34000D01*
X125800Y33200D02*
X139100Y19900D01*
X123200Y32200D02*
X135500Y19900D01*
X115500Y35200D02*
Y35400D01*
X138200Y41200D02*
X141400Y44400D01*
X152200Y46300D02*
X158900Y39600D01*
X166300Y40800D02*
X170100Y44600D01*
X159200Y40800D02*
X166300D01*
X171100Y46400D02*
X174800Y50100D01*
Y51250D01*
X152000Y48000D02*
X159200Y40800D01*
X143400Y48000D02*
X152000D01*
X167400Y65000D02*
Y66100D01*
X164000Y69500D02*
X167400Y66100D01*
X141700Y72300D02*
X143200Y73800D01*
X136900Y72300D02*
X141700D01*
X135700Y73500D02*
X136900Y72300D01*
X135700Y73500D02*
Y75000D01*
X134800Y75900D02*
X135700Y75000D01*
X132700Y75900D02*
X134800D01*
X131400Y74600D02*
X132700Y75900D01*
X131400Y74000D02*
Y74600D01*
X146500Y77800D02*
X149300Y80600D01*
X146500Y73300D02*
Y77800D01*
X144600Y71400D02*
X146500Y73300D01*
X107800Y48600D02*
X115000D01*
X104500Y45300D02*
X107800Y48600D01*
X115000D02*
X119400Y53000D01*
X114273Y49600D02*
X118873Y54200D01*
X119400Y53000D02*
X120900D01*
X124100Y49800D01*
X127800D01*
X127400Y50800D02*
X130100Y53500D01*
X124500Y50800D02*
X127400D01*
X127000Y51800D02*
X130800Y55600D01*
X124800Y51800D02*
X127000D01*
X127800Y49800D02*
X129600Y51600D01*
X133200D01*
X134300Y52700D01*
Y53100D01*
X118873Y54200D02*
X121100D01*
X124500Y50800D01*
X123100Y53500D02*
X124800Y51800D01*
X130100Y53500D02*
X131547D01*
X130800Y55600D02*
X143200D01*
X123100Y53500D02*
Y55100D01*
X145750Y56750D02*
X159825Y42675D01*
X128950Y56750D02*
X145750D01*
X125700Y53500D02*
X128950Y56750D01*
X135200Y77200D02*
X137500Y74900D01*
X148100Y28927D02*
Y32800D01*
X143200Y55600D02*
X148700Y50100D01*
X152727Y24300D02*
X160000D01*
X148100Y28927D02*
X152727Y24300D01*
X148800Y38600D02*
X155900D01*
X170100Y44600D02*
Y51800D01*
X168900Y53000D02*
X170100Y51800D01*
X150500Y59000D02*
X158400D01*
X159500Y60100D01*
X149300Y80600D02*
X155900D01*
X152200Y62100D02*
X158800D01*
X160400Y63700D01*
Y66100D01*
X159400Y67100D02*
X160400Y66100D01*
X153400Y67100D02*
X159400D01*
X148500Y72000D02*
X153400Y67100D01*
X148500Y72000D02*
Y76800D01*
X150000Y78300D01*
X137500Y74300D02*
Y74900D01*
X77500Y24800D02*
X82700D01*
X73800Y28500D02*
X77500Y24800D01*
X73800Y28500D02*
Y31000D01*
D76*
X94300Y18800D02*
X100993D01*
X92500Y20600D02*
X94300Y18800D01*
D77*
X97450Y36105D02*
Y44450D01*
X95995Y34650D02*
X97450Y36105D01*
X127500Y74618D02*
X131182Y78300D01*
X127500Y65585D02*
Y74618D01*
X121215Y59300D02*
X127500Y65585D01*
X116100Y59300D02*
X121215D01*
X114100Y57300D02*
X116100Y59300D01*
X106200Y53200D02*
X112000D01*
X97450Y44450D02*
X106200Y53200D01*
X76400Y32600D02*
X78450Y34650D01*
X95995D01*
X131182Y78300D02*
X138400D01*
X114100Y55300D02*
Y57300D01*
X112000Y53200D02*
X114100Y55300D01*
X138400Y78300D02*
X140600Y76100D01*
Y74300D02*
Y76100D01*
D78*
X57827Y78028D02*
D03*
Y43972D02*
D03*
D79*
X42079Y78028D02*
D03*
Y43972D02*
D03*
D80*
X55858Y49622D02*
D03*
Y72378D02*
D03*
D81*
X82406Y95000D02*
D03*
X70595D02*
D03*
D82*
X114700Y74200D02*
D03*
X105100Y36600D02*
D03*
X103500Y34400D02*
D03*
X109600Y42700D02*
D03*
X104500Y43200D02*
D03*
X101000Y31900D02*
D03*
X97602Y29118D02*
D03*
X97900Y22100D02*
D03*
X100500Y97600D02*
D03*
X97500Y94000D02*
D03*
X154700Y85600D02*
D03*
X151400D02*
D03*
X148100D02*
D03*
X139200D02*
D03*
X47000Y50000D02*
D03*
Y54000D02*
D03*
Y58000D02*
D03*
Y62000D02*
D03*
Y66000D02*
D03*
Y70000D02*
D03*
X153000Y28600D02*
D03*
X136100Y35000D02*
D03*
X132800D02*
D03*
X129700D02*
D03*
X94600Y60900D02*
D03*
X95000Y63900D02*
D03*
X119800Y46200D02*
D03*
X102600Y60200D02*
D03*
X101500Y57800D02*
D03*
X111800Y65700D02*
D03*
X137800Y92600D02*
D03*
X128300Y100400D02*
D03*
X131900Y94100D02*
D03*
X140400Y92600D02*
D03*
X117600Y100700D02*
D03*
X106900Y97600D02*
D03*
X111300Y86600D02*
D03*
X108800Y83700D02*
D03*
X112100Y84000D02*
D03*
X107800Y76700D02*
D03*
X109800Y71900D02*
D03*
X112200Y75800D02*
D03*
X98600Y82100D02*
D03*
X100000Y84800D02*
D03*
Y88700D02*
D03*
X107839Y37100D02*
D03*
X110100Y38000D02*
D03*
X121000Y30180D02*
D03*
X173124Y36082D02*
D03*
X171000Y56100D02*
D03*
X168758Y58310D02*
D03*
X141000Y67500D02*
D03*
Y70000D02*
D03*
X135500Y28500D02*
D03*
Y31500D02*
D03*
X132500Y31484D02*
D03*
X151500Y41900D02*
D03*
X151000Y54110D02*
D03*
X150500Y44300D02*
D03*
X90500Y18000D02*
D03*
X71000Y30500D02*
D03*
X68500D02*
D03*
X86000Y31500D02*
D03*
X93000Y31484D02*
D03*
X126500Y44500D02*
D03*
X115000Y40500D02*
D03*
X124000Y21000D02*
D03*
X147000Y25000D02*
D03*
X163000Y21000D02*
D03*
X159000D02*
D03*
X155000D02*
D03*
X151000D02*
D03*
X147000D02*
D03*
X62000Y34000D02*
D03*
X64600Y37100D02*
D03*
Y41000D02*
D03*
X80000Y48500D02*
D03*
X77000D02*
D03*
X70000Y74300D02*
D03*
X80000D02*
D03*
X76667D02*
D03*
X73333D02*
D03*
X66000Y77300D02*
D03*
Y81000D02*
D03*
X64000Y84000D02*
D03*
X82000Y86000D02*
D03*
Y89000D02*
D03*
X70595Y99000D02*
D03*
X84000D02*
D03*
X100000Y100000D02*
D03*
X146000Y44300D02*
D03*
X137500Y61367D02*
D03*
X134300D02*
D03*
X131000D02*
D03*
X144000Y67200D02*
D03*
X150827Y66953D02*
D03*
X175000Y78000D02*
D03*
X170000Y83000D02*
D03*
X174000D02*
D03*
Y87000D02*
D03*
X170000D02*
D03*
X166000D02*
D03*
X94800Y36500D02*
D03*
X107839Y30800D02*
D03*
X105280Y30180D02*
D03*
X115700Y22600D02*
D03*
X115050Y19950D02*
D03*
X112800Y32200D02*
D03*
X102720Y28100D02*
D03*
X102700Y23000D02*
D03*
X78800Y20400D02*
D03*
X171000Y77300D02*
D03*
X116700Y68700D02*
D03*
X115100Y66500D02*
D03*
X144600Y63200D02*
D03*
X115500Y35200D02*
D03*
X167400Y65000D02*
D03*
X133900Y74000D02*
D03*
X143200Y73800D02*
D03*
X142000Y38900D02*
D03*
X87300Y55600D02*
D03*
X112000Y56000D02*
D03*
X105146Y77000D02*
D03*
X102200Y42300D02*
D03*
X122600Y48400D02*
D03*
X120300Y50300D02*
D03*
X131400Y74000D02*
D03*
X167500Y35500D02*
D03*
X112500Y97200D02*
D03*
X157000Y26200D02*
D03*
X150200Y30700D02*
D03*
X148100Y32800D02*
D03*
X89000Y74700D02*
D03*
X135500Y85300D02*
D03*
X98100Y56300D02*
D03*
X104600Y66200D02*
D03*
X102100Y67200D02*
D03*
X166900Y49200D02*
D03*
X122800Y39500D02*
D03*
X154200Y32600D02*
D03*
X139100Y19900D02*
D03*
X135500D02*
D03*
X67500Y87500D02*
D03*
Y91000D02*
D03*
X148800Y38600D02*
D03*
X148700Y50100D02*
D03*
X123100Y55100D02*
D03*
X160000Y24300D02*
D03*
X94300Y18800D02*
D03*
X92500Y20600D02*
D03*
X110100Y33100D02*
D03*
X112800Y38400D02*
D03*
X139300Y47800D02*
D03*
X136400Y47811D02*
D03*
X134300Y53500D02*
D03*
X131547D02*
D03*
X168900Y53000D02*
D03*
X155900Y38600D02*
D03*
X125700Y53500D02*
D03*
X159825Y42675D02*
D03*
X124400Y57100D02*
D03*
X167100Y55700D02*
D03*
X150500Y59000D02*
D03*
X159500Y60100D02*
D03*
X144600Y71400D02*
D03*
X155900Y80600D02*
D03*
X158400Y65000D02*
D03*
X152200Y62100D02*
D03*
X166588Y46612D02*
D03*
X150827Y74827D02*
D03*
X153800Y70700D02*
D03*
X158900Y69100D02*
D03*
X159402Y72202D02*
D03*
X153900Y73600D02*
D03*
X140600Y74300D02*
D03*
X76400Y32600D02*
D03*
X66900Y60800D02*
D03*
X56800Y58800D02*
D03*
X92000Y48500D02*
D03*
Y51500D02*
D03*
X56600Y53400D02*
D03*
X54700Y55300D02*
D03*
X143400Y48000D02*
D03*
X73658Y19900D02*
D03*
X116500Y56000D02*
D03*
X137500Y74300D02*
D03*
X125400Y98100D02*
D03*
X117000Y96500D02*
D03*
X116400Y89000D02*
D03*
X134500Y100500D02*
D03*
X105147Y19854D02*
D03*
X101146Y18954D02*
D03*
X82700Y24800D02*
D03*
X73800Y31000D02*
D03*
X79700Y29700D02*
D03*
D83*
X113383Y24900D02*
D03*
X119400D02*
D03*
X104367D02*
D03*
X98350D02*
D03*
D84*
X174800Y85400D02*
D03*
D85*
X76600Y95200D02*
D03*
X64600D02*
D03*
D86*
X174800Y71483D02*
D03*
Y61367D02*
D03*
Y51250D02*
D03*
Y41133D02*
D03*
Y20900D02*
D03*
Y31017D02*
D03*
D87*
X97900Y22100D02*
Y28820D01*
Y22100D02*
X98350Y22550D01*
X97602Y29118D02*
X97900Y28820D01*
M02*
